{
.appVersion = "116";
DisplayStrings = (
A
);
copyright = "Copyright © 2024 gbgk + The Inter Project Authors";
customParameters = (
{
name = license;
value = "OFL 1.1";
}
);
date = "2023-11-20 00:06:37 +0000";
designer = gbgk;
designerURL = "https://gbgk.me/";
familyName = "Dag Round Text";
featurePrefixes = (
{
automatic = 1;
code = "languagesystem DFLT dflt;\012languagesystem latn dflt;\012languagesystem hebr dflt;\012languagesystem latn ROM;\012languagesystem latn MOL;\012languagesystem latn CAT;\012";
name = Languagesystems;
}
);
features = (
{
automatic = 1;
code = "feature locl;\012feature frac;\012feature ordn;\012feature smcp;\012";
name = aalt;
},
{
automatic = 1;
code = "script latn;\012language ROM;\012sub Scedilla by Scommaaccent;\012sub scedilla by scommaaccent;\012sub tcedilla by tcommaaccent;\012language MOL;\012sub Scedilla by Scommaaccent;\012sub scedilla by scommaaccent;\012sub tcedilla by tcommaaccent;\012language CAT;\012sub  l' periodcentered' l by ldot;\012sub  L' periodcentered' L by Ldot;\012";
name = locl;
},
{
automatic = 1;
code = "lookup FRAC {\012	sub slash by fraction;\012} FRAC;\012lookup UP {\012	sub [zero one two three four five six seven eight nine] by [zero.numr one.numr two.numr three.numr four.numr five.numr six.numr seven.numr eight.numr nine.numr];\012} UP;\012lookup DOWN {\012	sub fraction [zero.numr one.numr two.numr three.numr four.numr five.numr six.numr seven.numr eight.numr nine.numr]' by [zero.dnom one.dnom two.dnom three.dnom four.dnom five.dnom six.dnom seven.dnom eight.dnom nine.dnom];\012	sub [zero.dnom one.dnom two.dnom three.dnom four.dnom five.dnom six.dnom seven.dnom eight.dnom nine.dnom] [zero.numr one.numr two.numr three.numr four.numr five.numr six.numr seven.numr eight.numr nine.numr]' by [zero.dnom one.dnom two.dnom three.dnom four.dnom five.dnom six.dnom seven.dnom eight.dnom nine.dnom];\012} DOWN;\012";
name = frac;
},
{
automatic = 1;

glyphs = (
{
glyphname = A;
lastChange = "2024-07-06 19:32:59 +0000";
layers = (
{
layerId = "E952A9EA-CC11-40A5-A77C-9A3014CC01A0";
paths = (
{
closed = 1;
nodes = (
"216 0 LINE SMOOTH",
"301 0 OFFCURVE",
"355 38 OFFCURVE",
"382 120 CURVE SMOOTH",
"464 369 LINE",
"1021 369 LINE",
"1107 118 LINE SMOOTH",
"1135 38 OFFCURVE",
"1188 0 OFFCURVE",
"1273 0 CURVE SMOOTH",
"1295 0 LINE SMOOTH",
"1384 0 OFFCURVE",
"1417 66 OFFCURVE",
"1381 167 CURVE SMOOTH",
"951 1373 LINE SMOOTH",
"923 1453 OFFCURVE",
"868 1490 OFFCURVE",
"784 1490 CURVE SMOOTH",
"695 1490 LINE SMOOTH",
"610 1490 OFFCURVE",
"557 1453 OFFCURVE",
"529 1372 CURVE SMOOTH",
"108 167 LINE SMOOTH",
"73 65 OFFCURVE",
"108 0 OFFCURVE",
"196 0 CURVE SMOOTH"
);
},
{
closed = 1;
nodes = (
"535 584 LINE",
"598 774 LINE SMOOTH",
"618.667 840 OFFCURVE",
"640.333 915.167 OFFCURVE",
"663 999.5 CURVE SMOOTH",
"685.667 1083.833 OFFCURVE",
"710.333 1178 OFFCURVE",
"737 1282 CURVE",
"765 1178.667 OFFCURVE",
"790.833 1085.333 OFFCURVE",
"814.5 1002 CURVE SMOOTH",
"838.167 918.667 OFFCURVE",
"861 842.667 OFFCURVE",
"883 774 CURVE SMOOTH",
"948 584 LINE"
);
}
);
userData = {
assembly = "NPUSHB[ ]	/* 41 values pushed */\01213 1 4 0 1 76 0 4 0 2 1 4 2 104 0 0 0 103 77 5 3 2 1 1 104 1 78 0 0 9 8 0 7 0 7 17 17 17 6 12 25 \012CALL[ ]	/* CallFunction */";
};
width = 1490;
}
);
leftKerningGroup = A;
note = A;
rightKerningGroup = A;
unicode = 0041;
},
{
glyphname = Astroke;
lastChange = "2024-07-06 19:32:59 +0000";
layers = (
{
layerId = "E952A9EA-CC11-40A5-A77C-9A3014CC01A0";
paths = (
{
closed = 1;
nodes = (
"1037 1678 OFFCURVE",
"1002 1640 OFFCURVE",
"975 1559 CURVE SMOOTH",
"931 1428 LINE",
"920 1459 LINE SMOOTH",
"913 1480 OFFCURVE",
"869 1490 OFFCURVE",
"784 1490 CURVE SMOOTH",
"695 1490 LINE SMOOTH",
"610 1490 OFFCURVE",
"557 1453 OFFCURVE",
"529 1372 CURVE SMOOTH",
"108 167 LINE SMOOTH",
"73 65 OFFCURVE",
"115 0 OFFCURVE",
"216 0 CURVE SMOOTH",
"301 0 OFFCURVE",
"355 38 OFFCURVE",
"382 120 CURVE SMOOTH",
"464 369 LINE",
"575 369 LINE",
"443 -23 LINE SMOOTH",
"409 -124 OFFCURVE",
"414 -190 OFFCURVE",
"455 -190 CURVE SMOOTH",
"500 -190 OFFCURVE",
"535 -152 OFFCURVE",
"562 -71 CURVE SMOOTH",
"710 369 LINE",
"1021 369 LINE",
"1107 118 LINE SMOOTH",
"1135 38 OFFCURVE",
"1188 0 OFFCURVE",
"1273 0 CURVE SMOOTH",
"1295 0 LINE SMOOTH",
"1384 0 OFFCURVE",
"1417 66 OFFCURVE",
"1381 167 CURVE SMOOTH",
"1001 1234 LINE",
"1094 1512 LINE SMOOTH",
"1128 1613 OFFCURVE",
"1124 1678 OFFCURVE",
"1083 1678 CURVE SMOOTH"
);
},
{
closed = 1;
nodes = (
"535 584 LINE",
"598 774 LINE SMOOTH",
"618.667 840 OFFCURVE",
"640.333 915.167 OFFCURVE",
"663 999.5 CURVE SMOOTH",
"685.667 1083.833 OFFCURVE",
"710.333 1178 OFFCURVE",
"737 1282 CURVE",
"749 1239.333 OFFCURVE",
"760.333 1198.167 OFFCURVE",
"771 1158.5 CURVE SMOOTH",
"802 1044 LINE",
"648 584 LINE"
);
},
{
closed = 1;
nodes = (
"871 811 OFFCURVE",
"877 792 OFFCURVE",
"883 774 CURVE SMOOTH",
"948 584 LINE",
"782 584 LINE",
"865 831 LINE"
);
}
);
userData = {
assembly = "NPUSHB[ ]	/* 66 values pushed */\01220 17 14 1 4 7 5 1 76 9 1 6 5 6 133 0 2 0 2 134 8 10 2 7 3 1 1 0 7 1 104 0 5 5 103 77 4 1 0 0 104 0 78 16 16 0 0 27 26 16 24 16 24 0 15 0 15 17 17 17 17 17 18 11 12 28 \012CALL[ ]	/* CallFunction */";
};
width = 1490;
}
);
leftKerningGroup = A;
note = uni023A;
rightKerningGroup = A;
unicode = 023A;
},
{
glyphname = AE;
lastChange = "2024-07-06 19:32:59 +0000";
layers = (
{
layerId = "E952A9EA-CC11-40A5-A77C-9A3014CC01A0";
paths = (
{
closed = 1;
nodes = (
"223 0 LINE SMOOTH",
"306 0 OFFCURVE",
"359 34 OFFCURVE",
"392 111 CURVE SMOOTH",
"506 375 LINE",
"996 375 LINE",
"996 146 LINE SMOOTH",
"996 51 OFFCURVE",
"1048 0 OFFCURVE",
"1142 0 CURVE SMOOTH",
"1811 0 LINE SMOOTH",
"1906 0 OFFCURVE",
"1957 40 OFFCURVE",
"1957 113 CURVE SMOOTH",
"1957 186 OFFCURVE",
"1905 225 OFFCURVE",
"1811 225 CURVE SMOOTH",
"1252 225 LINE",
"1252 638 LINE",
"1756 638 LINE SMOOTH",
"1851 638 OFFCURVE",
"1902 677 OFFCURVE",
"1902 749 CURVE SMOOTH",
"1902 821 OFFCURVE",
"1850 860 OFFCURVE",
"1756 860 CURVE SMOOTH",
"1252 860 LINE",
"1252 1265 LINE",
"1805 1265 LINE SMOOTH",
"1900 1265 OFFCURVE",
"1951 1305 OFFCURVE",
"1951 1378 CURVE SMOOTH",
"1951 1451 OFFCURVE",
"1900 1490 OFFCURVE",
"1805 1490 CURVE SMOOTH",
"839 1490 LINE SMOOTH",
"756 1490 OFFCURVE",
"703 1455 OFFCURVE",
"669 1380 CURVE SMOOTH",
"127 171 LINE SMOOTH",
"82 70 OFFCURVE",
"110 0 OFFCURVE",
"197 0 CURVE SMOOTH"
);
},
{
closed = 1;
nodes = (
"592 573 LINE",
"914 1320 LINE",
"996 1320 LINE",
"996 573 LINE"
);
}
);
userData = {
assembly = "MPPEM[ ]	/* MeasurePixelPerEm */\012PUSHB[ ]	/* 1 value pushed */\01246 \012LT[ ]	/* LessThan */\012IF[ ]	/* If */\012NPUSHB[ ]	/* 46 values pushed */\0120 9 0 1 1 9 114 0 2 0 3 8 2 3 103 0 8 0 6 4 8 6 103 0 1 1 0 96 0 0 0 103 77 0 4 4 5 95 10 7 2 5 5 104 5 78 \012ELSE[ ]	/* Else */\012NPUSHB[ ]	/* 47 values pushed */\0120 9 0 1 0 9 1 128 0 2 0 3 8 2 3 103 0 8 0 6 4 8 6 103 0 1 1 0 96 0 0 0 103 77 0 4 4 5 95 10 7 2 5 5 104 5 78 \012EIF[ ]	/* EndIf */\012NPUSHB[ ]	/* 20 values pushed */\0120 0 19 18 17 16 0 15 0 15 17 17 17 17 17 17 17 11 12 29 \012CALL[ ]	/* CallFunction */";
};
width = 2075;
}
);
leftKerningGroup = A;
note = AE;
rightKerningGroup = AE;
unicode = 00C6;
},
{
glyphname = B;
lastChange = "2024-07-06 19:32:59 +0000";
layers = (
{
layerId = "E952A9EA-CC11-40A5-A77C-9A3014CC01A0";
paths = (
{
closed = 1;
nodes = (
"150 146 LINE SMOOTH",
"150 51 OFFCURVE",
"202 0 OFFCURVE",
"296 0 CURVE SMOOTH",
"751 0 LINE SMOOTH",
"865 0 OFFCURVE",
"959.5 17.667 OFFCURVE",
"1034.5 53 CURVE SMOOTH",
"1109.5 88.333 OFFCURVE",
"1165.667 136.667 OFFCURVE",
"1203 198 CURVE SMOOTH",
"1240.333 259.333 OFFCURVE",
"1259 328.667 OFFCURVE",
"1259 406 CURVE SMOOTH",
"1259 481.333 OFFCURVE",
"1243.5 545.667 OFFCURVE",
"1212.5 599 CURVE SMOOTH",
"1181.5 652.333 OFFCURVE",
"1141.667 693.667 OFFCURVE",
"1093 723 CURVE SMOOTH",
"1044.333 752.333 OFFCURVE",
"993.667 768.333 OFFCURVE",
"941 771 CURVE",
"941 786 LINE",
"1013.667 802.667 OFFCURVE",
"1075.167 837 OFFCURVE",
"1125.5 889 CURVE SMOOTH",
"1175.833 941 OFFCURVE",
"1201 1012.333 OFFCURVE",
"1201 1103 CURVE SMOOTH",
"1201 1177 OFFCURVE",
"1183.167 1243.167 OFFCURVE",
"1147.5 1301.5 CURVE SMOOTH",
"1111.833 1359.833 OFFCURVE",
"1058.5 1405.833 OFFCURVE",
"987.5 1439.5 CURVE SMOOTH",
"916.5 1473.167 OFFCURVE",
"827.333 1490 OFFCURVE",
"720 1490 CURVE SMOOTH",
"296 1490 LINE SMOOTH",
"201 1490 OFFCURVE",
"150 1439 OFFCURVE",
"150 1344 CURVE SMOOTH"
);
},
{
closed = 1;
nodes = (
"417 223 LINE",
"417 662 LINE",
"718 662 LINE SMOOTH",
"800.667 662 OFFCURVE",
"866.333 639.333 OFFCURVE",
"915 594 CURVE SMOOTH",
"963.667 548.667 OFFCURVE",
"988 492.667 OFFCURVE",
"988 426 CURVE SMOOTH",
"988 366.667 OFFCURVE",
"966.167 318 OFFCURVE",
"922.5 280 CURVE SMOOTH",
"878.833 242 OFFCURVE",
"807.667 223 OFFCURVE",
"709 223 CURVE SMOOTH"
);
},
{
closed = 1;
nodes = (
"417 855 LINE",
"417 1268 LINE",
"692 1268 LINE SMOOTH",
"772 1268 OFFCURVE",
"832.333 1249.333 OFFCURVE",
"873 1212 CURVE SMOOTH",
"913.667 1174.667 OFFCURVE",
"934 1127 OFFCURVE",
"934 1069 CURVE SMOOTH",
"934 1003 OFFCURVE",
"910.333 950.833 OFFCURVE",
"863 912.5 CURVE SMOOTH",
"815.667 874.167 OFFCURVE",
"756.667 855 OFFCURVE",
"686 855 CURVE SMOOTH"
);
}
);
userData = {
assembly = "NPUSHB[ ]	/* 54 values pushed */\0129 1 3 4 1 76 0 4 0 3 2 4 3 103 0 5 5 0 95 0 0 0 103 77 0 2 2 1 95 6 1 1 1 104 1 78 0 0 36 34 30 28 27 25 21 19 0 18 0 17 33 7 12 23 \012CALL[ ]	/* CallFunction */";
};
width = 1350;
}
);
leftKerningGroup = B;
note = B;
rightKerningGroup = B;
unicode = 0042;
},
{
glyphname = Bhook;
lastChange = "2024-07-06 19:32:59 +0000";
layers = (
{
layerId = "E952A9EA-CC11-40A5-A77C-9A3014CC01A0";
paths = (
{
closed = 1;
nodes = (
"54 1108 OFFCURVE",
"97 1082 OFFCURVE",
"175 1082 CURVE SMOOTH",
"253 1082 OFFCURVE",
"295 1102 OFFCURVE",
"295 1138 CURVE SMOOTH",
"295 1223.333 OFFCURVE",
"340 1266 OFFCURVE",
"430 1266 CURVE SMOOTH",
"502 1266 LINE",
"502 146 LINE SMOOTH",
"502 51 OFFCURVE",
"554 0 OFFCURVE",
"648 0 CURVE SMOOTH",
"1103 0 LINE SMOOTH",
"1217 0 OFFCURVE",
"1311.5 17.667 OFFCURVE",
"1386.5 53 CURVE SMOOTH",
"1461.5 88.333 OFFCURVE",
"1517.667 136.667 OFFCURVE",
"1555 198 CURVE SMOOTH",
"1592.333 259.333 OFFCURVE",
"1611 328.667 OFFCURVE",
"1611 406 CURVE SMOOTH",
"1611 481.333 OFFCURVE",
"1595.5 545.667 OFFCURVE",
"1564.5 599 CURVE SMOOTH",
"1533.5 652.333 OFFCURVE",
"1493.667 693.667 OFFCURVE",
"1445 723 CURVE SMOOTH",
"1396.333 752.333 OFFCURVE",
"1345.667 768.333 OFFCURVE",
"1293 771 CURVE",
"1293 786 LINE",
"1365.667 802.667 OFFCURVE",
"1427.167 837 OFFCURVE",
"1477.5 889 CURVE SMOOTH",
"1527.833 941 OFFCURVE",
"1553 1012.333 OFFCURVE",
"1553 1103 CURVE SMOOTH",
"1553 1177 OFFCURVE",
"1535.167 1243.167 OFFCURVE",
"1499.5 1301.5 CURVE SMOOTH",
"1463.833 1359.833 OFFCURVE",
"1410.5 1405.833 OFFCURVE",
"1339.5 1439.5 CURVE SMOOTH",
"1268.5 1473.167 OFFCURVE",
"1179.333 1490 OFFCURVE",
"1072 1490 CURVE SMOOTH",
"435 1490 LINE SMOOTH",
"305 1490 OFFCURVE",
"209 1462.667 OFFCURVE",
"147 1408 CURVE SMOOTH",
"85 1353.333 OFFCURVE",
"54 1269 OFFCURVE",
"54 1155 CURVE SMOOTH"
);
},
{
closed = 1;
nodes = (
"769 223 LINE",
"769 662 LINE",
"1070 662 LINE SMOOTH",
"1152.667 662 OFFCURVE",
"1218.333 639.333 OFFCURVE",
"1267 594 CURVE SMOOTH",
"1315.667 548.667 OFFCURVE",
"1340 492.667 OFFCURVE",
"1340 426 CURVE SMOOTH",
"1340 366.667 OFFCURVE",
"1318.167 318 OFFCURVE",
"1274.5 280 CURVE SMOOTH",
"1230.833 242 OFFCURVE",
"1159.667 223 OFFCURVE",
"1061 223 CURVE SMOOTH"
);
},
{
closed = 1;
nodes = (
"769 855 LINE",
"769 1268 LINE",
"1044 1268 LINE SMOOTH",
"1124 1268 OFFCURVE",
"1184.333 1249.333 OFFCURVE",
"1225 1212 CURVE SMOOTH",
"1265.667 1174.667 OFFCURVE",
"1286 1127 OFFCURVE",
"1286 1069 CURVE SMOOTH",
"1286 1003 OFFCURVE",
"1262.333 950.833 OFFCURVE",
"1215 912.5 CURVE SMOOTH",
"1167.667 874.167 OFFCURVE",
"1108.667 855 OFFCURVE",
"1038 855 CURVE SMOOTH"
);
}
);
userData = {
assembly = "PUSHB[ ]	/* 6 values pushed */\01212 1 5 6 1 76 \012MPPEM[ ]	/* MeasurePixelPerEm */\012PUSHB[ ]	/* 1 value pushed */\01213 \012LT[ ]	/* LessThan */\012IF[ ]	/* If */\012NPUSHB[ ]	/* 38 values pushed */\0128 1 3 2 6 2 3 114 0 6 0 5 4 6 5 103 7 1 2 2 0 95 0 0 0 103 77 0 4 4 1 95 0 1 1 104 1 78 \012ELSE[ ]	/* Else */\012NPUSHB[ ]	/* 39 values pushed */\0128 1 3 2 6 2 3 6 128 0 6 0 5 4 6 5 103 7 1 2 2 0 95 0 0 0 103 77 0 4 4 1 95 0 1 1 104 1 78 \012EIF[ ]	/* EndIf */\012NPUSHB[ ]	/* 20 values pushed */\0120 0 45 43 39 37 36 34 30 28 0 27 0 27 33 46 51 9 12 25 \012CALL[ ]	/* CallFunction */";
};
width = 1702;
}
);
leftKerningGroup = B;
note = uni0181;
rightKerningGroup = B;
unicode = 0181;
},
{
glyphname = Btopbar;
lastChange = "2024-07-06 19:32:59 +0000";
layers = (
{
layerId = "E952A9EA-CC11-40A5-A77C-9A3014CC01A0";
paths = (
{
closed = 1;
nodes = (
"150 146 LINE SMOOTH",
"150 51 OFFCURVE",
"202 0 OFFCURVE",
"296 0 CURVE SMOOTH",
"707 0 LINE SMOOTH",
"821 0 OFFCURVE",
"918.833 19.5 OFFCURVE",
"1000.5 58.5 CURVE SMOOTH",
"1082.167 97.5 OFFCURVE",
"1144.833 151.833 OFFCURVE",
"1188.5 221.5 CURVE SMOOTH",
"1232.167 291.167 OFFCURVE",
"1254 372 OFFCURVE",
"1254 464 CURVE SMOOTH",
"1254 600.667 OFFCURVE",
"1205.5 709.667 OFFCURVE",
"1108.5 791 CURVE SMOOTH",
"1011.5 872.333 OFFCURVE",
"877.667 913 OFFCURVE",
"707 913 CURVE SMOOTH",
"417 913 LINE",
"417 1266 LINE",
"962 1266 LINE SMOOTH",
"1057 1266 OFFCURVE",
"1108 1306 OFFCURVE",
"1108 1378 CURVE SMOOTH",
"1108 1450 OFFCURVE",
"1056 1490 OFFCURVE",
"962 1490 CURVE SMOOTH",
"296 1490 LINE SMOOTH",
"201 1490 OFFCURVE",
"150 1439 OFFCURVE",
"150 1344 CURVE SMOOTH"
);
},
{
closed = 1;
nodes = (
"417 220 LINE",
"417 695 LINE",
"707 695 LINE SMOOTH",
"797.667 695 OFFCURVE",
"867.333 672.667 OFFCURVE",
"916 628 CURVE SMOOTH",
"964.667 583.333 OFFCURVE",
"989 529.333 OFFCURVE",
"989 466 CURVE SMOOTH",
"989 400.667 OFFCURVE",
"964.667 343.333 OFFCURVE",
"916 294 CURVE SMOOTH",
"867.333 244.667 OFFCURVE",
"797.667 220 OFFCURVE",
"707 220 CURVE SMOOTH"
);
}
);
userData = {
assembly = "NPUSHB[ ]	/* 46 values pushed */\0120 2 0 5 4 2 5 103 0 1 1 0 95 0 0 0 103 77 0 4 4 3 95 6 1 3 3 104 3 78 0 0 22 20 16 14 0 13 0 12 33 17 17 7 12 25 \012CALL[ ]	/* CallFunction */";
};
width = 1343;
}
);
note = uni0182;
unicode = 0182;
},
{
glyphname = C;
lastChange = "2024-07-06 19:32:59 +0000";
layers = (
{
layerId = "E952A9EA-CC11-40A5-A77C-9A3014CC01A0";
paths = (
{
closed = 1;
nodes = (
"902.333 -20 OFFCURVE",
"1005.667 3.167 OFFCURVE",
"1095 49.5 CURVE SMOOTH",
"1184.333 95.833 OFFCURVE",
"1256.333 158 OFFCURVE",
"1311 236 CURVE SMOOTH",
"1338 275 OFFCURVE",
"1361 316 OFFCURVE",
"1378 360 CURVE SMOOTH",
"1410 442 OFFCURVE",
"1358 496 OFFCURVE",
"1268 496 CURVE SMOOTH",
"1184 496 OFFCURVE",
"1145 455 OFFCURVE",
"1101 380 CURVE SMOOTH",
"1080 345 OFFCURVE",
"1054 316 OFFCURVE",
"1020.5 291.5 CURVE SMOOTH",
"954.833 243.167 OFFCURVE",
"877.333 219 OFFCURVE",
"788 219 CURVE SMOOTH",
"667.333 219 OFFCURVE",
"567.667 263.667 OFFCURVE",
"489 353 CURVE SMOOTH",
"410.333 442.333 OFFCURVE",
"371 572.667 OFFCURVE",
"371 744 CURVE SMOOTH",
"371 913.333 OFFCURVE",
"410.167 1043.5 OFFCURVE",
"488.5 1134.5 CURVE SMOOTH",
"566.833 1225.5 OFFCURVE",
"667 1271 OFFCURVE",
"789 1271 CURVE SMOOTH",
"878.333 1271 OFFCURVE",
"955.667 1246.833 OFFCURVE",
"1021 1198.5 CURVE SMOOTH",
"1054 1174 OFFCURVE",
"1082 1144 OFFCURVE",
"1102 1109 CURVE SMOOTH",
"1145 1034 OFFCURVE",
"1184 994 OFFCURVE",
"1268 994 CURVE SMOOTH",
"1279 994 LINE SMOOTH",
"1362 994 OFFCURVE",
"1409 1059 OFFCURVE",
"1368 1157 CURVE SMOOTH",
"1351 1199 OFFCURVE",
"1328 1237 OFFCURVE",
"1302 1272.5 CURVE SMOOTH",
"1244 1349.5 OFFCURVE",
"1170.5 1408.333 OFFCURVE",
"1081.5 1449 CURVE SMOOTH",
"992.5 1489.667 OFFCURVE",
"893.667 1510 OFFCURVE",
"785 1510 CURVE SMOOTH",
"655 1510 OFFCURVE",
"538.667 1479.667 OFFCURVE",
"436 1419 CURVE SMOOTH",
"333.333 1358.333 OFFCURVE",
"252.167 1270.833 OFFCURVE",
"192.5 1156.5 CURVE SMOOTH",
"132.833 1042.167 OFFCURVE",
"103 904.667 OFFCURVE",
"103 744 CURVE SMOOTH",
"103 584 OFFCURVE",
"132.667 447 OFFCURVE",
"192 333 CURVE SMOOTH",
"251.333 219 OFFCURVE",
"332.333 131.667 OFFCURVE",
"435 71 CURVE SMOOTH",
"537.667 10.333 OFFCURVE",
"654.333 -20 OFFCURVE",
"785 -20 CURVE SMOOTH"
);
}
);
userData = {
assembly = "NPUSHB[ ]	/* 56 values pushed */\0120 2 3 5 3 2 5 128 0 5 4 3 5 4 126 0 3 3 1 97 0 1 1 109 77 0 4 4 0 97 6 1 0 0 110 0 78 1 0 26 25 23 21 17 15 13 12 9 7 0 29 1 29 7 12 22 \012CALL[ ]	/* CallFunction */";
};
width = 1509;
}
);
leftKerningGroup = C;
note = C;
rightKerningGroup = C;
unicode = 0043;
},
{
glyphname = Chook;
lastChange = "2024-07-06 19:32:59 +0000";
layers = (
{
layerId = "E952A9EA-CC11-40A5-A77C-9A3014CC01A0";
paths = (
{
closed = 1;
nodes = (
"902.333 -20 OFFCURVE",
"1005.667 3.167 OFFCURVE",
"1095 49.5 CURVE SMOOTH",
"1184.333 95.833 OFFCURVE",
"1256.333 158 OFFCURVE",
"1311 236 CURVE SMOOTH",
"1338 275 OFFCURVE",
"1361 316 OFFCURVE",
"1378 360 CURVE SMOOTH",
"1410 442 OFFCURVE",
"1358 496 OFFCURVE",
"1268 496 CURVE SMOOTH",
"1184 496 OFFCURVE",
"1145 455 OFFCURVE",
"1101 380 CURVE SMOOTH",
"1080 345 OFFCURVE",
"1054 316 OFFCURVE",
"1020.5 291.5 CURVE SMOOTH",
"954.833 243.167 OFFCURVE",
"877.333 219 OFFCURVE",
"788 219 CURVE SMOOTH",
"667.333 219 OFFCURVE",
"567.667 263.667 OFFCURVE",
"489 353 CURVE SMOOTH",
"410.333 442.333 OFFCURVE",
"371 572.667 OFFCURVE",
"371 744 CURVE SMOOTH",
"371 913.333 OFFCURVE",
"410.167 1043.5 OFFCURVE",
"488.5 1134.5 CURVE SMOOTH",
"566.833 1225.5 OFFCURVE",
"667 1271 OFFCURVE",
"789 1271 CURVE SMOOTH",
"878.333 1271 OFFCURVE",
"955.667 1246.833 OFFCURVE",
"1021 1198.5 CURVE SMOOTH",
"1054 1174 OFFCURVE",
"1082 1144 OFFCURVE",
"1102 1109 CURVE SMOOTH",
"1145 1034 OFFCURVE",
"1184 994 OFFCURVE",
"1268 994 CURVE SMOOTH",
"1279 994 LINE SMOOTH",
"1366 994 OFFCURVE",
"1413 1045 OFFCURVE",
"1413 1140 CURVE SMOOTH",
"1413 1395 LINE SMOOTH",
"1413 1427.667 OFFCURVE",
"1424.167 1451.333 OFFCURVE",
"1446.5 1466 CURVE SMOOTH",
"1468.833 1480.667 OFFCURVE",
"1505 1488 OFFCURVE",
"1555 1488 CURVE SMOOTH",
"1568 1488 OFFCURVE",
"1581 1487 OFFCURVE",
"1594 1486 CURVE SMOOTH",
"1620 1484 OFFCURVE",
"1634 1517 OFFCURVE",
"1634 1579 CURVE SMOOTH",
"1634 1643 OFFCURVE",
"1542 1690 OFFCURVE",
"1497 1690 CURVE SMOOTH",
"1497 1690 OFFCURVE",
"1496 1690 OFFCURVE",
"1496 1690 CURVE SMOOTH",
"1276 1690 OFFCURVE",
"1163.333 1595.667 OFFCURVE",
"1158 1407 CURVE",
"1052.667 1475.667 OFFCURVE",
"928.333 1510 OFFCURVE",
"785 1510 CURVE SMOOTH",
"655 1510 OFFCURVE",
"538.667 1479.667 OFFCURVE",
"436 1419 CURVE SMOOTH",
"333.333 1358.333 OFFCURVE",
"252.167 1270.833 OFFCURVE",
"192.5 1156.5 CURVE SMOOTH",
"132.833 1042.167 OFFCURVE",
"103 904.667 OFFCURVE",
"103 744 CURVE SMOOTH",
"103 584 OFFCURVE",
"132.667 447 OFFCURVE",
"192 333 CURVE SMOOTH",
"251.333 219 OFFCURVE",
"332.333 131.667 OFFCURVE",
"435 71 CURVE SMOOTH",
"537.667 10.333 OFFCURVE",
"654.333 -20 OFFCURVE",
"785 -20 CURVE SMOOTH"
);
}
);
userData = {
assembly = "NPUSHB[ ]	/* 79 values pushed */\01214 1 1 2 15 10 2 5 3 2 76 0 4 5 7 5 4 7 128 0 7 6 5 7 6 126 0 2 0 3 5 2 3 105 0 5 5 1 97 0 1 1 109 77 0 6 6 0 97 8 1 0 0 110 0 78 1 0 35 34 32 30 26 24 22 21 18 16 13 11 9 7 0 38 1 38 9 12 22 \012CALL[ ]	/* CallFunction */";
};
width = 1509;
}
);
leftKerningGroup = C;
note = uni0187;
rightKerningGroup = C;
unicode = 0187;
},
{
glyphname = Cstroke;
lastChange = "2024-07-06 19:32:59 +0000";
layers = (
{
layerId = "E952A9EA-CC11-40A5-A77C-9A3014CC01A0";
paths = (
{
closed = 1;
nodes = (
"513 -190 OFFCURVE",
"555 -152 OFFCURVE",
"582 -71 CURVE SMOOTH",
"606 1 LINE",
"663.333 -13 OFFCURVE",
"723 -20 OFFCURVE",
"785 -20 CURVE SMOOTH",
"902.333 -20 OFFCURVE",
"1005.667 3.167 OFFCURVE",
"1095 49.5 CURVE SMOOTH",
"1184.333 95.833 OFFCURVE",
"1256.333 158 OFFCURVE",
"1311 236 CURVE SMOOTH",
"1338 275 OFFCURVE",
"1361 316 OFFCURVE",
"1378 360 CURVE SMOOTH",
"1410 442 OFFCURVE",
"1358 496 OFFCURVE",
"1268 496 CURVE SMOOTH",
"1184 496 OFFCURVE",
"1145 455 OFFCURVE",
"1101 380 CURVE SMOOTH",
"1080 345 OFFCURVE",
"1054 316 OFFCURVE",
"1020.5 291.5 CURVE SMOOTH",
"954.833 243.167 OFFCURVE",
"877.333 219 OFFCURVE",
"788 219 CURVE SMOOTH",
"752 219 OFFCURVE",
"717.333 223.333 OFFCURVE",
"684 232 CURVE",
"1011 1206 LINE",
"1045 1182 OFFCURVE",
"1073.5 1152.333 OFFCURVE",
"1096.5 1117 CURVE SMOOTH",
"1108 1099 OFFCURVE",
"1118 1079 OFFCURVE",
"1126 1058 CURVE SMOOTH",
"1142 1015 OFFCURVE",
"1184 994 OFFCURVE",
"1268 994 CURVE SMOOTH",
"1279 994 LINE SMOOTH",
"1362 994 OFFCURVE",
"1410 1059 OFFCURVE",
"1368 1157 CURVE SMOOTH",
"1351 1197 OFFCURVE",
"1330 1234 OFFCURVE",
"1304.5 1268.5 CURVE SMOOTH",
"1247.5 1344.833 OFFCURVE",
"1176.333 1403.667 OFFCURVE",
"1091 1445 CURVE",
"1131 1562 LINE SMOOTH",
"1155 1633 OFFCURVE",
"1134 1678 OFFCURVE",
"1079 1678 CURVE SMOOTH",
"1018 1678 OFFCURVE",
"975 1641 OFFCURVE",
"948 1559 CURVE SMOOTH",
"928 1497 LINE",
"882 1505.667 OFFCURVE",
"834.333 1510 OFFCURVE",
"785 1510 CURVE SMOOTH",
"655 1510 OFFCURVE",
"538.667 1479.667 OFFCURVE",
"436 1419 CURVE SMOOTH",
"333.333 1358.333 OFFCURVE",
"252.167 1270.833 OFFCURVE",
"192.5 1156.5 CURVE SMOOTH",
"132.833 1042.167 OFFCURVE",
"103 904.667 OFFCURVE",
"103 744 CURVE SMOOTH",
"103 580.667 OFFCURVE",
"134.167 441.167 OFFCURVE",
"196.5 325.5 CURVE SMOOTH",
"258.833 209.833 OFFCURVE",
"342.333 122.667 OFFCURVE",
"447 64 CURVE",
"405 -63 LINE SMOOTH",
"379 -141 OFFCURVE",
"397 -190 OFFCURVE",
"452 -190 CURVE SMOOTH"
);
},
{
closed = 1;
nodes = (
"480.667 354.333 OFFCURVE",
"441.833 412.333 OFFCURVE",
"413.5 485 CURVE SMOOTH",
"385.167 557.667 OFFCURVE",
"371 644 OFFCURVE",
"371 744 CURVE SMOOTH",
"371 913.333 OFFCURVE",
"410.167 1043.5 OFFCURVE",
"488.5 1134.5 CURVE SMOOTH",
"566.833 1225.5 OFFCURVE",
"667 1271 OFFCURVE",
"789 1271 CURVE SMOOTH",
"809.667 1271 OFFCURVE",
"830 1269.667 OFFCURVE",
"850 1267 CURVE",
"530 311 LINE"
);
}
);
userData = {
assembly = "NPUSHB[ ]	/* 80 values pushed */\01213 10 2 7 0 20 1 2 7 21 1 3 4 33 1 2 5 3 4 76 0 4 2 3 2 4 3 128 8 1 6 5 6 134 0 1 0 2 4 1 2 103 0 7 7 0 97 0 0 0 109 77 0 3 3 5 97 0 5 5 110 5 78 0 0 39 37 0 34 0 34 35 18 37 20 18 39 9 12 28 \012CALL[ ]	/* CallFunction */";
};
width = 1509;
}
);
leftKerningGroup = C;
note = uni023B;
rightKerningGroup = C;
unicode = 023B;
},
{
glyphname = D;
lastChange = "2024-07-06 19:32:59 +0000";
layers = (
{
layerId = "E952A9EA-CC11-40A5-A77C-9A3014CC01A0";
paths = (
{
closed = 1;
nodes = (
"805.333 0 OFFCURVE",
"934.833 29.833 OFFCURVE",
"1042.5 89.5 CURVE SMOOTH",
"1150.167 149.167 OFFCURVE",
"1232.5 234.833 OFFCURVE",
"1289.5 346.5 CURVE SMOOTH",
"1346.5 458.167 OFFCURVE",
"1375 591.667 OFFCURVE",
"1375 747 CURVE SMOOTH",
"1375 901 OFFCURVE",
"1346.667 1033.5 OFFCURVE",
"1290 1144.5 CURVE SMOOTH",
"1233.333 1255.5 OFFCURVE",
"1151.833 1340.833 OFFCURVE",
"1045.5 1400.5 CURVE SMOOTH",
"939.167 1460.167 OFFCURVE",
"812 1490 OFFCURVE",
"664 1490 CURVE SMOOTH",
"296 1490 LINE SMOOTH",
"201 1490 OFFCURVE",
"150 1439 OFFCURVE",
"150 1344 CURVE SMOOTH",
"150 146 LINE SMOOTH",
"150 51 OFFCURVE",
"202 0 OFFCURVE",
"296 0 CURVE SMOOTH",
"654 0 LINE SMOOTH"
);
},
{
closed = 1;
nodes = (
"417 231 LINE",
"417 1259 LINE",
"648 1259 LINE SMOOTH",
"957.333 1259 OFFCURVE",
"1112 1088.333 OFFCURVE",
"1112 747 CURVE SMOOTH",
"1112 403 OFFCURVE",
"955 231 OFFCURVE",
"641 231 CURVE SMOOTH"
);
}
);
userData = {
assembly = "NPUSHB[ ]	/* 37 values pushed */\0120 3 3 1 95 0 1 1 103 77 0 2 2 0 95 4 1 0 0 104 0 78 1 0 17 15 13 11 4 2 0 10 1 10 5 12 22 \012CALL[ ]	/* CallFunction */";
};
width = 1479;
}
);
leftKerningGroup = B;
note = D;
rightKerningGroup = Oopen;
unicode = 0044;
},
{
glyphname = Dhook;
lastChange = "2024-07-06 19:32:59 +0000";
layers = (
{
layerId = "E952A9EA-CC11-40A5-A77C-9A3014CC01A0";
paths = (
{
closed = 1;
nodes = (
"54 1108 OFFCURVE",
"97 1082 OFFCURVE",
"175 1082 CURVE SMOOTH",
"253 1082 OFFCURVE",
"295 1102 OFFCURVE",
"295 1138 CURVE SMOOTH",
"295 1223.333 OFFCURVE",
"340 1266 OFFCURVE",
"430 1266 CURVE SMOOTH",
"502 1266 LINE",
"502 146 LINE SMOOTH",
"502 51 OFFCURVE",
"554 0 OFFCURVE",
"648 0 CURVE SMOOTH",
"1006 0 LINE SMOOTH",
"1157.333 0 OFFCURVE",
"1286.833 29.833 OFFCURVE",
"1394.5 89.5 CURVE SMOOTH",
"1502.167 149.167 OFFCURVE",
"1584.5 234.833 OFFCURVE",
"1641.5 346.5 CURVE SMOOTH",
"1698.5 458.167 OFFCURVE",
"1727 591.667 OFFCURVE",
"1727 747 CURVE SMOOTH",
"1727 901 OFFCURVE",
"1698.667 1033.5 OFFCURVE",
"1642 1144.5 CURVE SMOOTH",
"1585.333 1255.5 OFFCURVE",
"1503.833 1340.833 OFFCURVE",
"1397.5 1400.5 CURVE SMOOTH",
"1291.167 1460.167 OFFCURVE",
"1164 1490 OFFCURVE",
"1016 1490 CURVE SMOOTH",
"435 1490 LINE SMOOTH",
"305 1490 OFFCURVE",
"209 1462.667 OFFCURVE",
"147 1408 CURVE SMOOTH",
"85 1353.333 OFFCURVE",
"54 1269 OFFCURVE",
"54 1155 CURVE SMOOTH"
);
},
{
closed = 1;
nodes = (
"769 231 LINE",
"769 1259 LINE",
"1000 1259 LINE SMOOTH",
"1309.333 1259 OFFCURVE",
"1464 1088.333 OFFCURVE",
"1464 747 CURVE SMOOTH",
"1464 403 OFFCURVE",
"1307 231 OFFCURVE",
"993 231 CURVE SMOOTH"
);
}
);
userData = {
assembly = "MPPEM[ ]	/* MeasurePixelPerEm */\012PUSHB[ ]	/* 1 value pushed */\01213 \012LT[ ]	/* LessThan */\012IF[ ]	/* If */\012NPUSHB[ ]	/* 30 values pushed */\0126 1 3 2 4 2 3 114 5 1 2 2 0 95 0 0 0 103 77 0 4 4 1 95 0 1 1 104 1 78 \012ELSE[ ]	/* Else */\012NPUSHB[ ]	/* 31 values pushed */\0126 1 3 2 4 2 3 4 128 5 1 2 2 0 95 0 0 0 103 77 0 4 4 1 95 0 1 1 104 1 78 \012EIF[ ]	/* EndIf */\012NPUSHB[ ]	/* 16 values pushed */\0120 0 26 24 22 20 0 19 0 19 33 38 51 7 12 25 \012CALL[ ]	/* CallFunction */";
};
width = 1831;
}
);
leftKerningGroup = B;
note = uni018A;
rightKerningGroup = Oopen;
unicode = 018A;
},
{
glyphname = Dtopbar;
lastChange = "2024-07-06 19:32:59 +0000";
layers = (
{
layerId = "E952A9EA-CC11-40A5-A77C-9A3014CC01A0";
paths = (
{
closed = 1;
nodes = (
"1078 0 LINE SMOOTH",
"1173 0 OFFCURVE",
"1224 51 OFFCURVE",
"1224 146 CURVE SMOOTH",
"1224 1329 LINE SMOOTH",
"1224 1424 OFFCURVE",
"1173 1475 OFFCURVE",
"1078 1475 CURVE SMOOTH",
"415 1475 LINE SMOOTH",
"320 1475 OFFCURVE",
"269 1435 OFFCURVE",
"269 1361 CURVE SMOOTH",
"269 1287 OFFCURVE",
"321 1247 OFFCURVE",
"415 1247 CURVE SMOOTH",
"947 1247 LINE",
"947 916 LINE",
"668 916 LINE SMOOTH",
"554.667 916 OFFCURVE",
"457.167 897.167 OFFCURVE",
"375.5 859.5 CURVE SMOOTH",
"293.833 821.833 OFFCURVE",
"231.167 769 OFFCURVE",
"187.5 701 CURVE SMOOTH",
"143.833 633 OFFCURVE",
"122 554 OFFCURVE",
"122 464 CURVE SMOOTH",
"122 372.667 OFFCURVE",
"143.833 292.167 OFFCURVE",
"187.5 222.5 CURVE SMOOTH",
"231.167 152.833 OFFCURVE",
"293.833 98.333 OFFCURVE",
"375.5 59 CURVE SMOOTH",
"457.167 19.667 OFFCURVE",
"554.667 0 OFFCURVE",
"668 0 CURVE SMOOTH"
);
},
{
closed = 1;
nodes = (
"947 223 LINE",
"668 223 LINE SMOOTH",
"576 223 OFFCURVE",
"508.333 247.167 OFFCURVE",
"465 295.5 CURVE SMOOTH",
"421.667 343.833 OFFCURVE",
"400 400.667 OFFCURVE",
"400 466 CURVE SMOOTH",
"400 529.333 OFFCURVE",
"421.667 583.167 OFFCURVE",
"465 627.5 CURVE SMOOTH",
"508.333 671.833 OFFCURVE",
"576 693.667 OFFCURVE",
"668 693 CURVE SMOOTH",
"947 693 LINE"
);
}
);
userData = {
assembly = "NPUSHB[ ]	/* 44 values pushed */\0120 1 0 4 5 1 4 103 0 2 2 3 95 0 3 3 103 77 6 1 5 5 0 95 0 0 0 104 0 78 15 15 15 23 15 22 34 17 17 38 32 7 12 27 \012CALL[ ]	/* CallFunction */";
};
width = 1345;
}
);
note = uni018B;
unicode = 018B;
},
{
glyphname = E;
lastChange = "2024-07-06 19:32:59 +0000";
layers = (
{
layerId = "E952A9EA-CC11-40A5-A77C-9A3014CC01A0";
paths = (
{
closed = 1;
nodes = (
"150 146 LINE SMOOTH",
"150 51 OFFCURVE",
"202 0 OFFCURVE",
"296 0 CURVE SMOOTH",
"976 0 LINE SMOOTH",
"1071 0 OFFCURVE",
"1122 40 OFFCURVE",
"1122 113 CURVE SMOOTH",
"1122 186 OFFCURVE",
"1070 225 OFFCURVE",
"976 225 CURVE SMOOTH",
"417 225 LINE",
"417 641 LINE",
"920 641 LINE SMOOTH",
"1015 641 OFFCURVE",
"1066 680 OFFCURVE",
"1066 752 CURVE SMOOTH",
"1066 824 OFFCURVE",
"1014 863 OFFCURVE",
"920 863 CURVE SMOOTH",
"417 863 LINE",
"417 1265 LINE",
"972 1265 LINE SMOOTH",
"1067 1265 OFFCURVE",
"1118 1305 OFFCURVE",
"1118 1378 CURVE SMOOTH",
"1118 1451 OFFCURVE",
"1066 1490 OFFCURVE",
"972 1490 CURVE SMOOTH",
"296 1490 LINE SMOOTH",
"201 1490 OFFCURVE",
"150 1439 OFFCURVE",
"150 1344 CURVE SMOOTH"
);
}
);
userData = {
assembly = "NPUSHB[ ]	/* 44 values pushed */\0120 2 0 3 4 2 3 103 0 1 1 0 95 0 0 0 103 77 0 4 4 5 95 6 1 5 5 104 5 78 0 0 0 11 0 11 17 17 17 17 17 7 12 27 \012CALL[ ]	/* CallFunction */";
};
width = 1240;
}
);
leftKerningGroup = B;
note = E;
rightKerningGroup = AE;
unicode = 0045;
},
{
glyphname = Eopen;
lastChange = "2024-07-06 19:32:59 +0000";
layers = (
{
layerId = "E952A9EA-CC11-40A5-A77C-9A3014CC01A0";
paths = (
{
closed = 1;
nodes = (
"756 -20 OFFCURVE",
"848.667 -2.167 OFFCURVE",
"930 33.5 CURVE SMOOTH",
"1011.333 69.167 OFFCURVE",
"1075.333 119 OFFCURVE",
"1122 183 CURVE SMOOTH",
"1146 215 OFFCURVE",
"1164 250 OFFCURVE",
"1176 288 CURVE SMOOTH",
"1199 359 OFFCURVE",
"1139 404 OFFCURVE",
"1047 404 CURVE SMOOTH",
"964 404 OFFCURVE",
"937 360 OFFCURVE",
"883 294 CURVE SMOOTH",
"872 281 OFFCURVE",
"859 269 OFFCURVE",
"843 258 CURVE SMOOTH",
"791 222 OFFCURVE",
"727.333 204 OFFCURVE",
"652 204 CURVE SMOOTH",
"572 204 OFFCURVE",
"506.333 224.667 OFFCURVE",
"455 266 CURVE SMOOTH",
"403.667 307.333 OFFCURVE",
"378 361 OFFCURVE",
"378 427 CURVE SMOOTH",
"378 495 OFFCURVE",
"404.5 550.5 OFFCURVE",
"457.5 593.5 CURVE SMOOTH",
"510.5 636.5 OFFCURVE",
"584 658 OFFCURVE",
"678 658 CURVE SMOOTH",
"764 658 OFFCURVE",
"810 694 OFFCURVE",
"810 761 CURVE SMOOTH",
"810 828 OFFCURVE",
"763 864 OFFCURVE",
"678 864 CURVE SMOOTH",
"600.667 864 OFFCURVE",
"537.833 884 OFFCURVE",
"489.5 924 CURVE SMOOTH",
"441.167 964 OFFCURVE",
"417 1016.667 OFFCURVE",
"417 1082 CURVE SMOOTH",
"417 1145.333 OFFCURVE",
"438.167 1196.167 OFFCURVE",
"480.5 1234.5 CURVE SMOOTH",
"522.833 1272.833 OFFCURVE",
"579 1292 OFFCURVE",
"649 1292 CURVE SMOOTH",
"717.667 1292 OFFCURVE",
"777.5 1274 OFFCURVE",
"828.5 1238 CURVE SMOOTH",
"854 1220 OFFCURVE",
"874 1198 OFFCURVE",
"887 1173 CURVE SMOOTH",
"915 1119 OFFCURVE",
"947 1089 OFFCURVE",
"1030 1089 CURVE SMOOTH",
"1037 1089 LINE SMOOTH",
"1117 1089 OFFCURVE",
"1173 1153 OFFCURVE",
"1129 1247 CURVE SMOOTH",
"1119 1268 OFFCURVE",
"1107 1289 OFFCURVE",
"1093 1308 CURVE SMOOTH",
"1047 1371.333 OFFCURVE",
"985.167 1420.833 OFFCURVE",
"907.5 1456.5 CURVE SMOOTH",
"829.833 1492.167 OFFCURVE",
"742.667 1510 OFFCURVE",
"646 1510 CURVE SMOOTH",
"547.333 1510 OFFCURVE",
"461.333 1491.333 OFFCURVE",
"388 1454 CURVE SMOOTH",
"314.667 1416.667 OFFCURVE",
"257.833 1366.833 OFFCURVE",
"217.5 1304.5 CURVE SMOOTH",
"177.167 1242.167 OFFCURVE",
"157 1173.333 OFFCURVE",
"157 1098 CURVE SMOOTH",
"157 1014 OFFCURVE",
"181.667 943.667 OFFCURVE",
"231 887 CURVE SMOOTH",
"280.333 830.333 OFFCURVE",
"345.333 793 OFFCURVE",
"426 775 CURVE",
"426 763 LINE",
"322 748.333 OFFCURVE",
"242.167 709.667 OFFCURVE",
"186.5 647 CURVE SMOOTH",
"130.833 584.333 OFFCURVE",
"103 506.333 OFFCURVE",
"103 413 CURVE SMOOTH",
"103 329.667 OFFCURVE",
"126.667 255.333 OFFCURVE",
"174 190 CURVE SMOOTH",
"221.333 124.667 OFFCURVE",
"286.167 73.333 OFFCURVE",
"368.5 36 CURVE SMOOTH",
"450.833 -1.333 OFFCURVE",
"545.333 -20 OFFCURVE",
"652 -20 CURVE SMOOTH"
);
}
);
userData = {
assembly = "NPUSHB[ ]	/* 75 values pushed */\0127 1 5 4 1 76 0 2 3 4 3 2 4 128 0 7 5 6 5 7 6 128 0 4 0 5 7 4 5 105 0 3 3 1 97 0 1 1 109 77 0 6 6 0 97 8 1 0 0 110 0 78 1 0 42 41 39 37 33 31 30 28 24 22 20 19 16 14 0 45 1 45 9 12 22 \012CALL[ ]	/* CallFunction */";
};
width = 1303;
}
);
note = Epsilon1;
unicode = 0190;
},
{
glyphname = Ereversed;
lastChange = "2024-07-06 19:32:59 +0000";
layers = (
{
layerId = "E952A9EA-CC11-40A5-A77C-9A3014CC01A0";
paths = (
{
closed = 1;
nodes = (
"1090 1344 LINE SMOOTH",
"1090 1439 OFFCURVE",
"1038 1490 OFFCURVE",
"944 1490 CURVE SMOOTH",
"264 1490 LINE SMOOTH",
"169 1490 OFFCURVE",
"118 1450 OFFCURVE",
"118 1378 CURVE SMOOTH",
"118 1305 OFFCURVE",
"170 1265 OFFCURVE",
"264 1265 CURVE SMOOTH",
"823 1265 LINE",
"823 849 LINE",
"320 849 LINE SMOOTH",
"225 849 OFFCURVE",
"174 810 OFFCURVE",
"174 738 CURVE SMOOTH",
"174 666 OFFCURVE",
"226 627 OFFCURVE",
"320 627 CURVE SMOOTH",
"823 627 LINE",
"823 225 LINE",
"268 225 LINE SMOOTH",
"173 225 OFFCURVE",
"122 185 OFFCURVE",
"122 113 CURVE SMOOTH",
"122 40 OFFCURVE",
"174 0 OFFCURVE",
"268 0 CURVE SMOOTH",
"944 0 LINE SMOOTH",
"1039 0 OFFCURVE",
"1090 51 OFFCURVE",
"1090 146 CURVE SMOOTH"
);
}
);
userData = {
assembly = "NPUSHB[ ]	/* 44 values pushed */\0120 3 0 2 1 3 2 103 0 4 4 5 95 6 1 5 5 103 77 0 1 1 0 95 0 0 0 104 0 78 0 0 0 11 0 11 17 17 17 17 17 7 12 27 \012CALL[ ]	/* CallFunction */";
};
width = 1240;
}
);
note = Eturn;
rightKerningGroup = Ereversed;
unicode = 018E;
},
{
glyphname = Estroke;
lastChange = "2024-07-06 19:32:59 +0000";
layers = (
{
layerId = "E952A9EA-CC11-40A5-A77C-9A3014CC01A0";
paths = (
{
closed = 1;
nodes = (
"461 -190 OFFCURVE",
"500 -150 OFFCURVE",
"524 -67 CURVE SMOOTH",
"543 0 LINE",
"976 0 LINE SMOOTH",
"1071 0 OFFCURVE",
"1122 40 OFFCURVE",
"1122 113 CURVE SMOOTH",
"1122 186 OFFCURVE",
"1071 225 OFFCURVE",
"976 225 CURVE SMOOTH",
"607 225 LINE",
"727 641 LINE",
"920 641 LINE SMOOTH",
"1015 641 OFFCURVE",
"1066 680 OFFCURVE",
"1066 752 CURVE SMOOTH",
"1066 824 OFFCURVE",
"1014 863 OFFCURVE",
"920 863 CURVE SMOOTH",
"791 863 LINE",
"907 1265 LINE",
"1013 1265 LINE SMOOTH",
"1081 1265 OFFCURVE",
"1118 1305 OFFCURVE",
"1118 1378 CURVE SMOOTH",
"1118 1451 OFFCURVE",
"1067 1490 OFFCURVE",
"972 1490 CURVE SMOOTH",
"972 1490 LINE",
"999 1584 LINE SMOOTH",
"1016 1642 OFFCURVE",
"994 1678 OFFCURVE",
"944 1678 CURVE SMOOTH",
"889 1678 OFFCURVE",
"851 1639 OFFCURVE",
"827 1555 CURVE SMOOTH",
"808 1490 LINE",
"296 1490 LINE SMOOTH",
"201 1490 OFFCURVE",
"150 1439 OFFCURVE",
"150 1344 CURVE SMOOTH",
"150 146 LINE SMOOTH",
"150 51 OFFCURVE",
"202 0 OFFCURVE",
"296 0 CURVE SMOOTH",
"377 0 LINE",
"350 -95 LINE SMOOTH",
"333 -153 OFFCURVE",
"354 -190 OFFCURVE",
"405 -190 CURVE SMOOTH"
);
},
{
closed = 1;
nodes = (
"417 863 LINE",
"417 1265 LINE",
"743 1265 LINE",
"627 863 LINE"
);
},
{
closed = 1;
nodes = (
"417 225 LINE",
"417 641 LINE",
"562 641 LINE",
"442 225 LINE"
);
}
);
userData = {
assembly = "MPPEM[ ]	/* MeasurePixelPerEm */\012PUSHB[ ]	/* 1 value pushed */\01213 \012LT[ ]	/* LessThan */\012IF[ ]	/* If */\012NPUSHB[ ]	/* 49 values pushed */\0120 2 1 1 2 112 15 11 2 5 12 1 6 7 5 6 103 14 1 9 7 9 83 10 1 4 4 1 95 3 1 1 1 103 77 16 13 2 7 7 0 95 8 1 0 0 104 0 78 \012ELSE[ ]	/* Else */\012NPUSHB[ ]	/* 48 values pushed */\0120 2 1 2 133 15 11 2 5 12 1 6 7 5 6 103 14 1 9 7 9 83 10 1 4 4 1 95 3 1 1 1 103 77 16 13 2 7 7 0 95 8 1 0 0 104 0 78 \012EIF[ ]	/* EndIf */\012NPUSHB[ ]	/* 34 values pushed */\01224 24 20 20 0 0 24 27 24 27 26 25 20 23 20 23 22 21 0 19 0 19 17 17 17 17 17 17 17 17 17 17 12 31 \012CALL[ ]	/* CallFunction */";
};
width = 1240;
}
);
leftKerningGroup = B;
note = uni0246;
rightKerningGroup = AE;
unicode = 0246;
},
{
glyphname = Ezh;
lastChange = "2024-07-06 19:32:59 +0000";
layers = (
{
layerId = "E952A9EA-CC11-40A5-A77C-9A3014CC01A0";
paths = (
{
closed = 1;
nodes = (
"122 -100 OFFCURVE",
"143 -144 OFFCURVE",
"170.5 -184.5 CURVE SMOOTH",
"224.833 -264.833 OFFCURVE",
"297.5 -327.667 OFFCURVE",
"388.5 -373 CURVE SMOOTH",
"479.5 -418.333 OFFCURVE",
"581.333 -441 OFFCURVE",
"694 -441 CURVE SMOOTH",
"816.667 -441 OFFCURVE",
"924.5 -413.5 OFFCURVE",
"1017.5 -358.5 CURVE SMOOTH",
"1110.5 -303.5 OFFCURVE",
"1183.167 -228.167 OFFCURVE",
"1235.5 -132.5 CURVE SMOOTH",
"1287.833 -36.833 OFFCURVE",
"1314 72.667 OFFCURVE",
"1314 196 CURVE SMOOTH",
"1314 308 OFFCURVE",
"1291.5 407.667 OFFCURVE",
"1246.5 495 CURVE SMOOTH",
"1201.5 582.333 OFFCURVE",
"1138.667 652.167 OFFCURVE",
"1058 704.5 CURVE SMOOTH",
"977.333 756.833 OFFCURVE",
"883.667 786.333 OFFCURVE",
"777 793 CURVE",
"777 807 LINE",
"1200 1222 LINE SMOOTH",
"1253 1274 OFFCURVE",
"1276 1325 OFFCURVE",
"1276 1393 CURVE SMOOTH",
"1276 1456 OFFCURVE",
"1225 1490 OFFCURVE",
"1130 1490 CURVE SMOOTH",
"313 1490 LINE SMOOTH",
"218 1490 OFFCURVE",
"167 1450 OFFCURVE",
"167 1376 CURVE SMOOTH",
"167 1302 OFFCURVE",
"218 1261 OFFCURVE",
"313 1261 CURVE SMOOTH",
"934 1261 LINE",
"934 1249 LINE",
"566 887 LINE SMOOTH",
"513 835 OFFCURVE",
"490 784 OFFCURVE",
"490 713 CURVE SMOOTH",
"490 648 OFFCURVE",
"541 613 OFFCURVE",
"634 613 CURVE SMOOTH",
"713.333 613 OFFCURVE",
"783.5 596 OFFCURVE",
"844.5 562 CURVE SMOOTH",
"905.5 528 OFFCURVE",
"953.333 479.5 OFFCURVE",
"988 416.5 CURVE SMOOTH",
"1022.667 353.5 OFFCURVE",
"1040 278.667 OFFCURVE",
"1040 192 CURVE SMOOTH",
"1040 115.333 OFFCURVE",
"1026.167 46.5 OFFCURVE",
"998.5 -14.5 CURVE SMOOTH",
"970.833 -75.5 OFFCURVE",
"931.167 -123.667 OFFCURVE",
"879.5 -159 CURVE SMOOTH",
"827.833 -194.333 OFFCURVE",
"766 -212 OFFCURVE",
"694 -212 CURVE SMOOTH",
"634 -212 OFFCURVE",
"578.833 -199.167 OFFCURVE",
"528.5 -173.5 CURVE SMOOTH",
"478.167 -147.833 OFFCURVE",
"437.333 -112.333 OFFCURVE",
"406 -67 CURVE SMOOTH",
"390 -44 OFFCURVE",
"377 -19 OFFCURVE",
"369 9 CURVE SMOOTH",
"351 64 OFFCURVE",
"310 92 OFFCURVE",
"224 92 CURVE SMOOTH",
"218 92 LINE SMOOTH",
"133 92 OFFCURVE",
"80 37 OFFCURVE",
"107 -53 CURVE SMOOTH"
);
}
);
userData = {
assembly = "NPUSHB[ ]	/* 56 values pushed */\01221 1 3 4 22 15 2 2 3 2 76 0 2 3 0 3 2 0 128 0 0 1 3 0 1 126 0 3 3 4 95 0 4 4 103 77 0 1 1 5 97 0 5 5 114 5 78 42 17 34 38 35 16 6 12 28 \012CALL[ ]	/* CallFunction */";
};
width = 1406;
}
);
note = uni01B7;
rightKerningGroup = B;
unicode = 01B7;
},
{
glyphname = Ezhreversed;
lastChange = "2024-07-06 19:32:59 +0000";
layers = (
{
layerId = "E952A9EA-CC11-40A5-A77C-9A3014CC01A0";
paths = (
{
closed = 1;
nodes = (
"1181 92 LINE SMOOTH",
"1094 92 OFFCURVE",
"1059 48 OFFCURVE",
"1021 -32 CURVE SMOOTH",
"1015 -44 OFFCURVE",
"1008 -55 OFFCURVE",
"1000.5 -66.5 CURVE SMOOTH",
"969.5 -112.167 OFFCURVE",
"928.833 -147.833 OFFCURVE",
"878.5 -173.5 CURVE SMOOTH",
"828.167 -199.167 OFFCURVE",
"772.333 -212 OFFCURVE",
"711 -212 CURVE SMOOTH",
"639.667 -212 OFFCURVE",
"578.167 -194.333 OFFCURVE",
"526.5 -159 CURVE SMOOTH",
"474.833 -123.667 OFFCURVE",
"435.167 -75.5 OFFCURVE",
"407.5 -14.5 CURVE SMOOTH",
"379.833 46.5 OFFCURVE",
"366 115.333 OFFCURVE",
"366 192 CURVE SMOOTH",
"366 278.667 OFFCURVE",
"383.333 353.5 OFFCURVE",
"418 416.5 CURVE SMOOTH",
"452.667 479.5 OFFCURVE",
"500.667 528.167 OFFCURVE",
"562 562.5 CURVE SMOOTH",
"623.333 596.833 OFFCURVE",
"693.667 613.667 OFFCURVE",
"773 613 CURVE SMOOTH",
"865 613 OFFCURVE",
"915 648 OFFCURVE",
"915 713 CURVE SMOOTH",
"915 784 OFFCURVE",
"893 835 OFFCURVE",
"840 887 CURVE SMOOTH",
"472 1249 LINE",
"472 1261 LINE",
"1094 1261 LINE SMOOTH",
"1189 1261 OFFCURVE",
"1240 1302 OFFCURVE",
"1240 1376 CURVE SMOOTH",
"1240 1450 OFFCURVE",
"1189 1490 OFFCURVE",
"1094 1490 CURVE SMOOTH",
"276 1490 LINE SMOOTH",
"181 1490 OFFCURVE",
"130 1456 OFFCURVE",
"130 1393 CURVE SMOOTH",
"130 1325 OFFCURVE",
"153 1274 OFFCURVE",
"206 1222 CURVE SMOOTH",
"629 807 LINE",
"629 793 LINE",
"523 786.333 OFFCURVE",
"429.667 756.833 OFFCURVE",
"349 704.5 CURVE SMOOTH",
"268.333 652.167 OFFCURVE",
"205.333 582.5 OFFCURVE",
"160 495.5 CURVE SMOOTH",
"114.667 408.5 OFFCURVE",
"92 308.667 OFFCURVE",
"92 196 CURVE SMOOTH",
"92 72.667 OFFCURVE",
"118.167 -36.833 OFFCURVE",
"170.5 -132.5 CURVE SMOOTH",
"222.833 -228.167 OFFCURVE",
"295.5 -303.5 OFFCURVE",
"388.5 -358.5 CURVE SMOOTH",
"481.5 -413.5 OFFCURVE",
"589 -441 OFFCURVE",
"711 -441 CURVE SMOOTH",
"824.333 -441 OFFCURVE",
"926.333 -418.333 OFFCURVE",
"1017 -373 CURVE SMOOTH",
"1107.667 -327.667 OFFCURVE",
"1180.333 -265 OFFCURVE",
"1235 -185 CURVE SMOOTH",
"1263 -144 OFFCURVE",
"1284 -100 OFFCURVE",
"1299 -53 CURVE SMOOTH",
"1327 37 OFFCURVE",
"1273 92 OFFCURVE",
"1188 92 CURVE SMOOTH"
);
}
);
userData = {
assembly = "NPUSHB[ ]	/* 69 values pushed */\01214 1 3 2 20 1 1 3 2 76 0 1 3 4 3 1 4 128 0 4 6 3 4 6 126 7 1 6 5 3 6 5 126 0 3 3 2 95 0 2 2 103 77 0 5 5 0 98 0 0 0 114 0 78 0 0 0 34 0 34 38 35 17 19 22 35 8 12 28 \012CALL[ ]	/* CallFunction */";
};
width = 1406;
}
);
note = uni01B8;
unicode = 01B8;
},
{
glyphname = F;
lastChange = "2024-07-06 19:32:59 +0000";
layers = (
{
layerId = "E952A9EA-CC11-40A5-A77C-9A3014CC01A0";
paths = (
{
closed = 1;
nodes = (
"150 146 LINE SMOOTH",
"150 51 OFFCURVE",
"197 0 OFFCURVE",
"284 0 CURVE SMOOTH",
"370 0 OFFCURVE",
"417 51 OFFCURVE",
"417 146 CURVE SMOOTH",
"417 596 LINE",
"891 596 LINE SMOOTH",
"986 596 OFFCURVE",
"1037 635 OFFCURVE",
"1037 707 CURVE SMOOTH",
"1037 779 OFFCURVE",
"985 818 OFFCURVE",
"891 818 CURVE SMOOTH",
"417 818 LINE",
"417 1265 LINE",
"958 1265 LINE SMOOTH",
"1053 1265 OFFCURVE",
"1104 1305 OFFCURVE",
"1104 1378 CURVE SMOOTH",
"1104 1451 OFFCURVE",
"1053 1490 OFFCURVE",
"958 1490 CURVE SMOOTH",
"296 1490 LINE SMOOTH",
"201 1490 OFFCURVE",
"150 1439 OFFCURVE",
"150 1344 CURVE SMOOTH"
);
}
);
userData = {
assembly = "NPUSHB[ ]	/* 38 values pushed */\0120 2 0 3 4 2 3 103 0 1 1 0 95 0 0 0 103 77 5 1 4 4 104 4 78 0 0 0 9 0 9 17 17 17 17 6 12 26 \012CALL[ ]	/* CallFunction */";
};
width = 1204;
}
);
leftKerningGroup = B;
note = F;
rightKerningGroup = F;
unicode = 0046;
},
{
glyphname = Fhook;
lastChange = "2024-07-06 19:32:59 +0000";
layers = (
{
layerId = "E952A9EA-CC11-40A5-A77C-9A3014CC01A0";
paths = (
{
closed = 1;
nodes = (
"30 -431 OFFCURVE",
"53 -432 OFFCURVE",
"78 -432 CURVE SMOOTH",
"304 -432 OFFCURVE",
"417 -333.333 OFFCURVE",
"417 -136 CURVE SMOOTH",
"417 596 LINE",
"891 596 LINE SMOOTH",
"986 596 OFFCURVE",
"1037 635 OFFCURVE",
"1037 707 CURVE SMOOTH",
"1037 779 OFFCURVE",
"985 818 OFFCURVE",
"891 818 CURVE SMOOTH",
"417 818 LINE",
"417 1265 LINE",
"958 1265 LINE SMOOTH",
"1053 1265 OFFCURVE",
"1104 1305 OFFCURVE",
"1104 1378 CURVE SMOOTH",
"1104 1451 OFFCURVE",
"1053 1490 OFFCURVE",
"958 1490 CURVE SMOOTH",
"296 1490 LINE SMOOTH",
"201 1490 OFFCURVE",
"150 1438 OFFCURVE",
"150 1344 CURVE SMOOTH",
"150 -122 LINE SMOOTH",
"150 -154.667 OFFCURVE",
"140.667 -178.333 OFFCURVE",
"122 -193 CURVE SMOOTH",
"103.333 -207.667 OFFCURVE",
"69 -215 OFFCURVE",
"19 -215 CURVE SMOOTH",
"6 -215 OFFCURVE",
"-7 -214 OFFCURVE",
"-21 -213 CURVE SMOOTH",
"-46 -211 OFFCURVE",
"-60 -247 OFFCURVE",
"-60 -314 CURVE SMOOTH",
"-60 -383 OFFCURVE",
"-37 -425 OFFCURVE",
"8 -429 CURVE SMOOTH"
);
}
);
userData = {
assembly = "NPUSHB[ ]	/* 48 values pushed */\0121 1 0 4 0 1 5 0 2 76 0 3 0 4 0 3 4 103 0 2 2 1 95 0 1 1 103 77 0 0 0 5 97 0 5 5 114 5 78 34 17 17 17 19 34 6 12 28 \012CALL[ ]	/* CallFunction */";
};
width = 1204;
}
);
leftKerningGroup = Fhook;
note = uni0191;
rightKerningGroup = F;
unicode = 0191;
},
{
glyphname = G;
lastChange = "2024-07-06 19:32:59 +0000";
layers = (
{
layerId = "E952A9EA-CC11-40A5-A77C-9A3014CC01A0";
paths = (
{
closed = 1;
nodes = (
"915.667 -20 OFFCURVE",
"1024.5 5 OFFCURVE",
"1119.5 55 CURVE SMOOTH",
"1214.5 105 OFFCURVE",
"1289.167 176.5 OFFCURVE",
"1343.5 269.5 CURVE SMOOTH",
"1397.833 362.5 OFFCURVE",
"1425 472.667 OFFCURVE",
"1425 600 CURVE SMOOTH",
"1425 633 LINE SMOOTH",
"1425 728 OFFCURVE",
"1374 779 OFFCURVE",
"1279 779 CURVE SMOOTH",
"968 779 LINE SMOOTH",
"873 779 OFFCURVE",
"822 742 OFFCURVE",
"822 674 CURVE SMOOTH",
"822 606 OFFCURVE",
"874 569 OFFCURVE",
"968 569 CURVE SMOOTH",
"1166 569 LINE",
"1163.333 461.667 OFFCURVE",
"1128.667 376.5 OFFCURVE",
"1062 313.5 CURVE SMOOTH",
"995.333 250.5 OFFCURVE",
"906 219 OFFCURVE",
"794 219 CURVE SMOOTH",
"668.667 219 OFFCURVE",
"566.833 264.5 OFFCURVE",
"488.5 355.5 CURVE SMOOTH",
"410.167 446.5 OFFCURVE",
"371 576.333 OFFCURVE",
"371 745 CURVE SMOOTH",
"371 857.667 OFFCURVE",
"389 953.167 OFFCURVE",
"425 1031.5 CURVE SMOOTH",
"461 1109.833 OFFCURVE",
"510.5 1169.333 OFFCURVE",
"573.5 1210 CURVE SMOOTH",
"636.5 1250.667 OFFCURVE",
"708 1271 OFFCURVE",
"788 1271 CURVE SMOOTH",
"878.667 1271 OFFCURVE",
"953.833 1248 OFFCURVE",
"1013.5 1202 CURVE SMOOTH",
"1044 1178 OFFCURVE",
"1070 1151 OFFCURVE",
"1091 1118 CURVE SMOOTH",
"1135 1050 OFFCURVE",
"1177 1014 OFFCURVE",
"1260 1014 CURVE SMOOTH",
"1276 1014 LINE SMOOTH",
"1359 1014 OFFCURVE",
"1407 1082 OFFCURVE",
"1361 1179 CURVE SMOOTH",
"1345 1211 OFFCURVE",
"1325 1243 OFFCURVE",
"1302.5 1272 CURVE SMOOTH",
"1244.833 1346.667 OFFCURVE",
"1171.5 1405 OFFCURVE",
"1082.5 1447 CURVE SMOOTH",
"993.5 1489 OFFCURVE",
"894.333 1510 OFFCURVE",
"785 1510 CURVE SMOOTH",
"655 1510 OFFCURVE",
"538.667 1479.333 OFFCURVE",
"436 1418 CURVE SMOOTH",
"333.333 1356.667 OFFCURVE",
"252.167 1268.833 OFFCURVE",
"192.5 1154.5 CURVE SMOOTH",
"132.833 1040.167 OFFCURVE",
"103 903 OFFCURVE",
"103 743 CURVE SMOOTH",
"103 586.333 OFFCURVE",
"132 450.833 OFFCURVE",
"190 336.5 CURVE SMOOTH",
"248 222.167 OFFCURVE",
"328.667 134.167 OFFCURVE",
"432 72.5 CURVE SMOOTH",
"535.333 10.833 OFFCURVE",
"655.667 -20 OFFCURVE",
"793 -20 CURVE SMOOTH"
);
}
);
userData = {
assembly = "NPUSHB[ ]	/* 59 values pushed */\0120 2 3 6 3 2 6 128 0 6 0 5 4 6 5 103 0 3 3 1 97 0 1 1 109 77 0 4 4 0 97 7 1 0 0 110 0 78 1 0 29 28 27 26 24 22 17 15 13 12 9 7 0 33 1 33 8 12 22 \012CALL[ ]	/* CallFunction */";
};
width = 1534;
}
);
leftKerningGroup = C;
note = G;
rightKerningGroup = G;
unicode = 0047;
},
{
glyphname = Ghook;
lastChange = "2024-07-06 19:32:59 +0000";
layers = (
{
layerId = "E952A9EA-CC11-40A5-A77C-9A3014CC01A0";
paths = (
{
closed = 1;
nodes = (
"915.667 -20 OFFCURVE",
"1024.5 5 OFFCURVE",
"1119.5 55 CURVE SMOOTH",
"1214.5 105 OFFCURVE",
"1289.167 176.5 OFFCURVE",
"1343.5 269.5 CURVE SMOOTH",
"1397.833 362.5 OFFCURVE",
"1425 472.667 OFFCURVE",
"1425 600 CURVE SMOOTH",
"1425 633 LINE SMOOTH",
"1425 728 OFFCURVE",
"1374 779 OFFCURVE",
"1279 779 CURVE SMOOTH",
"968 779 LINE SMOOTH",
"873 779 OFFCURVE",
"822 742 OFFCURVE",
"822 674 CURVE SMOOTH",
"822 606 OFFCURVE",
"874 569 OFFCURVE",
"968 569 CURVE SMOOTH",
"1166 569 LINE",
"1163.333 461.667 OFFCURVE",
"1128.667 376.5 OFFCURVE",
"1062 313.5 CURVE SMOOTH",
"995.333 250.5 OFFCURVE",
"906 219 OFFCURVE",
"794 219 CURVE SMOOTH",
"668.667 219 OFFCURVE",
"566.833 264.5 OFFCURVE",
"488.5 355.5 CURVE SMOOTH",
"410.167 446.5 OFFCURVE",
"371 576.333 OFFCURVE",
"371 745 CURVE SMOOTH",
"371 857.667 OFFCURVE",
"389 953.167 OFFCURVE",
"425 1031.5 CURVE SMOOTH",
"461 1109.833 OFFCURVE",
"510.5 1169.333 OFFCURVE",
"573.5 1210 CURVE SMOOTH",
"636.5 1250.667 OFFCURVE",
"708 1271 OFFCURVE",
"788 1271 CURVE SMOOTH",
"878.667 1271 OFFCURVE",
"953.833 1248 OFFCURVE",
"1013.5 1202 CURVE SMOOTH",
"1044 1178 OFFCURVE",
"1070 1151 OFFCURVE",
"1091 1118 CURVE SMOOTH",
"1135 1050 OFFCURVE",
"1177 1014 OFFCURVE",
"1260 1014 CURVE SMOOTH",
"1276 1014 LINE SMOOTH",
"1364 1014 OFFCURVE",
"1412 1065 OFFCURVE",
"1412 1160 CURVE SMOOTH",
"1412 1388 LINE SMOOTH",
"1412 1420.667 OFFCURVE",
"1423.167 1444.5 OFFCURVE",
"1445.5 1459.5 CURVE SMOOTH",
"1467.833 1474.5 OFFCURVE",
"1504 1482 OFFCURVE",
"1554 1482 CURVE SMOOTH",
"1567 1482 OFFCURVE",
"1580 1481 OFFCURVE",
"1593 1480 CURVE SMOOTH",
"1619 1478 OFFCURVE",
"1633 1511 OFFCURVE",
"1633 1573 CURVE SMOOTH",
"1633 1637 OFFCURVE",
"1541 1684 OFFCURVE",
"1496 1684 CURVE SMOOTH",
"1496 1684 OFFCURVE",
"1495 1684 OFFCURVE",
"1495 1684 CURVE SMOOTH",
"1276.333 1684 OFFCURVE",
"1163.667 1591 OFFCURVE",
"1157 1405 CURVE",
"1105.667 1438.333 OFFCURVE",
"1048.5 1464.167 OFFCURVE",
"985.5 1482.5 CURVE SMOOTH",
"922.5 1500.833 OFFCURVE",
"855.667 1510 OFFCURVE",
"785 1510 CURVE SMOOTH",
"655 1510 OFFCURVE",
"538.667 1479.333 OFFCURVE",
"436 1418 CURVE SMOOTH",
"333.333 1356.667 OFFCURVE",
"252.167 1268.833 OFFCURVE",
"192.5 1154.5 CURVE SMOOTH",
"132.833 1040.167 OFFCURVE",
"103 903 OFFCURVE",
"103 743 CURVE SMOOTH",
"103 586.333 OFFCURVE",
"132 450.833 OFFCURVE",
"190 336.5 CURVE SMOOTH",
"248 222.167 OFFCURVE",
"328.667 134.167 OFFCURVE",
"432 72.5 CURVE SMOOTH",
"535.333 10.833 OFFCURVE",
"655.667 -20 OFFCURVE",
"793 -20 CURVE SMOOTH"
);
}
);
userData = {
assembly = "NPUSHB[ ]	/* 82 values pushed */\01215 1 1 2 16 11 2 5 3 2 76 0 4 5 8 5 4 8 128 0 2 0 3 5 2 3 105 0 8 0 7 6 8 7 103 0 5 5 1 97 0 1 1 109 77 0 6 6 0 97 9 1 0 0 110 0 78 1 0 39 38 37 36 34 32 27 25 23 22 19 17 14 12 9 7 0 43 1 43 10 12 22 \012CALL[ ]	/* CallFunction */";
};
width = 1534;
}
);
leftKerningGroup = C;
note = uni0193;
rightKerningGroup = G;
unicode = 0193;
},
{
glyphname = Glottalstop;
lastChange = "2024-07-06 19:32:59 +0000";
layers = (
{
layerId = "E952A9EA-CC11-40A5-A77C-9A3014CC01A0";
paths = (
{
closed = 1;
nodes = (
"471 492 OFFCURVE",
"426 441 OFFCURVE",
"426 346 CURVE SMOOTH",
"426 146 LINE SMOOTH",
"426 51 OFFCURVE",
"476 0 OFFCURVE",
"567 0 CURVE SMOOTH",
"658 0 OFFCURVE",
"707 51 OFFCURVE",
"707 146 CURVE SMOOTH",
"707 283 LINE",
"825.667 315 OFFCURVE",
"915.5 379.167 OFFCURVE",
"976.5 475.5 CURVE SMOOTH",
"1037.5 571.833 OFFCURVE",
"1068 682.667 OFFCURVE",
"1068 808 CURVE SMOOTH",
"1068 962 LINE SMOOTH",
"1068 1062.667 OFFCURVE",
"1048.333 1154.5 OFFCURVE",
"1009 1237.5 CURVE SMOOTH",
"969.667 1320.5 OFFCURVE",
"911.667 1386.667 OFFCURVE",
"835 1436 CURVE SMOOTH",
"758.333 1485.333 OFFCURVE",
"663.667 1510 OFFCURVE",
"551 1510 CURVE SMOOTH",
"461.667 1510 OFFCURVE",
"382 1491.667 OFFCURVE",
"312 1455 CURVE SMOOTH",
"242 1418.333 OFFCURVE",
"187 1367.667 OFFCURVE",
"147 1303 CURVE SMOOTH",
"126 1270 OFFCURVE",
"111 1234 OFFCURVE",
"101 1196 CURVE SMOOTH",
"82 1123 OFFCURVE",
"138 1079 OFFCURVE",
"225 1079 CURVE SMOOTH",
"310 1079 OFFCURVE",
"338 1124 OFFCURVE",
"386 1198 CURVE SMOOTH",
"391 1207 OFFCURVE",
"398 1215 OFFCURVE",
"405.5 1223 CURVE SMOOTH",
"440.5 1261 OFFCURVE",
"490.333 1280 OFFCURVE",
"555 1280 CURVE SMOOTH",
"619.667 1280 OFFCURVE",
"668.667 1263.5 OFFCURVE",
"702 1230.5 CURVE SMOOTH",
"735.333 1197.5 OFFCURVE",
"757.833 1156.5 OFFCURVE",
"769.5 1107.5 CURVE SMOOTH",
"781.167 1058.5 OFFCURVE",
"787 1010 OFFCURVE",
"787 962 CURVE SMOOTH",
"787 808 LINE SMOOTH",
"787 751.333 OFFCURVE",
"780.667 699 OFFCURVE",
"768 651 CURVE SMOOTH",
"755.333 603 OFFCURVE",
"732.167 564.5 OFFCURVE",
"698.5 535.5 CURVE SMOOTH",
"664.833 506.5 OFFCURVE",
"617 492 OFFCURVE",
"555 492 CURVE SMOOTH"
);
}
);
userData = {
assembly = "NPUSHB[ ]	/* 53 values pushed */\01226 1 4 0 1 76 0 2 1 0 1 2 0 128 0 1 1 3 97 0 3 3 109 77 5 1 0 0 4 95 0 4 4 104 4 78 2 0 28 27 19 17 14 13 11 9 0 29 2 29 6 12 22 \012CALL[ ]	/* CallFunction */";
};
width = 1154;
}
);
note = uni0241;
unicode = 0241;
},
{
glyphname = Yogh;
lastChange = "2024-07-06 19:32:59 +0000";
layers = (
{
layerId = "E952A9EA-CC11-40A5-A77C-9A3014CC01A0";
paths = (
{
closed = 1;
nodes = (
"584 422 OFFCURVE",
"738 486 OFFCURVE",
"860 561 CURVE",
"888 542.333 OFFCURVE",
"907.833 515.833 OFFCURVE",
"919.5 481.5 CURVE SMOOTH",
"931.167 447.167 OFFCURVE",
"937 403.333 OFFCURVE",
"937 350 CURVE SMOOTH",
"937 243.333 OFFCURVE",
"909 153.333 OFFCURVE",
"853 80 CURVE SMOOTH",
"797 6.667 OFFCURVE",
"716.5 -53.667 OFFCURVE",
"611.5 -101 CURVE SMOOTH",
"539 -134 OFFCURVE",
"455 -162 OFFCURVE",
"361 -186 CURVE SMOOTH",
"275 -208 OFFCURVE",
"232 -252 OFFCURVE",
"232 -326 CURVE SMOOTH",
"232 -395 OFFCURVE",
"292 -428 OFFCURVE",
"392 -406 CURVE SMOOTH",
"520 -377 OFFCURVE",
"637 -340 OFFCURVE",
"743 -294 CURVE SMOOTH",
"891 -230 OFFCURVE",
"1007 -146.167 OFFCURVE",
"1091 -42.5 CURVE SMOOTH",
"1175 61.167 OFFCURVE",
"1217 188 OFFCURVE",
"1217 338 CURVE SMOOTH",
"1217 423.333 OFFCURVE",
"1200.667 495.667 OFFCURVE",
"1168 555 CURVE SMOOTH",
"1135.333 614.333 OFFCURVE",
"1089.667 660.667 OFFCURVE",
"1031 694 CURVE",
"1139.667 804.667 OFFCURVE",
"1194 931.667 OFFCURVE",
"1194 1075 CURVE SMOOTH",
"1194 1171 OFFCURVE",
"1171.833 1251.167 OFFCURVE",
"1127.5 1315.5 CURVE SMOOTH",
"1083.167 1379.833 OFFCURVE",
"1021.167 1428.333 OFFCURVE",
"941.5 1461 CURVE SMOOTH",
"861.833 1493.667 OFFCURVE",
"769 1510 OFFCURVE",
"663 1510 CURVE SMOOTH",
"559 1510 OFFCURVE",
"466.833 1492.833 OFFCURVE",
"386.5 1458.5 CURVE SMOOTH",
"306.167 1424.167 OFFCURVE",
"243.167 1376.167 OFFCURVE",
"197.5 1314.5 CURVE SMOOTH",
"174 1283 OFFCURVE",
"157 1249 OFFCURVE",
"146 1213 CURVE SMOOTH",
"124 1143 OFFCURVE",
"188 1099 OFFCURVE",
"286 1099 CURVE SMOOTH",
"368 1099 OFFCURVE",
"392 1144 OFFCURVE",
"447 1209 CURVE SMOOTH",
"455 1218 OFFCURVE",
"465 1226 OFFCURVE",
"475.5 1234.5 CURVE SMOOTH",
"521.833 1268.833 OFFCURVE",
"584.333 1286 OFFCURVE",
"663 1286 CURVE SMOOTH",
"833 1286 OFFCURVE",
"918 1204.333 OFFCURVE",
"918 1041 CURVE SMOOTH",
"918 961 OFFCURVE",
"894.5 891.833 OFFCURVE",
"847.5 833.5 CURVE SMOOTH",
"800.5 775.167 OFFCURVE",
"726.5 722.167 OFFCURVE",
"625.5 674.5 CURVE SMOOTH",
"551 640 OFFCURVE",
"461 605 OFFCURVE",
"355 570 CURVE SMOOTH",
"272 543 OFFCURVE",
"232 498 OFFCURVE",
"232 429 CURVE SMOOTH",
"232 366 OFFCURVE",
"295 339 OFFCURVE",
"397 368 CURVE SMOOTH"
);
}
);
userData = {
assembly = "NPUSHB[ ]	/* 31 values pushed */\01236 29 28 21 1 0 6 1 73 0 1 0 1 134 0 0 0 2 97 0 2 2 109 0 78 35 18 38 3 12 25 \012CALL[ ]	/* CallFunction */";
};
width = 1344;
}
);
note = uni021C;
unicode = 021C;
},
{
glyphname = H;
lastChange = "2024-07-06 19:32:59 +0000";
layers = (
{
layerId = "E952A9EA-CC11-40A5-A77C-9A3014CC01A0";
paths = (
{
closed = 1;
nodes = (
"150 146 LINE SMOOTH",
"150 51 OFFCURVE",
"197 0 OFFCURVE",
"284 0 CURVE SMOOTH",
"370 0 OFFCURVE",
"417 52 OFFCURVE",
"417 146 CURVE SMOOTH",
"417 649 LINE",
"1110 649 LINE",
"1110 146 LINE SMOOTH",
"1110 51 OFFCURVE",
"1157 0 OFFCURVE",
"1244 0 CURVE SMOOTH",
"1330 0 OFFCURVE",
"1377 51 OFFCURVE",
"1377 146 CURVE SMOOTH",
"1377 1344 LINE SMOOTH",
"1377 1439 OFFCURVE",
"1330 1490 OFFCURVE",
"1244 1490 CURVE SMOOTH",
"1158 1490 OFFCURVE",
"1110 1438 OFFCURVE",
"1110 1344 CURVE SMOOTH",
"1110 874 LINE",
"417 874 LINE",
"417 1344 LINE SMOOTH",
"417 1439 OFFCURVE",
"370 1490 OFFCURVE",
"284 1490 CURVE SMOOTH",
"198 1490 OFFCURVE",
"150 1439 OFFCURVE",
"150 1344 CURVE SMOOTH"
);
}
);
userData = {
assembly = "NPUSHB[ ]	/* 36 values pushed */\0120 1 0 4 3 1 4 103 2 1 0 0 103 77 6 5 2 3 3 104 3 78 0 0 0 11 0 11 17 17 17 17 17 7 12 27 \012CALL[ ]	/* CallFunction */";
};
width = 1527;
}
);
leftKerningGroup = B;
note = H;
rightKerningGroup = Ereversed;
unicode = 0048;
},
{
glyphname = Hbar;
lastChange = "2024-07-06 19:32:59 +0000";
layers = (
{
layerId = "E952A9EA-CC11-40A5-A77C-9A3014CC01A0";
paths = (
{
closed = 1;
nodes = (
"1549 1180 OFFCURVE",
"1508 1209 OFFCURVE",
"1432 1209 CURVE",
"1432 1350 LINE SMOOTH",
"1432 1441 OFFCURVE",
"1385 1490 OFFCURVE",
"1299 1490 CURVE SMOOTH",
"1213 1490 OFFCURVE",
"1165 1439 OFFCURVE",
"1165 1344 CURVE SMOOTH",
"1165 1209 LINE",
"471 1209 LINE",
"471 1350 LINE SMOOTH",
"471 1441 OFFCURVE",
"424 1490 OFFCURVE",
"338 1490 CURVE SMOOTH",
"252 1490 OFFCURVE",
"204 1439 OFFCURVE",
"204 1344 CURVE SMOOTH",
"204 1209 LINE",
"144 1209 LINE SMOOTH",
"105 1209 OFFCURVE",
"83 1180 OFFCURVE",
"83 1126 CURVE SMOOTH",
"83 1072 OFFCURVE",
"126 1043 OFFCURVE",
"204 1043 CURVE",
"204 146 LINE SMOOTH",
"204 51 OFFCURVE",
"251 0 OFFCURVE",
"338 0 CURVE SMOOTH",
"424 0 OFFCURVE",
"471 52 OFFCURVE",
"471 146 CURVE SMOOTH",
"471 649 LINE",
"1165 649 LINE",
"1165 146 LINE SMOOTH",
"1165 51 OFFCURVE",
"1212 0 OFFCURVE",
"1299 0 CURVE SMOOTH",
"1385 0 OFFCURVE",
"1432 52 OFFCURVE",
"1432 146 CURVE SMOOTH",
"1432 1043 LINE",
"1491 1043 LINE SMOOTH",
"1529 1043 OFFCURVE",
"1549 1072 OFFCURVE",
"1549 1126 CURVE SMOOTH"
);
},
{
closed = 1;
nodes = (
"1165 1043 LINE",
"1165 874 LINE",
"471 874 LINE",
"471 1043 LINE"
);
}
);
userData = {
assembly = "NPUSHB[ ]	/* 56 values pushed */\01212 9 7 3 5 10 4 2 0 11 5 0 103 0 11 0 2 1 11 2 103 8 1 6 6 103 77 3 1 1 1 104 1 78 0 0 23 22 21 20 0 19 0 19 17 17 17 17 17 17 17 17 17 13 12 31 \012CALL[ ]	/* CallFunction */";
};
width = 1632;
}
);
leftKerningGroup = B;
note = Hbar;
rightKerningGroup = Ereversed;
unicode = 0126;
},
{
glyphname = Hwair;
lastChange = "2024-07-06 19:32:59 +0000";
layers = (
{
layerId = "E952A9EA-CC11-40A5-A77C-9A3014CC01A0";
paths = (
{
closed = 1;
nodes = (
"1796.333 -20 OFFCURVE",
"1922.5 23.667 OFFCURVE",
"2017.5 111 CURVE SMOOTH",
"2112.5 198.333 OFFCURVE",
"2160 325 OFFCURVE",
"2160 491 CURVE SMOOTH",
"2160 953 LINE SMOOTH",
"2160 1048 OFFCURVE",
"2113 1099 OFFCURVE",
"2027 1099 CURVE SMOOTH",
"1941 1099 OFFCURVE",
"1893 1047 OFFCURVE",
"1893 953 CURVE SMOOTH",
"1893 491 LINE SMOOTH",
"1893 396.333 OFFCURVE",
"1871 325.833 OFFCURVE",
"1827 279.5 CURVE SMOOTH",
"1783 233.167 OFFCURVE",
"1720.333 210 OFFCURVE",
"1639 210 CURVE SMOOTH",
"1557 210 OFFCURVE",
"1493.167 233.167 OFFCURVE",
"1447.5 279.5 CURVE SMOOTH",
"1401.833 325.833 OFFCURVE",
"1379 396.333 OFFCURVE",
"1379 491 CURVE SMOOTH",
"1379 1344 LINE SMOOTH",
"1379 1439 OFFCURVE",
"1332 1490 OFFCURVE",
"1245 1490 CURVE SMOOTH",
"1158 1490 OFFCURVE",
"1110 1438 OFFCURVE",
"1110 1344 CURVE SMOOTH",
"1110 858 LINE",
"417 858 LINE",
"417 1344 LINE SMOOTH",
"417 1439 OFFCURVE",
"370 1490 OFFCURVE",
"284 1490 CURVE SMOOTH",
"198 1490 OFFCURVE",
"150 1439 OFFCURVE",
"150 1344 CURVE SMOOTH",
"150 146 LINE SMOOTH",
"150 51 OFFCURVE",
"197 0 OFFCURVE",
"284 0 CURVE SMOOTH",
"370 0 OFFCURVE",
"417 51 OFFCURVE",
"417 146 CURVE SMOOTH",
"417 633 LINE",
"1110 633 LINE",
"1110 491 LINE SMOOTH",
"1110 327 OFFCURVE",
"1158.167 200.833 OFFCURVE",
"1254.5 112.5 CURVE SMOOTH",
"1350.833 24.167 OFFCURVE",
"1479 -20 OFFCURVE",
"1639 -20 CURVE SMOOTH"
);
}
);
userData = {
assembly = "MPPEM[ ]	/* MeasurePixelPerEm */\012PUSHB[ ]	/* 1 value pushed */\01225 \012LT[ ]	/* LessThan */\012IF[ ]	/* If */\012NPUSHB[ ]	/* 32 values pushed */\0120 4 0 1 6 4 1 103 5 1 3 3 103 77 0 7 7 106 77 0 6 6 0 97 2 8 2 0 0 110 0 78 \012ELSE[ ]	/* Else */\012NPUSHB[ ]	/* 36 values pushed */\0120 4 0 1 6 4 1 103 5 1 3 3 103 77 0 7 7 106 77 0 2 2 104 77 0 6 6 0 97 8 1 0 0 110 0 78 \012EIF[ ]	/* EndIf */\012NPUSHB[ ]	/* 23 values pushed */\0121 0 22 21 18 16 13 12 11 10 9 8 7 6 5 4 0 25 1 25 9 12 22 \012CALL[ ]	/* CallFunction */";
};
width = 2298;
}
);
leftKerningGroup = B;
note = uni01F6;
rightKerningGroup = Hwair;
unicode = 01F6;
},
{
glyphname = I;
lastChange = "2024-07-06 19:32:59 +0000";
layers = (
{
layerId = "E952A9EA-CC11-40A5-A77C-9A3014CC01A0";
paths = (
{
closed = 1;
nodes = (
"417 1344 LINE SMOOTH",
"417 1439 OFFCURVE",
"370 1490 OFFCURVE",
"284 1490 CURVE SMOOTH",
"198 1490 OFFCURVE",
"150 1439 OFFCURVE",
"150 1344 CURVE SMOOTH",
"150 146 LINE SMOOTH",
"150 51 OFFCURVE",
"197 0 OFFCURVE",
"284 0 CURVE SMOOTH",
"370 0 OFFCURVE",
"417 51 OFFCURVE",
"417 146 CURVE SMOOTH"
);
}
);
userData = {
assembly = "NPUSHB[ ]	/* 22 values pushed */\0122 1 1 1 103 77 0 0 0 104 0 78 0 0 0 3 0 3 17 3 12 23 \012CALL[ ]	/* CallFunction */";
};
width = 567;
}
);
leftKerningGroup = B;
note = I;
rightKerningGroup = Ereversed;
unicode = 0049;
},
{
glyphname = J;
lastChange = "2024-07-06 19:32:59 +0000";
layers = (
{
layerId = "E952A9EA-CC11-40A5-A77C-9A3014CC01A0";
paths = (
{
closed = 1;
nodes = (
"706 -20 OFFCURVE",
"822.167 19.833 OFFCURVE",
"908.5 99.5 CURVE SMOOTH",
"994.833 179.167 OFFCURVE",
"1038 293 OFFCURVE",
"1038 441 CURVE SMOOTH",
"1038 1344 LINE SMOOTH",
"1038 1439 OFFCURVE",
"991 1490 OFFCURVE",
"906 1490 CURVE SMOOTH",
"820 1490 OFFCURVE",
"773 1439 OFFCURVE",
"773 1344 CURVE SMOOTH",
"773 438 LINE SMOOTH",
"773 360 OFFCURVE",
"753.667 300.833 OFFCURVE",
"715 260.5 CURVE SMOOTH",
"676.333 220.167 OFFCURVE",
"624.667 200 OFFCURVE",
"560 200 CURVE SMOOTH",
"494.667 200 OFFCURVE",
"442.5 220 OFFCURVE",
"403.5 260 CURVE SMOOTH",
"364.5 300 OFFCURVE",
"345 359.333 OFFCURVE",
"345 438 CURVE SMOOTH",
"345 495 OFFCURVE",
"298 525 OFFCURVE",
"212 525 CURVE SMOOTH",
"126 525 OFFCURVE",
"78 495 OFFCURVE",
"78 440 CURVE SMOOTH",
"78 292.667 OFFCURVE",
"121.5 179.167 OFFCURVE",
"208.5 99.5 CURVE SMOOTH",
"295.5 19.833 OFFCURVE",
"412.667 -20 OFFCURVE",
"560 -20 CURVE SMOOTH"
);
}
);
userData = {
assembly = "NPUSHB[ ]	/* 40 values pushed */\0120 1 3 2 3 1 2 128 0 3 3 103 77 0 2 2 0 97 4 1 0 0 110 0 78 1 0 14 13 10 8 5 4 0 17 1 17 5 12 22 \012CALL[ ]	/* CallFunction */";
};
width = 1187;
}
);
leftKerningGroup = J;
note = J;
rightKerningGroup = J;
unicode = 004A;
},
{
glyphname = K;
lastChange = "2024-07-06 19:32:59 +0000";
layers = (
{
layerId = "E952A9EA-CC11-40A5-A77C-9A3014CC01A0";
paths = (
{
closed = 1;
nodes = (
"150 146 LINE SMOOTH",
"150 51 OFFCURVE",
"197 0 OFFCURVE",
"284 0 CURVE SMOOTH",
"370 0 OFFCURVE",
"417 52 OFFCURVE",
"417 146 CURVE SMOOTH",
"417 447 LINE",
"620 668 LINE",
"1009 94 LINE SMOOTH",
"1053 28 OFFCURVE",
"1106 0 OFFCURVE",
"1185 0 CURVE SMOOTH",
"1230 0 LINE SMOOTH",
"1318 0 OFFCURVE",
"1333 78 OFFCURVE",
"1265 177 CURVE SMOOTH",
"805 845 LINE",
"1218 1311 LINE SMOOTH",
"1302 1406 OFFCURVE",
"1272 1490 OFFCURVE",
"1153 1490 CURVE SMOOTH",
"1077 1490 OFFCURVE",
"1024 1466 OFFCURVE",
"974 1409 CURVE SMOOTH",
"654 1044 LINE SMOOTH",
"605.333 987.333 OFFCURVE",
"561.667 934 OFFCURVE",
"523 884 CURVE SMOOTH",
"484.333 834 OFFCURVE",
"447.667 782.333 OFFCURVE",
"413 729 CURVE",
"417 1048 LINE",
"417 1344 LINE SMOOTH",
"417 1439 OFFCURVE",
"370 1490 OFFCURVE",
"284 1490 CURVE SMOOTH",
"198 1490 OFFCURVE",
"150 1439 OFFCURVE",
"150 1344 CURVE SMOOTH"
);
}
);
userData = {
assembly = "NPUSHB[ ]	/* 35 values pushed */\01214 13 10 4 4 2 0 1 76 1 1 0 0 103 77 4 3 2 2 2 104 2 78 0 0 0 15 0 15 18 22 17 5 12 25 \012CALL[ ]	/* CallFunction */";
};
width = 1440;
}
);
leftKerningGroup = B;
note = K;
rightKerningGroup = K;
unicode = 004B;
},
{
glyphname = Khook;
lastChange = "2024-07-06 19:32:59 +0000";
layers = (
{
layerId = "E952A9EA-CC11-40A5-A77C-9A3014CC01A0";
paths = (
{
closed = 1;
nodes = (
"150 146 LINE SMOOTH",
"150 51 OFFCURVE",
"197 0 OFFCURVE",
"284 0 CURVE SMOOTH",
"370 0 OFFCURVE",
"417 52 OFFCURVE",
"417 146 CURVE SMOOTH",
"417 418 LINE",
"601 619 LINE",
"1000 89 LINE SMOOTH",
"1047 26 OFFCURVE",
"1101 0 OFFCURVE",
"1178 0 CURVE SMOOTH",
"1228 0 LINE SMOOTH",
"1316 0 OFFCURVE",
"1327 80 OFFCURVE",
"1252 178 CURVE SMOOTH",
"770 808 LINE",
"1147 1205 LINE SMOOTH",
"1181 1241 OFFCURVE",
"1213.5 1263.5 OFFCURVE",
"1244.5 1272.5 CURVE SMOOTH",
"1261 1277 OFFCURVE",
"1279 1278 OFFCURVE",
"1298 1274 CURVE SMOOTH",
"1334 1266 OFFCURVE",
"1363 1286 OFFCURVE",
"1394 1350 CURVE SMOOTH",
"1423 1412 OFFCURVE",
"1396 1482 OFFCURVE",
"1302 1501 CURVE SMOOTH",
"1265 1508 OFFCURVE",
"1228 1510 OFFCURVE",
"1190.5 1505 CURVE SMOOTH",
"1106.833 1494.333 OFFCURVE",
"1030.333 1452 OFFCURVE",
"961 1378 CURVE SMOOTH",
"436 814 LINE",
"417 814 LINE",
"417 1344 LINE SMOOTH",
"417 1439 OFFCURVE",
"370 1490 OFFCURVE",
"284 1490 CURVE SMOOTH",
"198 1490 OFFCURVE",
"150 1439 OFFCURVE",
"150 1344 CURVE SMOOTH"
);
}
);
userData = {
assembly = "NPUSHB[ ]	/* 35 values pushed */\01217 16 13 9 8 3 6 1 0 1 76 0 0 0 103 77 3 2 2 1 1 104 1 78 0 0 0 18 0 18 28 17 4 12 24 \012CALL[ ]	/* CallFunction */";
};
width = 1454;
}
);
leftKerningGroup = B;
note = uni0198;
rightKerningGroup = K;
unicode = 0198;
},
{
glyphname = L;
lastChange = "2024-07-06 19:32:59 +0000";
layers = (
{
layerId = "E952A9EA-CC11-40A5-A77C-9A3014CC01A0";
paths = (
{
closed = 1;
nodes = (
"150 146 LINE SMOOTH",
"150 51 OFFCURVE",
"201 0 OFFCURVE",
"296 0 CURVE SMOOTH",
"929 0 LINE SMOOTH",
"1024 0 OFFCURVE",
"1075 40 OFFCURVE",
"1075 113 CURVE SMOOTH",
"1075 186 OFFCURVE",
"1024 225 OFFCURVE",
"929 225 CURVE SMOOTH",
"417 225 LINE",
"417 1344 LINE SMOOTH",
"417 1439 OFFCURVE",
"370 1490 OFFCURVE",
"284 1490 CURVE SMOOTH",
"198 1490 OFFCURVE",
"150 1439 OFFCURVE",
"150 1344 CURVE SMOOTH"
);
}
);
userData = {
assembly = "NPUSHB[ ]	/* 28 values pushed */\0120 0 0 103 77 0 1 1 2 96 3 1 2 2 104 2 78 0 0 0 5 0 5 17 17 4 12 24 \012CALL[ ]	/* CallFunction */";
};
width = 1158;
}
);
leftKerningGroup = B;
note = L;
rightKerningGroup = L;
unicode = 004C;
},
{
glyphname = M;
lastChange = "2024-07-06 19:32:59 +0000";
layers = (
{
layerId = "E952A9EA-CC11-40A5-A77C-9A3014CC01A0";
paths = (
{
closed = 1;
nodes = (
"150 146 LINE SMOOTH",
"150 51 OFFCURVE",
"196 0 OFFCURVE",
"281 0 CURVE SMOOTH",
"366 0 OFFCURVE",
"412 51 OFFCURVE",
"412 146 CURVE SMOOTH",
"412 752 LINE SMOOTH",
"412 790 OFFCURVE",
"411.5 836.333 OFFCURVE",
"410.5 891 CURVE SMOOTH",
"406.5 1064.5 LINE SMOOTH",
"404.833 1125.5 OFFCURVE",
"403.333 1184 OFFCURVE",
"402 1240 CURVE",
"457.5 1050 LINE SMOOTH",
"475.833 987.333 OFFCURVE",
"493.167 930 OFFCURVE",
"509.5 878 CURVE SMOOTH",
"525.833 826 OFFCURVE",
"540 784 OFFCURVE",
"552 752 CURVE SMOOTH",
"788 116 LINE SMOOTH",
"817 37 OFFCURVE",
"868 0 OFFCURVE",
"945 0 CURVE SMOOTH",
"1022 0 OFFCURVE",
"1072 38 OFFCURVE",
"1101 117 CURVE SMOOTH",
"1333 752 LINE SMOOTH",
"1345 785.333 OFFCURVE",
"1359.333 828.667 OFFCURVE",
"1376 882 CURVE SMOOTH",
"1392.667 935.333 OFFCURVE",
"1410.333 993.667 OFFCURVE",
"1429 1057 CURVE SMOOTH",
"1447.667 1120.333 OFFCURVE",
"1465.333 1184 OFFCURVE",
"1482 1248 CURVE",
"1481.333 1188.667 OFFCURVE",
"1480.167 1128 OFFCURVE",
"1478.5 1066 CURVE SMOOTH",
"1474.5 890.5 LINE SMOOTH",
"1473.5 835.5 OFFCURVE",
"1473 789.333 OFFCURVE",
"1473 752 CURVE SMOOTH",
"1473 146 LINE SMOOTH",
"1473 51 OFFCURVE",
"1520 0 OFFCURVE",
"1606 0 CURVE SMOOTH",
"1692 0 OFFCURVE",
"1739 51 OFFCURVE",
"1739 146 CURVE SMOOTH",
"1739 1344 LINE SMOOTH",
"1739 1439 OFFCURVE",
"1687 1490 OFFCURVE",
"1593 1490 CURVE SMOOTH",
"1460 1490 LINE SMOOTH",
"1376 1490 OFFCURVE",
"1322 1452 OFFCURVE",
"1293 1373 CURVE SMOOTH",
"1056 721 LINE",
"1046.667 691 OFFCURVE",
"1035.5 652.5 OFFCURVE",
"1022.5 605.5 CURVE SMOOTH",
"1009.5 558.5 OFFCURVE",
"996.333 508.167 OFFCURVE",
"983 454.5 CURVE SMOOTH",
"969.667 400.833 OFFCURVE",
"957.333 349.667 OFFCURVE",
"946 301 CURVE",
"934.667 350.333 OFFCURVE",
"922.333 401.833 OFFCURVE",
"909 455.5 CURVE SMOOTH",
"895.667 509.167 OFFCURVE",
"882.5 559.5 OFFCURVE",
"869.5 606.5 CURVE SMOOTH",
"856.5 653.5 OFFCURVE",
"845 691.667 OFFCURVE",
"835 721 CURVE SMOOTH",
"595 1373 LINE SMOOTH",
"566 1453 OFFCURVE",
"512 1490 OFFCURVE",
"428 1490 CURVE SMOOTH",
"296 1490 LINE SMOOTH",
"201 1490 OFFCURVE",
"150 1439 OFFCURVE",
"150 1344 CURVE SMOOTH"
);
}
);
userData = {
assembly = "NPUSHB[ ]	/* 36 values pushed */\01231 20 7 3 2 0 1 76 1 1 0 0 103 77 5 4 3 3 2 2 104 2 78 0 0 0 36 0 36 26 17 26 17 6 12 26 \012CALL[ ]	/* CallFunction */";
};
width = 1889;
}
);
leftKerningGroup = B;
note = M;
rightKerningGroup = Ereversed;
unicode = 004D;
},
{
glyphname = Mturned;
lastChange = "2024-07-06 19:32:59 +0000";
layers = (
{
layerId = "E952A9EA-CC11-40A5-A77C-9A3014CC01A0";
paths = (
{
closed = 1;
nodes = (
"902 97 OFFCURVE",
"944.333 50 OFFCURVE",
"999 22 CURVE SMOOTH",
"1053.667 -6 OFFCURVE",
"1117.667 -20 OFFCURVE",
"1191 -20 CURVE SMOOTH",
"1259.667 -20 OFFCURVE",
"1319.667 -7.833 OFFCURVE",
"1371 16.5 CURVE SMOOTH",
"1422.333 40.833 OFFCURVE",
"1465.333 75 OFFCURVE",
"1500 119 CURVE",
"1506 60 LINE SMOOTH",
"1510 20 OFFCURVE",
"1553 0 OFFCURVE",
"1634 0 CURVE SMOOTH",
"1713 0 OFFCURVE",
"1756 51 OFFCURVE",
"1756 146 CURVE SMOOTH",
"1756 1344 LINE SMOOTH",
"1756 1439 OFFCURVE",
"1709 1490 OFFCURVE",
"1622 1490 CURVE SMOOTH",
"1535 1490 OFFCURVE",
"1488 1438 OFFCURVE",
"1488 1344 CURVE SMOOTH",
"1488 338 LINE",
"1471.333 297.333 OFFCURVE",
"1444.833 263.833 OFFCURVE",
"1408.5 237.5 CURVE SMOOTH",
"1372.167 211.167 OFFCURVE",
"1322.667 198 OFFCURVE",
"1260 198 CURVE SMOOTH",
"1213.333 198 OFFCURVE",
"1173.5 214.833 OFFCURVE",
"1140.5 248.5 CURVE SMOOTH",
"1107.5 282.167 OFFCURVE",
"1091 343 OFFCURVE",
"1091 431 CURVE SMOOTH",
"1091 1344 LINE SMOOTH",
"1091 1439 OFFCURVE",
"1044 1490 OFFCURVE",
"958 1490 CURVE SMOOTH",
"872 1490 OFFCURVE",
"825 1439 OFFCURVE",
"825 1344 CURVE SMOOTH",
"825 431 LINE SMOOTH",
"825 400.333 OFFCURVE",
"826.333 371.333 OFFCURVE",
"829 344 CURVE",
"813 303.333 OFFCURVE",
"786.833 268.833 OFFCURVE",
"750.5 240.5 CURVE SMOOTH",
"714.167 212.167 OFFCURVE",
"662.667 198 OFFCURVE",
"596 198 CURVE SMOOTH",
"550 198 OFFCURVE",
"510.833 214.833 OFFCURVE",
"478.5 248.5 CURVE SMOOTH",
"446.167 282.167 OFFCURVE",
"430 343 OFFCURVE",
"430 431 CURVE SMOOTH",
"430 1344 LINE SMOOTH",
"430 1439 OFFCURVE",
"383 1490 OFFCURVE",
"297 1490 CURVE SMOOTH",
"211 1490 OFFCURVE",
"163 1439 OFFCURVE",
"163 1344 CURVE SMOOTH",
"163 431 LINE SMOOTH",
"163 264.333 OFFCURVE",
"194.333 147.5 OFFCURVE",
"257 80.5 CURVE SMOOTH",
"319.667 13.5 OFFCURVE",
"409.667 -20 OFFCURVE",
"527 -20 CURVE SMOOTH",
"608.333 -20 OFFCURVE",
"677.667 -3.833 OFFCURVE",
"735 28.5 CURVE SMOOTH",
"792.333 60.833 OFFCURVE",
"838 105.667 OFFCURVE",
"872 163 CURVE"
);
}
);
userData = {
assembly = "MPPEM[ ]	/* MeasurePixelPerEm */\012PUSHB[ ]	/* 1 value pushed */\01225 \012LT[ ]	/* LessThan */\012IF[ ]	/* If */\012NPUSHB[ ]	/* 10 values pushed */\01226 1 2 1 31 1 0 2 2 76 \012ELSE[ ]	/* Else */\012NPUSHB[ ]	/* 10 values pushed */\01226 1 2 1 31 1 6 2 2 76 \012EIF[ ]	/* EndIf */\012MPPEM[ ]	/* MeasurePixelPerEm */\012PUSHB[ ]	/* 1 value pushed */\01225 \012LT[ ]	/* LessThan */\012IF[ ]	/* If */\012NPUSHB[ ]	/* 21 values pushed */\0125 3 2 1 1 103 77 4 1 2 2 0 98 7 6 2 0 0 110 0 78 \012ELSE[ ]	/* Else */\012NPUSHB[ ]	/* 25 values pushed */\0125 3 2 1 1 103 77 0 6 6 104 77 4 1 2 2 0 98 7 1 0 0 110 0 78 \012EIF[ ]	/* EndIf */\012NPUSHB[ ]	/* 11 values pushed */\01235 17 19 35 21 35 19 34 8 12 30 \012CALL[ ]	/* CallFunction */";
};
width = 1918;
}
);
note = mcapturn;
unicode = 019C;
},
{
glyphname = N;
lastChange = "2024-07-06 19:32:59 +0000";
layers = (
{
layerId = "E952A9EA-CC11-40A5-A77C-9A3014CC01A0";
paths = (
{
closed = 1;
nodes = (
"150 146 LINE SMOOTH",
"150 51 OFFCURVE",
"198 0 OFFCURVE",
"286 0 CURVE SMOOTH",
"374 0 OFFCURVE",
"422 52 OFFCURVE",
"422 146 CURVE SMOOTH",
"422 740 LINE SMOOTH",
"422 781.333 OFFCURVE",
"420 839.333 OFFCURVE",
"416 914 CURVE SMOOTH",
"403 1164 LINE",
"436.333 1099.333 OFFCURVE",
"465.667 1043 OFFCURVE",
"491 995 CURVE SMOOTH",
"516.333 947 OFFCURVE",
"540.5 902.667 OFFCURVE",
"563.5 862 CURVE SMOOTH",
"586.5 821.333 OFFCURVE",
"611 780.333 OFFCURVE",
"637 739 CURVE SMOOTH",
"1041 97 LINE SMOOTH",
"1083 30 OFFCURVE",
"1137 0 OFFCURVE",
"1216 0 CURVE SMOOTH",
"1259 0 LINE SMOOTH",
"1354 0 OFFCURVE",
"1405 51 OFFCURVE",
"1405 146 CURVE SMOOTH",
"1405 1344 LINE SMOOTH",
"1405 1439 OFFCURVE",
"1357 1490 OFFCURVE",
"1270 1490 CURVE SMOOTH",
"1182 1490 OFFCURVE",
"1134 1438 OFFCURVE",
"1134 1344 CURVE SMOOTH",
"1134 708 LINE SMOOTH",
"1134 662.667 OFFCURVE",
"1135.333 605 OFFCURVE",
"1138 535 CURVE SMOOTH",
"1140.667 465 OFFCURVE",
"1144.667 394 OFFCURVE",
"1150 322 CURVE",
"1117.333 396.667 OFFCURVE",
"1085.333 462.5 OFFCURVE",
"1054 519.5 CURVE SMOOTH",
"1022.667 576.5 OFFCURVE",
"993.667 626.333 OFFCURVE",
"967 669 CURVE SMOOTH",
"513 1393 LINE SMOOTH",
"471 1461 OFFCURVE",
"417 1490 OFFCURVE",
"338 1490 CURVE SMOOTH",
"296 1490 LINE SMOOTH",
"201 1490 OFFCURVE",
"150 1439 OFFCURVE",
"150 1344 CURVE SMOOTH"
);
}
);
userData = {
assembly = "NPUSHB[ ]	/* 33 values pushed */\01218 6 2 2 0 1 76 1 1 0 0 103 77 4 3 2 2 2 104 2 78 0 0 0 22 0 22 17 24 17 5 12 25 \012CALL[ ]	/* CallFunction */";
};
width = 1555;
}
);
leftKerningGroup = B;
note = N;
rightKerningGroup = Ereversed;
unicode = 004E;
},
{
glyphname = Eng;
lastChange = "2024-07-06 19:32:59 +0000";
layers = (
{
layerId = "E952A9EA-CC11-40A5-A77C-9A3014CC01A0";
paths = (
{
closed = 1;
nodes = (
"1025 -431 OFFCURVE",
"1048 -432 OFFCURVE",
"1073 -432 CURVE SMOOTH",
"1299 -432 OFFCURVE",
"1412 -333.333 OFFCURVE",
"1412 -136 CURVE SMOOTH",
"1412 128 LINE",
"1405 128 LINE",
"1405 1344 LINE SMOOTH",
"1405 1439 OFFCURVE",
"1357 1490 OFFCURVE",
"1270 1490 CURVE SMOOTH",
"1182 1490 OFFCURVE",
"1134 1438 OFFCURVE",
"1134 1344 CURVE SMOOTH",
"1134 708 LINE SMOOTH",
"1134 662.667 OFFCURVE",
"1135.333 605 OFFCURVE",
"1138 535 CURVE SMOOTH",
"1140.667 465 OFFCURVE",
"1144.667 394 OFFCURVE",
"1150 322 CURVE",
"1117.333 396.667 OFFCURVE",
"1085.333 462.5 OFFCURVE",
"1054 519.5 CURVE SMOOTH",
"1022.667 576.5 OFFCURVE",
"993.667 626.333 OFFCURVE",
"967 669 CURVE SMOOTH",
"513 1393 LINE SMOOTH",
"471 1461 OFFCURVE",
"417 1490 OFFCURVE",
"338 1490 CURVE SMOOTH",
"296 1490 LINE SMOOTH",
"201 1490 OFFCURVE",
"150 1439 OFFCURVE",
"150 1344 CURVE SMOOTH",
"150 146 LINE SMOOTH",
"150 51 OFFCURVE",
"198 0 OFFCURVE",
"286 0 CURVE SMOOTH",
"374 0 OFFCURVE",
"422 52 OFFCURVE",
"422 146 CURVE SMOOTH",
"422 740 LINE SMOOTH",
"422 781.333 OFFCURVE",
"420 839.333 OFFCURVE",
"416 914 CURVE SMOOTH",
"403 1164 LINE",
"436.333 1099.333 OFFCURVE",
"465.667 1043 OFFCURVE",
"491 995 CURVE SMOOTH",
"516.333 947 OFFCURVE",
"540.5 902.667 OFFCURVE",
"563.5 862 CURVE SMOOTH",
"586.5 821.333 OFFCURVE",
"611 780.333 OFFCURVE",
"637 739 CURVE SMOOTH",
"1041 97 LINE SMOOTH",
"1083 30 OFFCURVE",
"1115 0 OFFCURVE",
"1145 0 CURVE",
"1145 -122 LINE SMOOTH",
"1145 -154.667 OFFCURVE",
"1135.667 -178.333 OFFCURVE",
"1117 -193 CURVE SMOOTH",
"1098.333 -207.667 OFFCURVE",
"1064.333 -215 OFFCURVE",
"1015 -215 CURVE SMOOTH",
"1002 -215 OFFCURVE",
"989 -214 OFFCURVE",
"975 -213 CURVE SMOOTH",
"949 -211 OFFCURVE",
"935 -247 OFFCURVE",
"935 -314 CURVE SMOOTH",
"935 -383 OFFCURVE",
"958 -425 OFFCURVE",
"1003 -429 CURVE SMOOTH"
);
}
);
userData = {
assembly = "NPUSHB[ ]	/* 47 values pushed */\01224 13 2 1 3 1 1 0 1 0 1 5 0 3 76 4 1 3 3 103 77 2 1 1 1 104 77 0 0 0 5 97 0 5 5 114 5 78 36 24 17 25 19 34 6 12 28 \012CALL[ ]	/* CallFunction */";
};
width = 1555;
}
);
leftKerningGroup = B;
note = Eng;
rightKerningGroup = Ereversed;
unicode = 014A;
},
{
glyphname = Nhookleft;
lastChange = "2024-07-06 19:32:59 +0000";
layers = (
{
layerId = "E952A9EA-CC11-40A5-A77C-9A3014CC01A0";
paths = (
{
closed = 1;
nodes = (
"30 -431 OFFCURVE",
"53 -432 OFFCURVE",
"78 -432 CURVE SMOOTH",
"304 -432 OFFCURVE",
"417 -333.333 OFFCURVE",
"417 -136 CURVE SMOOTH",
"417 0 LINE",
"420 0 OFFCURVE",
"422 52 OFFCURVE",
"422 146 CURVE SMOOTH",
"422 740 LINE SMOOTH",
"422 781.333 OFFCURVE",
"420 839.333 OFFCURVE",
"416 914 CURVE SMOOTH",
"403 1164 LINE",
"436.333 1099.333 OFFCURVE",
"465.667 1043 OFFCURVE",
"491 995 CURVE SMOOTH",
"516.333 947 OFFCURVE",
"540.5 902.667 OFFCURVE",
"563.5 862 CURVE SMOOTH",
"586.5 821.333 OFFCURVE",
"611 780.333 OFFCURVE",
"637 739 CURVE SMOOTH",
"1041 97 LINE SMOOTH",
"1083 30 OFFCURVE",
"1137 0 OFFCURVE",
"1216 0 CURVE SMOOTH",
"1259 0 LINE SMOOTH",
"1354 0 OFFCURVE",
"1405 51 OFFCURVE",
"1405 146 CURVE SMOOTH",
"1405 1344 LINE SMOOTH",
"1405 1439 OFFCURVE",
"1357 1490 OFFCURVE",
"1270 1490 CURVE SMOOTH",
"1182 1490 OFFCURVE",
"1134 1438 OFFCURVE",
"1134 1344 CURVE SMOOTH",
"1134 708 LINE SMOOTH",
"1134 662.667 OFFCURVE",
"1135.333 605 OFFCURVE",
"1138 535 CURVE SMOOTH",
"1140.667 465 OFFCURVE",
"1144.667 394 OFFCURVE",
"1150 322 CURVE",
"1117.333 396.667 OFFCURVE",
"1085.333 462.5 OFFCURVE",
"1054 519.5 CURVE SMOOTH",
"1022.667 576.5 OFFCURVE",
"993.667 626.333 OFFCURVE",
"967 669 CURVE SMOOTH",
"513 1393 LINE SMOOTH",
"471 1461 OFFCURVE",
"417 1490 OFFCURVE",
"338 1490 CURVE SMOOTH",
"296 1490 LINE SMOOTH",
"201 1490 OFFCURVE",
"150 1438 OFFCURVE",
"150 1344 CURVE SMOOTH",
"150 -122 LINE SMOOTH",
"150 -154.667 OFFCURVE",
"140.667 -178.333 OFFCURVE",
"122 -193 CURVE SMOOTH",
"103.333 -207.667 OFFCURVE",
"69 -215 OFFCURVE",
"19 -215 CURVE SMOOTH",
"6 -215 OFFCURVE",
"-7 -214 OFFCURVE",
"-21 -213 CURVE SMOOTH",
"-46 -211 OFFCURVE",
"-60 -247 OFFCURVE",
"-60 -314 CURVE SMOOTH",
"-60 -383 OFFCURVE",
"-37 -425 OFFCURVE",
"8 -429 CURVE SMOOTH"
);
}
);
userData = {
assembly = "NPUSHB[ ]	/* 45 values pushed */\01224 12 2 3 1 1 1 0 3 0 1 4 0 3 76 2 1 1 1 103 77 0 3 3 104 77 0 0 0 4 98 0 4 4 114 4 78 44 17 24 19 34 5 12 27 \012CALL[ ]	/* CallFunction */";
};
width = 1555;
}
);
leftKerningGroup = Fhook;
note = Nhook;
rightKerningGroup = Ereversed;
unicode = 019D;
},
{
glyphname = Nlongrightleg;
lastChange = "2024-07-06 19:32:59 +0000";
layers = (
{
layerId = "E952A9EA-CC11-40A5-A77C-9A3014CC01A0";
paths = (
{
closed = 1;
nodes = (
"1169 -416 OFFCURVE",
"1216 -364 OFFCURVE",
"1216 -270 CURVE SMOOTH",
"1216 1045 LINE SMOOTH",
"1216 1145 OFFCURVE",
"1192.667 1229.5 OFFCURVE",
"1146 1298.5 CURVE SMOOTH",
"1099.333 1367.5 OFFCURVE",
"1037.167 1420 OFFCURVE",
"959.5 1456 CURVE SMOOTH",
"881.833 1492 OFFCURVE",
"797 1510 OFFCURVE",
"705 1510 CURVE SMOOTH",
"649 1510 OFFCURVE",
"595.333 1503.333 OFFCURVE",
"544 1490 CURVE SMOOTH",
"492.667 1476.667 OFFCURVE",
"444.333 1458 OFFCURVE",
"399 1434 CURVE",
"399 1462 LINE SMOOTH",
"399 1480 OFFCURVE",
"352 1490 OFFCURVE",
"266 1490 CURVE SMOOTH",
"180 1490 OFFCURVE",
"132 1439 OFFCURVE",
"132 1344 CURVE SMOOTH",
"132 146 LINE SMOOTH",
"132 51 OFFCURVE",
"179 0 OFFCURVE",
"266 0 CURVE SMOOTH",
"352 0 OFFCURVE",
"399 52 OFFCURVE",
"399 146 CURVE SMOOTH",
"399 1213 LINE",
"485.667 1266.333 OFFCURVE",
"576.667 1293 OFFCURVE",
"672 1293 CURVE SMOOTH",
"758.667 1293 OFFCURVE",
"825.833 1273.167 OFFCURVE",
"873.5 1233.5 CURVE SMOOTH",
"921.167 1193.833 OFFCURVE",
"945 1131 OFFCURVE",
"945 1045 CURVE SMOOTH",
"945 -270 LINE SMOOTH",
"945 -365 OFFCURVE",
"993 -416 OFFCURVE",
"1081 -416 CURVE SMOOTH"
);
}
);
userData = {
assembly = "NPUSHB[ ]	/* 10 values pushed */\01212 1 1 3 7 1 2 1 2 76 \012MPPEM[ ]	/* MeasurePixelPerEm */\012PUSHB[ ]	/* 1 value pushed */\01225 \012LT[ ]	/* LessThan */\012IF[ ]	/* If */\012NPUSHB[ ]	/* 22 values pushed */\0120 1 1 3 97 4 1 3 3 103 77 0 2 2 104 77 0 0 0 108 0 78 \012ELSE[ ]	/* Else */\012NPUSHB[ ]	/* 26 values pushed */\0120 3 3 103 77 0 1 1 4 97 0 4 4 109 77 0 2 2 104 77 0 0 0 108 0 78 \012EIF[ ]	/* EndIf */\012PUSHB[ ]	/* 8 values pushed */\01235 17 18 35 16 5 12 27 \012CALL[ ]	/* CallFunction */";
};
width = 1344;
}
);
note = uni0220;
unicode = 0220;
},
{
glyphname = O;
lastChange = "2024-07-06 19:32:59 +0000";
layers = (
{
layerId = "E952A9EA-CC11-40A5-A77C-9A3014CC01A0";
paths = (
{
closed = 1;
nodes = (
"918 -20 OFFCURVE",
"1034.5 10.333 OFFCURVE",
"1137.5 71 CURVE SMOOTH",
"1240.5 131.667 OFFCURVE",
"1321.833 218.833 OFFCURVE",
"1381.5 332.5 CURVE SMOOTH",
"1441.167 446.167 OFFCURVE",
"1471 583.333 OFFCURVE",
"1471 744 CURVE SMOOTH",
"1471 904.667 OFFCURVE",
"1441.167 1042.167 OFFCURVE",
"1381.5 1156.5 CURVE SMOOTH",
"1321.833 1270.833 OFFCURVE",
"1240.5 1358.333 OFFCURVE",
"1137.5 1419 CURVE SMOOTH",
"1034.5 1479.667 OFFCURVE",
"918 1510 OFFCURVE",
"788 1510 CURVE SMOOTH",
"657.333 1510 OFFCURVE",
"540.5 1479.667 OFFCURVE",
"437.5 1419 CURVE SMOOTH",
"334.5 1358.333 OFFCURVE",
"253 1270.833 OFFCURVE",
"193 1156.5 CURVE SMOOTH",
"133 1042.167 OFFCURVE",
"103 904.667 OFFCURVE",
"103 744 CURVE SMOOTH",
"103 584 OFFCURVE",
"133 447 OFFCURVE",
"193 333 CURVE SMOOTH",
"253 219 OFFCURVE",
"334.5 131.667 OFFCURVE",
"437.5 71 CURVE SMOOTH",
"540.5 10.333 OFFCURVE",
"657.333 -20 OFFCURVE",
"788 -20 CURVE SMOOTH"
);
},
{
closed = 1;
nodes = (
"666 219 OFFCURVE",
"566 264.167 OFFCURVE",
"488 354.5 CURVE SMOOTH",
"410 444.833 OFFCURVE",
"371 574.667 OFFCURVE",
"371 744 CURVE SMOOTH",
"371 914.667 OFFCURVE",
"410 1045.167 OFFCURVE",
"488 1135.5 CURVE SMOOTH",
"566 1225.833 OFFCURVE",
"666 1271 OFFCURVE",
"788 1271 CURVE SMOOTH",
"909.333 1271 OFFCURVE",
"1008.667 1225.833 OFFCURVE",
"1086 1135.5 CURVE SMOOTH",
"1163.333 1045.167 OFFCURVE",
"1202 914.667 OFFCURVE",
"1202 744 CURVE SMOOTH",
"1202 574 OFFCURVE",
"1163.333 444 OFFCURVE",
"1086 354 CURVE SMOOTH",
"1008.667 264 OFFCURVE",
"909.333 219 OFFCURVE",
"788 219 CURVE SMOOTH"
);
}
);
userData = {
assembly = "NPUSHB[ ]	/* 42 values pushed */\0120 3 3 1 97 0 1 1 109 77 5 1 2 2 0 97 4 1 0 0 110 0 78 17 16 1 0 23 21 16 27 17 27 9 7 0 15 1 15 6 12 22 \012CALL[ ]	/* CallFunction */";
};
width = 1574;
}
);
leftKerningGroup = C;
note = O;
rightKerningGroup = Oopen;
unicode = 004F;
},
{
glyphname = OU;
lastChange = "2024-07-06 19:32:59 +0000";
layers = (
{
layerId = "E952A9EA-CC11-40A5-A77C-9A3014CC01A0";
paths = (
{
closed = 1;
nodes = (
"601 936 OFFCURVE",
"553.167 940.333 OFFCURVE",
"511.5 949 CURVE SMOOTH",
"469.833 957.667 OFFCURVE",
"437 975.333 OFFCURVE",
"413 1002 CURVE SMOOTH",
"389 1028.667 OFFCURVE",
"377 1068.667 OFFCURVE",
"377 1122 CURVE SMOOTH",
"377 1172 OFFCURVE",
"388.667 1210.667 OFFCURVE",
"412 1238 CURVE SMOOTH",
"425 1253 OFFCURVE",
"441 1265 OFFCURVE",
"462 1275 CURVE SMOOTH",
"501 1295 OFFCURVE",
"522 1330 OFFCURVE",
"522 1403 CURVE SMOOTH",
"522 1471 OFFCURVE",
"462 1516 OFFCURVE",
"366 1488 CURVE SMOOTH",
"309 1471 OFFCURVE",
"258 1444 OFFCURVE",
"214.5 1408.5 CURVE SMOOTH",
"135.5 1343.5 OFFCURVE",
"96 1248 OFFCURVE",
"96 1122 CURVE SMOOTH",
"96 1046 OFFCURVE",
"112 982.5 OFFCURVE",
"144 931.5 CURVE SMOOTH",
"176 880.5 OFFCURVE",
"220.333 840 OFFCURVE",
"277 810 CURVE",
"219.667 771.333 OFFCURVE",
"175.167 722.167 OFFCURVE",
"143.5 662.5 CURVE SMOOTH",
"111.833 602.833 OFFCURVE",
"96 533 OFFCURVE",
"96 453 CURVE SMOOTH",
"96 351 OFFCURVE",
"120.333 264.833 OFFCURVE",
"169 194.5 CURVE SMOOTH",
"217.667 124.167 OFFCURVE",
"284.5 70.833 OFFCURVE",
"369.5 34.5 CURVE SMOOTH",
"454.5 -1.833 OFFCURVE",
"551.667 -20 OFFCURVE",
"661 -20 CURVE SMOOTH",
"684 -20 LINE SMOOTH",
"792.667 -20 OFFCURVE",
"889.333 -1.833 OFFCURVE",
"974 34.5 CURVE SMOOTH",
"1058.667 70.833 OFFCURVE",
"1125.167 124.333 OFFCURVE",
"1173.5 195 CURVE SMOOTH",
"1221.833 265.667 OFFCURVE",
"1246 352.333 OFFCURVE",
"1246 455 CURVE SMOOTH",
"1246 534.333 OFFCURVE",
"1230.167 603.833 OFFCURVE",
"1198.5 663.5 CURVE SMOOTH",
"1166.833 723.167 OFFCURVE",
"1122.667 772 OFFCURVE",
"1066 810 CURVE",
"1122.667 840 OFFCURVE",
"1167.333 880.667 OFFCURVE",
"1200 932 CURVE SMOOTH",
"1232.667 983.333 OFFCURVE",
"1249 1046.667 OFFCURVE",
"1249 1122 CURVE SMOOTH",
"1249 1248 OFFCURVE",
"1209.333 1343.5 OFFCURVE",
"1130 1408.5 CURVE SMOOTH",
"1086 1444 OFFCURVE",
"1036 1471 OFFCURVE",
"978 1488 CURVE SMOOTH",
"882 1516 OFFCURVE",
"822 1471 OFFCURVE",
"822 1403 CURVE SMOOTH",
"822 1330 OFFCURVE",
"869 1301 OFFCURVE",
"927 1243 CURVE SMOOTH",
"929 1242 OFFCURVE",
"930 1240 OFFCURVE",
"931.5 1238.5 CURVE SMOOTH",
"955.833 1211.5 OFFCURVE",
"968 1172.667 OFFCURVE",
"968 1122 CURVE SMOOTH",
"968 1069.333 OFFCURVE",
"956 1029.667 OFFCURVE",
"932 1003 CURVE SMOOTH",
"908 976.333 OFFCURVE",
"874.833 958.5 OFFCURVE",
"832.5 949.5 CURVE SMOOTH",
"790.167 940.5 OFFCURVE",
"742 936 OFFCURVE",
"688 936 CURVE SMOOTH",
"655 936 LINE SMOOTH"
);
},
{
closed = 1;
nodes = (
"768.667 708 OFFCURVE",
"836.833 686.667 OFFCURVE",
"888.5 644 CURVE SMOOTH",
"940.167 601.333 OFFCURVE",
"966 538.333 OFFCURVE",
"966 455 CURVE SMOOTH",
"966 369.667 OFFCURVE",
"940.333 306.5 OFFCURVE",
"889 265.5 CURVE SMOOTH",
"837.667 224.5 OFFCURVE",
"769.333 204 OFFCURVE",
"684 204 CURVE SMOOTH",
"661 204 LINE SMOOTH",
"575 204 OFFCURVE",
"506.167 224.667 OFFCURVE",
"454.5 266 CURVE SMOOTH",
"402.833 307.333 OFFCURVE",
"377 369.667 OFFCURVE",
"377 453 CURVE SMOOTH",
"377 537 OFFCURVE",
"402.833 600.5 OFFCURVE",
"454.5 643.5 CURVE SMOOTH",
"506.167 686.5 OFFCURVE",
"575 708 OFFCURVE",
"661 708 CURVE SMOOTH",
"684 708 LINE SMOOTH"
);
}
);
userData = {
assembly = "NPUSHB[ ]	/* 62 values pushed */\01237 8 2 0 1 30 15 2 4 0 2 76 6 1 0 7 1 4 5 0 4 105 3 1 1 1 109 77 0 5 5 2 98 0 2 2 110 2 78 46 44 2 0 53 50 44 57 46 57 36 35 24 21 10 9 0 43 2 43 8 12 22 \012CALL[ ]	/* CallFunction */";
};
width = 1343;
}
);
note = uni0222;
unicode = 0222;
},
{
glyphname = Ohorn;
lastChange = "2024-07-06 19:32:59 +0000";
layers = (
{
layerId = "E952A9EA-CC11-40A5-A77C-9A3014CC01A0";
paths = (
{
closed = 1;
nodes = (
"918 -20 OFFCURVE",
"1034.5 10.333 OFFCURVE",
"1137.5 71 CURVE SMOOTH",
"1240.5 131.667 OFFCURVE",
"1321.833 218.833 OFFCURVE",
"1381.5 332.5 CURVE SMOOTH",
"1441.167 446.167 OFFCURVE",
"1471 583.333 OFFCURVE",
"1471 744 CURVE SMOOTH",
"1471 867.333 OFFCURVE",
"1452.833 977.333 OFFCURVE",
"1416.5 1074 CURVE SMOOTH",
"1380.167 1170.667 OFFCURVE",
"1330 1251.667 OFFCURVE",
"1266 1317 CURVE",
"1272 1317 LINE SMOOTH",
"1334.667 1317 OFFCURVE",
"1384 1332 OFFCURVE",
"1420 1362 CURVE SMOOTH",
"1456 1392 OFFCURVE",
"1474 1440.333 OFFCURVE",
"1474 1507 CURVE SMOOTH",
"1474 1552 LINE SMOOTH",
"1474 1647 OFFCURVE",
"1433 1698 OFFCURVE",
"1357 1698 CURVE SMOOTH",
"1281 1698 OFFCURVE",
"1240 1646 OFFCURVE",
"1240 1552 CURVE SMOOTH",
"1240 1513 LINE SMOOTH",
"1240 1497.667 OFFCURVE",
"1232.333 1490 OFFCURVE",
"1217 1490 CURVE SMOOTH",
"1147 1490 OFFCURVE",
"1091.833 1491 OFFCURVE",
"1051.5 1493 CURVE SMOOTH",
"1011.167 1495 OFFCURVE",
"978.333 1497.333 OFFCURVE",
"953 1500 CURVE SMOOTH",
"880 1507 LINE SMOOTH",
"856.667 1509 OFFCURVE",
"827.333 1510 OFFCURVE",
"792 1510 CURVE SMOOTH",
"792 1510 LINE",
"788 1510 LINE SMOOTH",
"657.333 1510 OFFCURVE",
"540.5 1479.667 OFFCURVE",
"437.5 1419 CURVE SMOOTH",
"334.5 1358.333 OFFCURVE",
"253 1270.833 OFFCURVE",
"193 1156.5 CURVE SMOOTH",
"133 1042.167 OFFCURVE",
"103 904.667 OFFCURVE",
"103 744 CURVE SMOOTH",
"103 584 OFFCURVE",
"133 447 OFFCURVE",
"193 333 CURVE SMOOTH",
"253 219 OFFCURVE",
"334.5 131.667 OFFCURVE",
"437.5 71 CURVE SMOOTH",
"540.5 10.333 OFFCURVE",
"657.333 -20 OFFCURVE",
"788 -20 CURVE SMOOTH"
);
},
{
closed = 1;
nodes = (
"666 219 OFFCURVE",
"566 264.167 OFFCURVE",
"488 354.5 CURVE SMOOTH",
"410 444.833 OFFCURVE",
"371 574.667 OFFCURVE",
"371 744 CURVE SMOOTH",
"371 914.667 OFFCURVE",
"410 1045.167 OFFCURVE",
"488 1135.5 CURVE SMOOTH",
"566 1225.833 OFFCURVE",
"666 1271 OFFCURVE",
"788 1271 CURVE SMOOTH",
"909.333 1271 OFFCURVE",
"1008.667 1225.833 OFFCURVE",
"1086 1135.5 CURVE SMOOTH",
"1163.333 1045.167 OFFCURVE",
"1202 914.667 OFFCURVE",
"1202 744 CURVE SMOOTH",
"1202 574 OFFCURVE",
"1163.333 444 OFFCURVE",
"1086 354 CURVE SMOOTH",
"1008.667 264 OFFCURVE",
"909.333 219 OFFCURVE",
"788 219 CURVE SMOOTH"
);
}
);
userData = {
assembly = "MPPEM[ ]	/* MeasurePixelPerEm */\012PUSHB[ ]	/* 1 value pushed */\01230 \012LT[ ]	/* LessThan */\012IF[ ]	/* If */\012NPUSHB[ ]	/* 32 values pushed */\0120 3 0 4 6 3 4 105 0 6 6 1 97 2 1 1 1 109 77 8 1 5 5 0 97 7 1 0 0 110 0 78 \012ELSE[ ]	/* Else */\012NPUSHB[ ]	/* 36 values pushed */\0120 3 0 4 6 3 4 105 0 2 2 103 77 0 6 6 1 97 0 1 1 109 77 8 1 5 5 0 97 7 1 0 0 110 0 78 \012EIF[ ]	/* EndIf */\012NPUSHB[ ]	/* 25 values pushed */\01234 33 1 0 40 38 33 44 34 44 24 23 20 19 17 14 12 7 0 32 1 32 9 12 22 \012CALL[ ]	/* CallFunction */";
};
width = 1584;
}
);
leftKerningGroup = C;
note = Ohorn;
rightKerningGroup = Ohorn;
unicode = 01A0;
},
{
glyphname = Oi;
lastChange = "2024-07-06 19:32:59 +0000";
layers = (
{
layerId = "E952A9EA-CC11-40A5-A77C-9A3014CC01A0";
paths = (
{
closed = 1;
nodes = (
"1716 1344 LINE SMOOTH",
"1716 1439 OFFCURVE",
"1677 1490 OFFCURVE",
"1606 1490 CURVE SMOOTH",
"1538 1490 OFFCURVE",
"1488 1480 OFFCURVE",
"1426 1452 CURVE SMOOTH",
"1233 1366 LINE",
"1182.333 1407.333 OFFCURVE",
"1117.167 1441.667 OFFCURVE",
"1037.5 1469 CURVE SMOOTH",
"957.833 1496.333 OFFCURVE",
"869.333 1510 OFFCURVE",
"772 1510 CURVE SMOOTH",
"564 1510 OFFCURVE",
"401.667 1448.167 OFFCURVE",
"285 1324.5 CURVE SMOOTH",
"168.333 1200.833 OFFCURVE",
"110 1028.333 OFFCURVE",
"110 807 CURVE SMOOTH",
"110 683 LINE SMOOTH",
"110 537.667 OFFCURVE",
"135.833 412.333 OFFCURVE",
"187.5 307 CURVE SMOOTH",
"239.167 201.667 OFFCURVE",
"313.5 120.833 OFFCURVE",
"410.5 64.5 CURVE SMOOTH",
"507.5 8.167 OFFCURVE",
"624.333 -20 OFFCURVE",
"761 -20 CURVE SMOOTH",
"885 -20 OFFCURVE",
"994.667 0.5 OFFCURVE",
"1090 41.5 CURVE SMOOTH",
"1143 64 OFFCURVE",
"1188 90 OFFCURVE",
"1225 118 CURVE SMOOTH",
"1284 164 OFFCURVE",
"1298 220 OFFCURVE",
"1298 293 CURVE SMOOTH",
"1298 1121 LINE",
"1449 1185 LINE",
"1449 -272 LINE SMOOTH",
"1449 -367 OFFCURVE",
"1496 -418 OFFCURVE",
"1583 -418 CURVE SMOOTH",
"1669 -418 OFFCURVE",
"1716 -366 OFFCURVE",
"1716 -272 CURVE SMOOTH"
);
},
{
closed = 1;
nodes = (
"391 807 LINE SMOOTH",
"391 962.333 OFFCURVE",
"421.333 1081 OFFCURVE",
"482 1163 CURVE SMOOTH",
"542.667 1245 OFFCURVE",
"641 1286 OFFCURVE",
"777 1286 CURVE SMOOTH",
"827 1286 OFFCURVE",
"875 1279 OFFCURVE",
"921 1265 CURVE SMOOTH",
"967 1251 OFFCURVE",
"1003.333 1230.333 OFFCURVE",
"1030 1203 CURVE",
"1030 285 LINE",
"1004 259.667 OFFCURVE",
"968.667 239.5 OFFCURVE",
"924 224.5 CURVE SMOOTH",
"879.333 209.5 OFFCURVE",
"829.333 202 OFFCURVE",
"774 202 CURVE SMOOTH",
"640 202 OFFCURVE",
"542.833 244.833 OFFCURVE",
"482.5 330.5 CURVE SMOOTH",
"422.167 416.167 OFFCURVE",
"391.667 533.667 OFFCURVE",
"391 683 CURVE"
);
}
);
userData = {
assembly = "MPPEM[ ]	/* MeasurePixelPerEm */\012PUSHB[ ]	/* 1 value pushed */\01225 \012LT[ ]	/* LessThan */\012IF[ ]	/* If */\012NPUSHB[ ]	/* 17 values pushed */\01219 1 5 2 29 28 4 3 4 4 5 5 1 1 4 3 76 \012ELSE[ ]	/* Else */\012NPUSHB[ ]	/* 17 values pushed */\01219 1 5 3 29 28 4 3 4 4 5 5 1 1 4 3 76 \012EIF[ ]	/* EndIf */\012MPPEM[ ]	/* MeasurePixelPerEm */\012PUSHB[ ]	/* 1 value pushed */\01225 \012LT[ ]	/* LessThan */\012IF[ ]	/* If */\012NPUSHB[ ]	/* 28 values pushed */\0120 5 5 2 97 6 3 2 2 2 109 77 0 4 4 1 97 0 1 1 110 77 0 0 0 108 0 78 \012ELSE[ ]	/* Else */\012NPUSHB[ ]	/* 32 values pushed */\0126 1 3 3 103 77 0 5 5 2 97 0 2 2 109 77 0 4 4 1 97 0 1 1 110 77 0 0 0 108 0 78 \012EIF[ ]	/* EndIf */\012NPUSHB[ ]	/* 16 values pushed */\0120 0 33 31 26 24 0 20 0 20 38 37 17 7 12 25 \012CALL[ ]	/* CallFunction */";
};
width = 1865;
}
);
note = OI;
unicode = 01A2;
},
{
glyphname = Oopen;
lastChange = "2024-07-06 19:32:59 +0000";
layers = (
{
layerId = "E952A9EA-CC11-40A5-A77C-9A3014CC01A0";
paths = (
{
closed = 1;
nodes = (
"606.667 1510 OFFCURVE",
"503.167 1486.833 OFFCURVE",
"413.5 1440.5 CURVE SMOOTH",
"323.833 1394.167 OFFCURVE",
"251.667 1332 OFFCURVE",
"197 1254 CURVE SMOOTH",
"170 1215 OFFCURVE",
"147 1174 OFFCURVE",
"130 1130 CURVE SMOOTH",
"99 1048 OFFCURVE",
"151 994 OFFCURVE",
"240 994 CURVE SMOOTH",
"324 994 OFFCURVE",
"364 1035 OFFCURVE",
"407 1110 CURVE SMOOTH",
"428 1145 OFFCURVE",
"455 1174 OFFCURVE",
"488.5 1198.5 CURVE SMOOTH",
"554.167 1246.833 OFFCURVE",
"631.333 1271 OFFCURVE",
"720 1271 CURVE SMOOTH",
"841.333 1271 OFFCURVE",
"941.167 1226.333 OFFCURVE",
"1019.5 1137 CURVE SMOOTH",
"1097.833 1047.667 OFFCURVE",
"1137 917.333 OFFCURVE",
"1137 746 CURVE SMOOTH",
"1137 576.667 OFFCURVE",
"1098 446.5 OFFCURVE",
"1020 355.5 CURVE SMOOTH",
"942 264.5 OFFCURVE",
"841.667 219 OFFCURVE",
"719 219 CURVE SMOOTH",
"630.333 219 OFFCURVE",
"553.167 243.167 OFFCURVE",
"487.5 291.5 CURVE SMOOTH",
"454 316 OFFCURVE",
"427 346 OFFCURVE",
"406 381 CURVE SMOOTH",
"364 455 OFFCURVE",
"324 496 OFFCURVE",
"240 496 CURVE SMOOTH",
"231 496 LINE SMOOTH",
"148 496 OFFCURVE",
"99 431 OFFCURVE",
"140 333 CURVE SMOOTH",
"157 291 OFFCURVE",
"180 253 OFFCURVE",
"206 217.5 CURVE SMOOTH",
"264 140.5 OFFCURVE",
"337.5 81.667 OFFCURVE",
"426.5 41 CURVE SMOOTH",
"515.5 0.333 OFFCURVE",
"614.667 -20 OFFCURVE",
"724 -20 CURVE SMOOTH",
"853.333 -20 OFFCURVE",
"969.5 10.333 OFFCURVE",
"1072.5 71 CURVE SMOOTH",
"1175.5 131.667 OFFCURVE",
"1256.667 219.167 OFFCURVE",
"1316 333.5 CURVE SMOOTH",
"1375.333 447.833 OFFCURVE",
"1405 585.333 OFFCURVE",
"1405 746 CURVE SMOOTH",
"1405 906 OFFCURVE",
"1375.5 1043 OFFCURVE",
"1316.5 1157 CURVE SMOOTH",
"1257.5 1271 OFFCURVE",
"1176.667 1358.333 OFFCURVE",
"1074 1419 CURVE SMOOTH",
"971.333 1479.667 OFFCURVE",
"854.667 1510 OFFCURVE",
"724 1510 CURVE SMOOTH"
);
}
);
userData = {
assembly = "NPUSHB[ ]	/* 56 values pushed */\0120 5 4 2 4 5 2 128 0 2 3 4 2 3 126 0 4 4 0 97 6 1 0 0 109 77 0 3 3 1 97 0 1 1 110 1 78 1 0 26 25 23 21 17 15 13 12 9 7 0 29 1 29 7 12 22 \012CALL[ ]	/* CallFunction */";
};
width = 1509;
}
);
leftKerningGroup = C;
note = uni0186;
rightKerningGroup = Oopen;
unicode = 0186;
},
{
glyphname = OE;
lastChange = "2024-07-06 19:32:59 +0000";
layers = (
{
layerId = "E952A9EA-CC11-40A5-A77C-9A3014CC01A0";
paths = (
{
closed = 1;
nodes = (
"1812 0 LINE SMOOTH",
"1907 0 OFFCURVE",
"1958 40 OFFCURVE",
"1958 113 CURVE SMOOTH",
"1958 186 OFFCURVE",
"1906 225 OFFCURVE",
"1812 225 CURVE SMOOTH",
"1253 225 LINE",
"1253 641 LINE",
"1756 641 LINE SMOOTH",
"1851 641 OFFCURVE",
"1902 680 OFFCURVE",
"1902 752 CURVE SMOOTH",
"1902 824 OFFCURVE",
"1850 863 OFFCURVE",
"1756 863 CURVE SMOOTH",
"1253 863 LINE",
"1253 1265 LINE",
"1808 1265 LINE SMOOTH",
"1903 1265 OFFCURVE",
"1954 1305 OFFCURVE",
"1954 1378 CURVE SMOOTH",
"1954 1451 OFFCURVE",
"1902 1490 OFFCURVE",
"1808 1490 CURVE SMOOTH",
"800 1490 LINE SMOOTH",
"661.333 1490 OFFCURVE",
"539.667 1459.5 OFFCURVE",
"435 1398.5 CURVE SMOOTH",
"330.333 1337.5 OFFCURVE",
"248.833 1251.167 OFFCURVE",
"190.5 1139.5 CURVE SMOOTH",
"132.167 1027.833 OFFCURVE",
"103 896 OFFCURVE",
"103 744 CURVE SMOOTH",
"103 593.333 OFFCURVE",
"132.167 462.333 OFFCURVE",
"190.5 351 CURVE SMOOTH",
"248.833 239.667 OFFCURVE",
"330.167 153.333 OFFCURVE",
"434.5 92 CURVE SMOOTH",
"538.833 30.667 OFFCURVE",
"660 0 OFFCURVE",
"798 0 CURVE SMOOTH"
);
},
{
closed = 1;
nodes = (
"986 231 LINE",
"804 231 LINE SMOOTH",
"671.333 231 OFFCURVE",
"565.5 274.667 OFFCURVE",
"486.5 362 CURVE SMOOTH",
"407.5 449.333 OFFCURVE",
"368 576.667 OFFCURVE",
"368 744 CURVE SMOOTH",
"368 913.333 OFFCURVE",
"407.667 1041.5 OFFCURVE",
"487 1128.5 CURVE SMOOTH",
"566.333 1215.5 OFFCURVE",
"673.333 1259 OFFCURVE",
"808 1259 CURVE SMOOTH",
"986 1259 LINE"
);
}
);
userData = {
assembly = "NPUSHB[ ]	/* 60 values pushed */\0120 3 0 4 5 3 4 103 6 1 2 2 1 95 0 1 1 103 77 9 7 2 5 5 0 95 8 1 0 0 104 0 78 19 19 1 0 19 27 19 26 22 20 17 16 15 14 13 12 11 10 9 7 0 18 1 18 10 12 22 \012CALL[ ]	/* CallFunction */";
};
width = 2076;
}
);
leftKerningGroup = C;
note = OE;
rightKerningGroup = AE;
unicode = 0152;
},
{
glyphname = P;
lastChange = "2024-07-06 19:32:59 +0000";
layers = (
{
layerId = "E952A9EA-CC11-40A5-A77C-9A3014CC01A0";
paths = (
{
closed = 1;
nodes = (
"150 146 LINE SMOOTH",
"150 51 OFFCURVE",
"197 0 OFFCURVE",
"284 0 CURVE SMOOTH",
"370 0 OFFCURVE",
"417 52 OFFCURVE",
"417 146 CURVE SMOOTH",
"417 504 LINE",
"703 504 LINE SMOOTH",
"817.667 504 OFFCURVE",
"914.333 525.167 OFFCURVE",
"993 567.5 CURVE SMOOTH",
"1071.667 609.833 OFFCURVE",
"1131.167 668.167 OFFCURVE",
"1171.5 742.5 CURVE SMOOTH",
"1211.833 816.833 OFFCURVE",
"1232 901.667 OFFCURVE",
"1232 997 CURVE SMOOTH",
"1232 1091.667 OFFCURVE",
"1212 1176.167 OFFCURVE",
"1172 1250.5 CURVE SMOOTH",
"1132 1324.833 OFFCURVE",
"1073 1383.333 OFFCURVE",
"995 1426 CURVE SMOOTH",
"917 1468.667 OFFCURVE",
"821 1490 OFFCURVE",
"707 1490 CURVE SMOOTH",
"296 1490 LINE SMOOTH",
"201 1490 OFFCURVE",
"150 1439 OFFCURVE",
"150 1344 CURVE SMOOTH"
);
},
{
closed = 1;
nodes = (
"417 724 LINE",
"417 1266 LINE",
"666 1266 LINE SMOOTH",
"768 1266 OFFCURVE",
"842.333 1241 OFFCURVE",
"889 1191 CURVE SMOOTH",
"935.667 1141 OFFCURVE",
"959 1076.333 OFFCURVE",
"959 997 CURVE SMOOTH",
"959 917.667 OFFCURVE",
"935.667 852.333 OFFCURVE",
"889 801 CURVE SMOOTH",
"842.333 749.667 OFFCURVE",
"768.667 724 OFFCURVE",
"668 724 CURVE SMOOTH"
);
}
);
userData = {
assembly = "NPUSHB[ ]	/* 40 values pushed */\0120 3 0 1 2 3 1 103 0 4 4 0 95 0 0 0 103 77 5 1 2 2 104 2 78 0 0 21 19 15 13 0 12 0 12 38 33 6 12 24 \012CALL[ ]	/* CallFunction */";
};
width = 1321;
}
);
leftKerningGroup = B;
note = P;
rightKerningGroup = P;
unicode = 0050;
},
{
glyphname = Phook;
lastChange = "2024-07-06 19:32:59 +0000";
layers = (
{
layerId = "E952A9EA-CC11-40A5-A77C-9A3014CC01A0";
paths = (
{
closed = 1;
nodes = (
"54 1108 OFFCURVE",
"97 1082 OFFCURVE",
"175 1082 CURVE SMOOTH",
"253 1082 OFFCURVE",
"295 1102 OFFCURVE",
"295 1138 CURVE SMOOTH",
"295 1223.333 OFFCURVE",
"340 1266 OFFCURVE",
"430 1266 CURVE SMOOTH",
"502 1266 LINE",
"502 146 LINE SMOOTH",
"502 51 OFFCURVE",
"549 0 OFFCURVE",
"636 0 CURVE SMOOTH",
"722 0 OFFCURVE",
"769 52 OFFCURVE",
"769 146 CURVE SMOOTH",
"769 504 LINE",
"1055 504 LINE SMOOTH",
"1169.667 504 OFFCURVE",
"1266.333 525.167 OFFCURVE",
"1345 567.5 CURVE SMOOTH",
"1423.667 609.833 OFFCURVE",
"1483.167 668.167 OFFCURVE",
"1523.5 742.5 CURVE SMOOTH",
"1563.833 816.833 OFFCURVE",
"1584 901.667 OFFCURVE",
"1584 997 CURVE SMOOTH",
"1584 1091.667 OFFCURVE",
"1564 1176.167 OFFCURVE",
"1524 1250.5 CURVE SMOOTH",
"1484 1324.833 OFFCURVE",
"1425 1383.333 OFFCURVE",
"1347 1426 CURVE SMOOTH",
"1269 1468.667 OFFCURVE",
"1173 1490 OFFCURVE",
"1059 1490 CURVE SMOOTH",
"435 1490 LINE SMOOTH",
"305 1490 OFFCURVE",
"209 1462.667 OFFCURVE",
"147 1408 CURVE SMOOTH",
"85 1353.333 OFFCURVE",
"54 1269 OFFCURVE",
"54 1155 CURVE SMOOTH"
);
},
{
closed = 1;
nodes = (
"769 724 LINE",
"769 1266 LINE",
"1018 1266 LINE SMOOTH",
"1120 1266 OFFCURVE",
"1194.333 1241 OFFCURVE",
"1241 1191 CURVE SMOOTH",
"1287.667 1141 OFFCURVE",
"1311 1076.333 OFFCURVE",
"1311 997 CURVE SMOOTH",
"1311 917.667 OFFCURVE",
"1287.667 852.333 OFFCURVE",
"1241 801 CURVE SMOOTH",
"1194.333 749.667 OFFCURVE",
"1120.667 724 OFFCURVE",
"1020 724 CURVE SMOOTH"
);
}
);
userData = {
assembly = "MPPEM[ ]	/* MeasurePixelPerEm */\012PUSHB[ ]	/* 1 value pushed */\01213 \012LT[ ]	/* LessThan */\012IF[ ]	/* If */\012NPUSHB[ ]	/* 33 values pushed */\0127 1 4 3 5 3 4 114 0 5 0 1 2 5 1 103 6 1 3 3 0 95 0 0 0 103 77 0 2 2 104 2 78 \012ELSE[ ]	/* Else */\012NPUSHB[ ]	/* 34 values pushed */\0127 1 4 3 5 3 4 5 128 0 5 0 1 2 5 1 103 6 1 3 3 0 95 0 0 0 103 77 0 2 2 104 2 78 \012EIF[ ]	/* EndIf */\012NPUSHB[ ]	/* 17 values pushed */\0120 0 30 28 24 22 0 21 0 21 33 17 38 51 8 12 26 \012CALL[ ]	/* CallFunction */";
};
width = 1673;
}
);
leftKerningGroup = B;
note = uni01A4;
rightKerningGroup = P;
unicode = 01A4;
},
{
glyphname = Thorn;
lastChange = "2024-07-06 19:32:59 +0000";
layers = (
{
layerId = "E952A9EA-CC11-40A5-A77C-9A3014CC01A0";
paths = (
{
closed = 1;
nodes = (
"190 1490 OFFCURVE",
"143 1439 OFFCURVE",
"143 1344 CURVE SMOOTH",
"143 146 LINE SMOOTH",
"143 51 OFFCURVE",
"191 0 OFFCURVE",
"278 0 CURVE SMOOTH",
"365 0 OFFCURVE",
"412 52 OFFCURVE",
"412 146 CURVE SMOOTH",
"412 314 LINE",
"654 314 LINE SMOOTH",
"768.667 314 OFFCURVE",
"865.667 333.5 OFFCURVE",
"945 372.5 CURVE SMOOTH",
"1024.333 411.5 OFFCURVE",
"1084.5 464.5 OFFCURVE",
"1125.5 531.5 CURVE SMOOTH",
"1166.5 598.5 OFFCURVE",
"1187 674.333 OFFCURVE",
"1187 759 CURVE SMOOTH",
"1187 843 OFFCURVE",
"1166.5 918.5 OFFCURVE",
"1125.5 985.5 CURVE SMOOTH",
"1084.5 1052.5 OFFCURVE",
"1024.333 1105.667 OFFCURVE",
"945 1145 CURVE SMOOTH",
"865.667 1184.333 OFFCURVE",
"768.667 1204 OFFCURVE",
"654 1204 CURVE SMOOTH",
"412 1205 LINE",
"412 1348 LINE SMOOTH",
"412 1440 OFFCURVE",
"365 1490 OFFCURVE",
"278 1490 CURVE SMOOTH"
);
},
{
closed = 1;
nodes = (
"412 527 LINE",
"412 990 LINE",
"654 990 LINE SMOOTH",
"748.667 990 OFFCURVE",
"818.833 967.667 OFFCURVE",
"864.5 923 CURVE SMOOTH",
"910.167 878.333 OFFCURVE",
"933 822.333 OFFCURVE",
"933 755 CURVE SMOOTH",
"933 688.333 OFFCURVE",
"910.167 633.667 OFFCURVE",
"864.5 591 CURVE SMOOTH",
"818.833 548.333 OFFCURVE",
"748.667 527 OFFCURVE",
"654 527 CURVE SMOOTH"
);
}
);
userData = {
assembly = "NPUSHB[ ]	/* 36 values pushed */\0120 1 0 5 4 1 5 103 0 4 0 2 3 4 2 103 0 0 0 103 77 0 3 3 104 3 78 36 33 17 38 33 16 6 12 28 \012CALL[ ]	/* CallFunction */";
};
width = 1347;
}
);
leftKerningGroup = B;
note = Thorn;
unicode = 00DE;
},
{
glyphname = Q;
lastChange = "2024-07-06 19:32:59 +0000";
layers = (
{
layerId = "E952A9EA-CC11-40A5-A77C-9A3014CC01A0";
paths = (
{
closed = 1;
nodes = (
"884 -20 OFFCURVE",
"973 -3.333 OFFCURVE",
"1055 30 CURVE",
"1118 -50 LINE SMOOTH",
"1162 -106 OFFCURVE",
"1213 -129 OFFCURVE",
"1290 -129 CURVE SMOOTH",
"1308 -129 LINE SMOOTH",
"1378 -129 OFFCURVE",
"1373 -48 OFFCURVE",
"1297 49 CURVE SMOOTH",
"1229 137 LINE",
"1303.667 201.667 OFFCURVE",
"1362.667 285.333 OFFCURVE",
"1406 388 CURVE SMOOTH",
"1449.333 490.667 OFFCURVE",
"1471 609.333 OFFCURVE",
"1471 744 CURVE SMOOTH",
"1471 904.667 OFFCURVE",
"1441.167 1042.167 OFFCURVE",
"1381.5 1156.5 CURVE SMOOTH",
"1321.833 1270.833 OFFCURVE",
"1240.5 1358.333 OFFCURVE",
"1137.5 1419 CURVE SMOOTH",
"1034.5 1479.667 OFFCURVE",
"918 1510 OFFCURVE",
"788 1510 CURVE SMOOTH",
"657.333 1510 OFFCURVE",
"540.5 1479.667 OFFCURVE",
"437.5 1419 CURVE SMOOTH",
"334.5 1358.333 OFFCURVE",
"253 1270.833 OFFCURVE",
"193 1156.5 CURVE SMOOTH",
"133 1042.167 OFFCURVE",
"103 904.667 OFFCURVE",
"103 744 CURVE SMOOTH",
"103 584 OFFCURVE",
"133 447 OFFCURVE",
"193 333 CURVE SMOOTH",
"253 219 OFFCURVE",
"334.5 131.667 OFFCURVE",
"437.5 71 CURVE SMOOTH",
"540.5 10.333 OFFCURVE",
"657.333 -20 OFFCURVE",
"788 -20 CURVE SMOOTH"
);
},
{
closed = 1;
nodes = (
"762 497 OFFCURVE",
"765 417 OFFCURVE",
"839 319 CURVE SMOOTH",
"903 235 LINE",
"867 224.333 OFFCURVE",
"828.667 219 OFFCURVE",
"788 219 CURVE SMOOTH",
"666 219 OFFCURVE",
"566 264.167 OFFCURVE",
"488 354.5 CURVE SMOOTH",
"410 444.833 OFFCURVE",
"371 574.667 OFFCURVE",
"371 744 CURVE SMOOTH",
"371 914.667 OFFCURVE",
"410 1045.167 OFFCURVE",
"488 1135.5 CURVE SMOOTH",
"566 1225.833 OFFCURVE",
"666 1271 OFFCURVE",
"788 1271 CURVE SMOOTH",
"909.333 1271 OFFCURVE",
"1008.667 1225.833 OFFCURVE",
"1086 1135.5 CURVE SMOOTH",
"1163.333 1045.167 OFFCURVE",
"1202 914.667 OFFCURVE",
"1202 744 CURVE SMOOTH",
"1202 652.667 OFFCURVE",
"1190.333 572.667 OFFCURVE",
"1167 504 CURVE SMOOTH",
"1143.667 435.333 OFFCURVE",
"1111 379 OFFCURVE",
"1069 335 CURVE",
"1007 416 LINE SMOOTH",
"963 473 OFFCURVE",
"911 497 OFFCURVE",
"834 497 CURVE SMOOTH"
);
}
);
userData = {
assembly = "NPUSHB[ ]	/* 12 values pushed */\01236 22 2 5 3 18 15 2 0 5 2 76 \012MPPEM[ ]	/* MeasurePixelPerEm */\012PUSHB[ ]	/* 1 value pushed */\01210 \012LT[ ]	/* LessThan */\012IF[ ]	/* If */\012NPUSHB[ ]	/* 34 values pushed */\0120 3 4 5 5 3 114 0 2 0 2 134 0 4 4 1 97 0 1 1 109 77 0 5 5 0 98 6 1 0 0 110 0 78 \012ELSE[ ]	/* Else */\012NPUSHB[ ]	/* 35 values pushed */\0120 3 4 5 4 3 5 128 0 2 0 2 134 0 4 4 1 97 0 1 1 109 77 0 5 5 0 98 6 1 0 0 110 0 78 \012EIF[ ]	/* EndIf */\012NPUSHB[ ]	/* 19 values pushed */\0121 0 35 33 29 27 21 20 17 16 9 7 0 19 1 19 7 12 22 \012CALL[ ]	/* CallFunction */";
};
width = 1583;
}
);
leftKerningGroup = C;
note = Q;
rightKerningGroup = Oopen;
unicode = 0051;
},
{
glyphname = Q_rthook;
lastChange = "2024-07-06 19:32:59 +0000";
layers = (
{
layerId = "E952A9EA-CC11-40A5-A77C-9A3014CC01A0";
paths = (
{
closed = 1;
nodes = (
"1428 1344 LINE SMOOTH",
"1428 1439 OFFCURVE",
"1382 1490 OFFCURVE",
"1299 1490 CURVE SMOOTH",
"1215 1490 OFFCURVE",
"1169 1439 OFFCURVE",
"1169 1344 CURVE SMOOTH",
"1169 1268 LINE",
"1157 1268 LINE",
"1121 1339.333 OFFCURVE",
"1066.333 1397.5 OFFCURVE",
"993 1442.5 CURVE SMOOTH",
"919.667 1487.5 OFFCURVE",
"832 1510 OFFCURVE",
"730 1510 CURVE SMOOTH",
"639.333 1510 OFFCURVE",
"555.667 1491 OFFCURVE",
"479 1453 CURVE SMOOTH",
"402.333 1415 OFFCURVE",
"336 1361.5 OFFCURVE",
"280 1292.5 CURVE SMOOTH",
"224 1223.5 OFFCURVE",
"180.5 1142.667 OFFCURVE",
"149.5 1050 CURVE SMOOTH",
"118.5 957.333 OFFCURVE",
"103 856.667 OFFCURVE",
"103 748 CURVE SMOOTH",
"103 637.333 OFFCURVE",
"118.333 535.167 OFFCURVE",
"149 441.5 CURVE SMOOTH",
"179.667 347.833 OFFCURVE",
"223 266.333 OFFCURVE",
"279 197 CURVE SMOOTH",
"335 127.667 OFFCURVE",
"401.333 73.667 OFFCURVE",
"478 35 CURVE SMOOTH",
"554.667 -3.667 OFFCURVE",
"638.667 -23 OFFCURVE",
"730 -23 CURVE SMOOTH",
"830.667 -23 OFFCURVE",
"917.667 -0.167 OFFCURVE",
"991 45.5 CURVE SMOOTH",
"1064.333 91.167 OFFCURVE",
"1119.667 151.333 OFFCURVE",
"1157 226 CURVE",
"1169 226 LINE",
"1169 -136 LINE SMOOTH",
"1169 -333.333 OFFCURVE",
"1281.333 -432 OFFCURVE",
"1506 -432 CURVE SMOOTH",
"1531 -432 OFFCURVE",
"1555 -431 OFFCURVE",
"1576 -429 CURVE SMOOTH",
"1622 -425 OFFCURVE",
"1645 -385 OFFCURVE",
"1645 -321 CURVE SMOOTH",
"1645 -259 OFFCURVE",
"1565 -229 OFFCURVE",
"1565 -229 CURVE SMOOTH",
"1515.667 -229 OFFCURVE",
"1480.5 -221.833 OFFCURVE",
"1459.5 -207.5 CURVE SMOOTH",
"1438.5 -193.167 OFFCURVE",
"1428 -169.333 OFFCURVE",
"1428 -136 CURVE SMOOTH"
);
},
{
closed = 1;
nodes = (
"651 219 OFFCURVE",
"554.833 265.667 OFFCURVE",
"482.5 359 CURVE SMOOTH",
"410.167 452.333 OFFCURVE",
"374 581.667 OFFCURVE",
"374 747 CURVE SMOOTH",
"374 852.333 OFFCURVE",
"390.167 944.5 OFFCURVE",
"422.5 1023.5 CURVE SMOOTH",
"454.833 1102.5 OFFCURVE",
"500.667 1163.833 OFFCURVE",
"560 1207.5 CURVE SMOOTH",
"619.333 1251.167 OFFCURVE",
"690 1273 OFFCURVE",
"772 1273 CURVE SMOOTH",
"861.333 1273 OFFCURVE",
"935.5 1250.333 OFFCURVE",
"994.5 1205 CURVE SMOOTH",
"1053.5 1159.667 OFFCURVE",
"1097.5 1097.333 OFFCURVE",
"1126.5 1018 CURVE SMOOTH",
"1155.5 938.667 OFFCURVE",
"1170 848.333 OFFCURVE",
"1170 747 CURVE SMOOTH",
"1170 643.667 OFFCURVE",
"1156 552.333 OFFCURVE",
"1128 473 CURVE SMOOTH",
"1100 393.667 OFFCURVE",
"1056.667 331.5 OFFCURVE",
"998 286.5 CURVE SMOOTH",
"939.333 241.5 OFFCURVE",
"863.667 219 OFFCURVE",
"771 219 CURVE SMOOTH"
);
}
);
userData = {
assembly = "NPUSHB[ ]	/* 15 values pushed */\01229 12 2 5 6 6 1 0 2 7 1 1 0 3 76 \012MPPEM[ ]	/* MeasurePixelPerEm */\012PUSHB[ ]	/* 1 value pushed */\01225 \012LT[ ]	/* LessThan */\012IF[ ]	/* If */\012NPUSHB[ ]	/* 34 values pushed */\0120 6 6 3 97 7 4 2 3 3 109 77 8 1 5 5 2 97 0 2 2 113 77 0 0 0 1 98 0 1 1 114 1 78 \012ELSE[ ]	/* Else */\012NPUSHB[ ]	/* 38 values pushed */\0127 1 4 4 103 77 0 6 6 3 97 0 3 3 109 77 8 1 5 5 2 97 0 2 2 113 77 0 0 0 1 98 0 1 1 114 1 78 \012EIF[ ]	/* EndIf */\012NPUSHB[ ]	/* 21 values pushed */\01233 32 0 0 41 39 32 46 33 46 0 31 0 31 40 37 35 35 9 12 26 \012CALL[ ]	/* CallFunction */";
};
width = 1578;
}
);
leftKerningGroup = C;
note = Q_rthook;
rightKerningGroup = Q_rthook;
},
{
glyphname = R;
lastChange = "2024-07-06 19:32:59 +0000";
layers = (
{
layerId = "E952A9EA-CC11-40A5-A77C-9A3014CC01A0";
paths = (
{
closed = 1;
nodes = (
"150 146 LINE SMOOTH",
"150 51 OFFCURVE",
"197 0 OFFCURVE",
"284 0 CURVE SMOOTH",
"370 0 OFFCURVE",
"417 51 OFFCURVE",
"417 146 CURVE SMOOTH",
"417 547 LINE",
"695 547 LINE",
"933 104 LINE SMOOTH",
"971 32 OFFCURVE",
"1024 0 OFFCURVE",
"1105 0 CURVE SMOOTH",
"1138 0 LINE SMOOTH",
"1224 0 OFFCURVE",
"1247 73 OFFCURVE",
"1192 174 CURVE SMOOTH",
"964 592 LINE",
"1052 626.667 OFFCURVE",
"1118.667 680.333 OFFCURVE",
"1164 753 CURVE SMOOTH",
"1209.333 825.667 OFFCURVE",
"1232 912.333 OFFCURVE",
"1232 1013 CURVE SMOOTH",
"1232 1155 OFFCURVE",
"1187.333 1270 OFFCURVE",
"1098 1358 CURVE SMOOTH",
"1008.667 1446 OFFCURVE",
"878.333 1490 OFFCURVE",
"707 1490 CURVE SMOOTH",
"296 1490 LINE SMOOTH",
"201 1490 OFFCURVE",
"150 1439 OFFCURVE",
"150 1344 CURVE SMOOTH"
);
},
{
closed = 1;
nodes = (
"417 768 LINE",
"417 1266 LINE",
"666 1266 LINE SMOOTH",
"768 1266 OFFCURVE",
"842.333 1243.833 OFFCURVE",
"889 1199.5 CURVE SMOOTH",
"935.667 1155.167 OFFCURVE",
"959 1093 OFFCURVE",
"959 1013 CURVE SMOOTH",
"959 934.333 OFFCURVE",
"935.667 873.833 OFFCURVE",
"889 831.5 CURVE SMOOTH",
"842.333 789.167 OFFCURVE",
"768.667 768 OFFCURVE",
"668 768 CURVE SMOOTH"
);
}
);
userData = {
assembly = "NPUSHB[ ]	/* 48 values pushed */\0128 1 2 4 1 76 0 4 0 2 1 4 2 103 0 5 5 0 95 0 0 0 103 77 6 3 2 1 1 104 1 78 0 0 22 20 16 14 0 13 0 13 17 22 33 7 12 25 \012CALL[ ]	/* CallFunction */";
};
width = 1336;
}
);
leftKerningGroup = B;
note = R;
rightKerningGroup = G.1;
unicode = 0052;
},
{
glyphname = Rstroke;
lastChange = "2024-07-06 19:32:59 +0000";
layers = (
{
layerId = "E952A9EA-CC11-40A5-A77C-9A3014CC01A0";
paths = (
{
closed = 1;
nodes = (
"177 146 LINE SMOOTH",
"177 51 OFFCURVE",
"224 0 OFFCURVE",
"311 0 CURVE SMOOTH",
"397 0 OFFCURVE",
"444 51 OFFCURVE",
"444 146 CURVE SMOOTH",
"444 547 LINE",
"722 547 LINE",
"960 104 LINE SMOOTH",
"998 32 OFFCURVE",
"1051 0 OFFCURVE",
"1132 0 CURVE SMOOTH",
"1165 0 LINE SMOOTH",
"1251 0 OFFCURVE",
"1274 73 OFFCURVE",
"1219 174 CURVE SMOOTH",
"991 592 LINE",
"1079 626.667 OFFCURVE",
"1145.667 680.333 OFFCURVE",
"1191 753 CURVE SMOOTH",
"1236.333 825.667 OFFCURVE",
"1259 912.333 OFFCURVE",
"1259 1013 CURVE SMOOTH",
"1259 1155 OFFCURVE",
"1214.333 1270 OFFCURVE",
"1125 1358 CURVE SMOOTH",
"1035.667 1446 OFFCURVE",
"905.667 1490 OFFCURVE",
"735 1490 CURVE SMOOTH",
"323 1490 LINE SMOOTH",
"228 1490 OFFCURVE",
"177 1439 OFFCURVE",
"177 1344 CURVE SMOOTH",
"177 768 LINE",
"99 768 LINE SMOOTH",
"48 768 OFFCURVE",
"20 732 OFFCURVE",
"20 665 CURVE SMOOTH",
"20 598 OFFCURVE",
"72 562 OFFCURVE",
"166 562 CURVE SMOOTH",
"177 562 LINE"
);
},
{
closed = 1;
nodes = (
"444 768 LINE",
"444 1266 LINE",
"694 1266 LINE SMOOTH",
"795.333 1266 OFFCURVE",
"869.333 1243.833 OFFCURVE",
"916 1199.5 CURVE SMOOTH",
"962.667 1155.167 OFFCURVE",
"986 1093 OFFCURVE",
"986 1013 CURVE SMOOTH",
"986 934.333 OFFCURVE",
"962.667 873.833 OFFCURVE",
"916 831.5 CURVE SMOOTH",
"869.333 789.167 OFFCURVE",
"795.667 768 OFFCURVE",
"695 768 CURVE SMOOTH"
);
}
);
userData = {
assembly = "PUSHB[ ]	/* 6 values pushed */\01212 1 0 1 1 76 \012MPPEM[ ]	/* MeasurePixelPerEm */\012PUSHB[ ]	/* 1 value pushed */\01234 \012LT[ ]	/* LessThan */\012IF[ ]	/* If */\012NPUSHB[ ]	/* 28 values pushed */\0126 1 1 4 1 0 3 1 0 103 0 7 7 2 95 0 2 2 103 77 8 5 2 3 3 104 3 78 \012ELSE[ ]	/* Else */\012NPUSHB[ ]	/* 33 values pushed */\0120 0 4 1 0 87 6 1 1 0 4 3 1 4 103 0 7 7 2 95 0 2 2 103 77 8 5 2 3 3 104 3 78 \012EIF[ ]	/* EndIf */\012NPUSHB[ ]	/* 18 values pushed */\0120 0 26 24 20 18 0 17 0 17 17 22 33 17 17 9 12 27 \012CALL[ ]	/* CallFunction */";
};
width = 1361;
}
);
leftKerningGroup = B;
note = uni024C;
rightKerningGroup = G.1;
unicode = 024C;
},
{
glyphname = S;
lastChange = "2024-07-06 19:32:59 +0000";
layers = (
{
layerId = "E952A9EA-CC11-40A5-A77C-9A3014CC01A0";
paths = (
{
closed = 1;
nodes = (
"791.667 -23 OFFCURVE",
"893 -4.5 OFFCURVE",
"977 32.5 CURVE SMOOTH",
"1061 69.5 OFFCURVE",
"1125.333 121.167 OFFCURVE",
"1170 187.5 CURVE SMOOTH",
"1214.667 253.833 OFFCURVE",
"1237 330.667 OFFCURVE",
"1237 418 CURVE SMOOTH",
"1237 504.667 OFFCURVE",
"1215.833 576.333 OFFCURVE",
"1173.5 633 CURVE SMOOTH",
"1131.167 689.667 OFFCURVE",
"1076.5 734.833 OFFCURVE",
"1009.5 768.5 CURVE SMOOTH",
"942.5 802.167 OFFCURVE",
"872.333 828 OFFCURVE",
"799 846 CURVE SMOOTH",
"660 882 LINE SMOOTH",
"620 892 OFFCURVE",
"580.5 905 OFFCURVE",
"541.5 921 CURVE SMOOTH",
"502.5 937 OFFCURVE",
"470.167 958.167 OFFCURVE",
"444.5 984.5 CURVE SMOOTH",
"418.833 1010.833 OFFCURVE",
"406 1045 OFFCURVE",
"406 1087 CURVE SMOOTH",
"406 1143.667 OFFCURVE",
"430 1190.5 OFFCURVE",
"478 1227.5 CURVE SMOOTH",
"526 1264.5 OFFCURVE",
"592 1283 OFFCURVE",
"676 1283 CURVE SMOOTH",
"756.667 1283 OFFCURVE",
"822.167 1265.333 OFFCURVE",
"872.5 1230 CURVE SMOOTH",
"898 1212 OFFCURVE",
"918 1191 OFFCURVE",
"932 1166 CURVE SMOOTH",
"962 1111 OFFCURVE",
"996 1082 OFFCURVE",
"1079 1082 CURVE SMOOTH",
"1088 1082 LINE SMOOTH",
"1169 1082 OFFCURVE",
"1224 1145 OFFCURVE",
"1182 1240 CURVE SMOOTH",
"1172 1262 OFFCURVE",
"1160 1283 OFFCURVE",
"1146 1303 CURVE SMOOTH",
"1100.667 1367.667 OFFCURVE",
"1038.167 1418.333 OFFCURVE",
"958.5 1455 CURVE SMOOTH",
"878.833 1491.667 OFFCURVE",
"786 1510 OFFCURVE",
"680 1510 CURVE SMOOTH",
"576 1510 OFFCURVE",
"483 1491.667 OFFCURVE",
"401 1455 CURVE SMOOTH",
"319 1418.333 OFFCURVE",
"254.333 1367.167 OFFCURVE",
"207 1301.5 CURVE SMOOTH",
"159.667 1235.833 OFFCURVE",
"136 1159 OFFCURVE",
"136 1071 CURVE SMOOTH",
"136 965.667 OFFCURVE",
"170.833 880.667 OFFCURVE",
"240.5 816 CURVE SMOOTH",
"310.167 751.333 OFFCURVE",
"407.333 703 OFFCURVE",
"532 671 CURVE SMOOTH",
"701 627 LINE SMOOTH",
"781.667 606.333 OFFCURVE",
"846.667 581.167 OFFCURVE",
"896 551.5 CURVE SMOOTH",
"945.333 521.833 OFFCURVE",
"970 478 OFFCURVE",
"970 420 CURVE SMOOTH",
"970 356 OFFCURVE",
"942.167 304.167 OFFCURVE",
"886.5 264.5 CURVE SMOOTH",
"830.833 224.833 OFFCURVE",
"759 205 OFFCURVE",
"671 205 CURVE SMOOTH",
"587 205 OFFCURVE",
"515.333 224.167 OFFCURVE",
"456 262.5 CURVE SMOOTH",
"425 282 OFFCURVE",
"402 307 OFFCURVE",
"386 338 CURVE SMOOTH",
"352 403 OFFCURVE",
"318 438 OFFCURVE",
"233 438 CURVE SMOOTH",
"227 438 LINE SMOOTH",
"145 438 OFFCURVE",
"90 377 OFFCURVE",
"124 280 CURVE SMOOTH",
"151 207 OFFCURVE",
"196 146 OFFCURVE",
"258.5 97 CURVE SMOOTH",
"361.5 17 OFFCURVE",
"499.667 -23 OFFCURVE",
"673 -23 CURVE SMOOTH"
);
}
);
userData = {
assembly = "NPUSHB[ ]	/* 56 values pushed */\0120 4 5 1 5 4 1 128 0 1 2 5 1 2 126 0 5 5 3 97 0 3 3 109 77 0 2 2 0 97 6 1 0 0 113 0 78 1 0 30 28 26 25 22 20 8 6 4 3 0 44 1 44 7 12 22 \012CALL[ ]	/* CallFunction */";
};
width = 1332;
}
);
leftKerningGroup = S;
note = S;
rightKerningGroup = S;
unicode = 0053;
},
{
glyphname = Germandbls;
lastChange = "2024-07-06 19:32:59 +0000";
layers = (
{
layerId = "E952A9EA-CC11-40A5-A77C-9A3014CC01A0";
paths = (
{
closed = 1;
nodes = (
"150 146 LINE SMOOTH",
"150 51 OFFCURVE",
"197 0 OFFCURVE",
"284 0 CURVE SMOOTH",
"370 0 OFFCURVE",
"417 52 OFFCURVE",
"417 146 CURVE SMOOTH",
"417 984 LINE SMOOTH",
"417 1040 OFFCURVE",
"424.5 1091.333 OFFCURVE",
"439.5 1138 CURVE SMOOTH",
"454.5 1184.667 OFFCURVE",
"479.667 1222 OFFCURVE",
"515 1250 CURVE SMOOTH",
"550.333 1278 OFFCURVE",
"598 1292 OFFCURVE",
"658 1292 CURVE SMOOTH",
"714.667 1292 OFFCURVE",
"765.167 1282.667 OFFCURVE",
"809.5 1264 CURVE SMOOTH",
"853.833 1245.333 OFFCURVE",
"892.333 1224 OFFCURVE",
"925 1200 CURVE",
"709 936 LINE SMOOTH",
"663 879 OFFCURVE",
"644 832 OFFCURVE",
"644 769 CURVE SMOOTH",
"644 712 OFFCURVE",
"694 680 OFFCURVE",
"785 680 CURVE SMOOTH",
"809.667 680 OFFCURVE",
"838.833 677 OFFCURVE",
"872.5 671 CURVE SMOOTH",
"906.167 665 OFFCURVE",
"939 653.333 OFFCURVE",
"971 636 CURVE SMOOTH",
"1003 618.667 OFFCURVE",
"1029.667 593.5 OFFCURVE",
"1051 560.5 CURVE SMOOTH",
"1072.333 527.5 OFFCURVE",
"1083 483.667 OFFCURVE",
"1083 429 CURVE SMOOTH",
"1083 357 OFFCURVE",
"1059.833 300.333 OFFCURVE",
"1013.5 259 CURVE SMOOTH",
"967.167 217.667 OFFCURVE",
"902.333 197 OFFCURVE",
"819 197 CURVE SMOOTH",
"777.667 197 OFFCURVE",
"738.167 201.833 OFFCURVE",
"700.5 211.5 CURVE SMOOTH",
"682 216 OFFCURVE",
"665 221 OFFCURVE",
"648 227 CURVE SMOOTH",
"614 238 OFFCURVE",
"584 209 OFFCURVE",
"559 141 CURVE SMOOTH",
"534 74 OFFCURVE",
"571 13 OFFCURVE",
"666 -4 CURVE SMOOTH",
"668 -5 OFFCURVE",
"670 -5 OFFCURVE",
"672.5 -5.5 CURVE SMOOTH",
"726.833 -15.167 OFFCURVE",
"780 -20 OFFCURVE",
"832 -20 CURVE SMOOTH",
"933.333 -20 OFFCURVE",
"1023 -2.167 OFFCURVE",
"1101 33.5 CURVE SMOOTH",
"1179 69.167 OFFCURVE",
"1240.333 120.333 OFFCURVE",
"1285 187 CURVE SMOOTH",
"1329.667 253.667 OFFCURVE",
"1352 333.667 OFFCURVE",
"1352 427 CURVE SMOOTH",
"1352 546.333 OFFCURVE",
"1313.333 644.667 OFFCURVE",
"1236 722 CURVE SMOOTH",
"1158.667 799.333 OFFCURVE",
"1053.667 845 OFFCURVE",
"921 859 CURVE",
"1158 1149 LINE SMOOTH",
"1219 1224 OFFCURVE",
"1213 1300 OFFCURVE",
"1131 1353 CURVE SMOOTH",
"1080 1385 OFFCURVE",
"1026 1414 OFFCURVE",
"969 1440 CURVE SMOOTH",
"865 1486.667 OFFCURVE",
"759.667 1510 OFFCURVE",
"653 1510 CURVE SMOOTH",
"495 1510 OFFCURVE",
"371.667 1464 OFFCURVE",
"283 1372 CURVE SMOOTH",
"194.333 1280 OFFCURVE",
"150 1150.667 OFFCURVE",
"150 984 CURVE SMOOTH"
);
}
);
userData = {
assembly = "MPPEM[ ]	/* MeasurePixelPerEm */\012PUSHB[ ]	/* 1 value pushed */\01225 \012LT[ ]	/* LessThan */\012IF[ ]	/* If */\012NPUSHB[ ]	/* 17 values pushed */\01233 32 8 7 4 3 4 19 1 2 3 18 1 1 2 3 76 \012ELSE[ ]	/* Else */\012NPUSHB[ ]	/* 17 values pushed */\01233 32 8 7 4 3 4 19 1 2 3 18 1 5 2 3 76 \012EIF[ ]	/* EndIf */\012MPPEM[ ]	/* MeasurePixelPerEm */\012PUSHB[ ]	/* 1 value pushed */\01225 \012LT[ ]	/* LessThan */\012IF[ ]	/* If */\012NPUSHB[ ]	/* 31 values pushed */\0120 3 4 2 4 3 2 128 0 4 4 0 97 0 0 0 109 77 0 2 2 1 97 6 5 2 1 1 110 1 78 \012ELSE[ ]	/* Else */\012NPUSHB[ ]	/* 35 values pushed */\0120 3 4 2 4 3 2 128 0 4 4 0 97 0 0 0 109 77 6 1 5 5 104 77 0 2 2 1 97 0 1 1 110 1 78 \012EIF[ ]	/* EndIf */\012NPUSHB[ ]	/* 14 values pushed */\0120 0 0 41 0 41 36 38 37 41 35 7 12 27 \012CALL[ ]	/* CallFunction */";
};
width = 1447;
}
);
leftKerningGroup = B;
note = uni1E9E;
rightKerningGroup = S;
unicode = 1E9E;
},
{
glyphname = Schwa;
lastChange = "2024-07-06 19:32:59 +0000";
layers = (
{
layerId = "E952A9EA-CC11-40A5-A77C-9A3014CC01A0";
paths = (
{
closed = 1;
nodes = (
"890.667 -20 OFFCURVE",
"1009.833 10.833 OFFCURVE",
"1111.5 72.5 CURVE SMOOTH",
"1213.167 134.167 OFFCURVE",
"1291.833 222.167 OFFCURVE",
"1347.5 336.5 CURVE SMOOTH",
"1403.167 450.833 OFFCURVE",
"1431 586.333 OFFCURVE",
"1431 743 CURVE SMOOTH",
"1431 903 OFFCURVE",
"1401.167 1040.167 OFFCURVE",
"1341.5 1154.5 CURVE SMOOTH",
"1281.833 1268.833 OFFCURVE",
"1200.667 1356.667 OFFCURVE",
"1098 1418 CURVE SMOOTH",
"995.333 1479.333 OFFCURVE",
"879 1510 OFFCURVE",
"749 1510 CURVE SMOOTH",
"639.667 1510 OFFCURVE",
"540.5 1489 OFFCURVE",
"451.5 1447 CURVE SMOOTH",
"362.5 1405 OFFCURVE",
"289.167 1346.667 OFFCURVE",
"231.5 1272 CURVE SMOOTH",
"202 1234 OFFCURVE",
"179 1194 OFFCURVE",
"160 1150 CURVE SMOOTH",
"127 1069 OFFCURVE",
"181 1014 OFFCURVE",
"273 1014 CURVE SMOOTH",
"355 1014 OFFCURVE",
"398 1052 OFFCURVE",
"445 1123 CURVE SMOOTH",
"467 1154 OFFCURVE",
"492 1181 OFFCURVE",
"522.5 1203 CURVE SMOOTH",
"583.5 1248.333 OFFCURVE",
"659 1271 OFFCURVE",
"749 1271 CURVE SMOOTH",
"865.667 1271 OFFCURVE",
"962.333 1228.5 OFFCURVE",
"1039 1143.5 CURVE SMOOTH",
"1115.667 1058.5 OFFCURVE",
"1156.667 937 OFFCURVE",
"1162 779 CURVE",
"255 779 LINE SMOOTH",
"160 779 OFFCURVE",
"109 728 OFFCURVE",
"109 633 CURVE SMOOTH",
"109 600 LINE SMOOTH",
"109 472.667 OFFCURVE",
"137.167 362.5 OFFCURVE",
"193.5 269.5 CURVE SMOOTH",
"249.833 176.5 OFFCURVE",
"326.667 105 OFFCURVE",
"424 55 CURVE SMOOTH",
"521.333 5 OFFCURVE",
"631.333 -20 OFFCURVE",
"754 -20 CURVE SMOOTH"
);
},
{
closed = 1;
nodes = (
"1122 455.667 OFFCURVE",
"1075.833 369 OFFCURVE",
"1007.5 309 CURVE SMOOTH",
"939.167 249 OFFCURVE",
"854 219 OFFCURVE",
"752 219 CURVE SMOOTH",
"640.667 219 OFFCURVE",
"549.5 250.5 OFFCURVE",
"478.5 313.5 CURVE SMOOTH",
"407.5 376.5 OFFCURVE",
"370.667 461.667 OFFCURVE",
"368 569 CURVE",
"1146 569 LINE"
);
}
);
userData = {
assembly = "NPUSHB[ ]	/* 59 values pushed */\0120 3 2 1 2 3 1 128 0 1 0 5 6 1 5 103 0 2 2 4 97 0 4 4 109 77 0 6 6 0 97 7 1 0 0 110 0 78 1 0 30 28 26 25 18 16 13 12 10 8 6 5 0 24 1 24 8 12 22 \012CALL[ ]	/* CallFunction */";
};
width = 1534;
}
);
note = uni018F;
unicode = 018F;
},
{
glyphname = T;
lastChange = "2024-07-06 19:32:59 +0000";
layers = (
{
layerId = "E952A9EA-CC11-40A5-A77C-9A3014CC01A0";
paths = (
{
closed = 1;
nodes = (
"83 1305 OFFCURVE",
"134 1265 OFFCURVE",
"229 1265 CURVE SMOOTH",
"543 1265 LINE",
"543 146 LINE SMOOTH",
"543 51 OFFCURVE",
"590 0 OFFCURVE",
"677 0 CURVE SMOOTH",
"763 0 OFFCURVE",
"810 51 OFFCURVE",
"810 146 CURVE SMOOTH",
"810 1265 LINE",
"1123 1265 LINE SMOOTH",
"1218 1265 OFFCURVE",
"1269 1305 OFFCURVE",
"1269 1378 CURVE SMOOTH",
"1269 1451 OFFCURVE",
"1217 1490 OFFCURVE",
"1123 1490 CURVE SMOOTH",
"229 1490 LINE SMOOTH",
"134 1490 OFFCURVE",
"83 1451 OFFCURVE",
"83 1378 CURVE SMOOTH"
);
}
);
userData = {
assembly = "NPUSHB[ ]	/* 30 values pushed */\0124 3 2 1 1 0 95 0 0 0 103 77 0 2 2 104 2 78 0 0 0 7 0 7 17 17 17 5 12 25 \012CALL[ ]	/* CallFunction */";
};
width = 1352;
}
);
leftKerningGroup = "Kabashkir-cy";
note = T;
rightKerningGroup = "Enghe-cy";
unicode = 0054;
},
{
glyphname = Tdiagonalstroke;
lastChange = "2024-07-06 19:32:59 +0000";
layers = (
{
layerId = "E952A9EA-CC11-40A5-A77C-9A3014CC01A0";
paths = (
{
closed = 1;
nodes = (
"324 -209 OFFCURVE",
"360 -174 OFFCURVE",
"392 -97 CURVE SMOOTH",
"543 261 LINE",
"543 131 LINE SMOOTH",
"543 47 OFFCURVE",
"590 0 OFFCURVE",
"677 0 CURVE SMOOTH",
"763 0 OFFCURVE",
"810 51 OFFCURVE",
"810 146 CURVE SMOOTH",
"810 896 LINE",
"966 1265 LINE",
"1123 1265 LINE SMOOTH",
"1218 1265 OFFCURVE",
"1269 1305 OFFCURVE",
"1269 1378 CURVE SMOOTH",
"1269 1451 OFFCURVE",
"1217 1490 OFFCURVE",
"1123 1490 CURVE SMOOTH",
"1060 1490 LINE",
"1104 1595 LINE SMOOTH",
"1130 1657 OFFCURVE",
"1120 1699 OFFCURVE",
"1079 1699 CURVE SMOOTH",
"1032 1699 OFFCURVE",
"995 1664 OFFCURVE",
"963 1587 CURVE SMOOTH",
"922 1490 LINE",
"229 1490 LINE SMOOTH",
"134 1490 OFFCURVE",
"83 1450 OFFCURVE",
"83 1378 CURVE SMOOTH",
"83 1305 OFFCURVE",
"134 1265 OFFCURVE",
"229 1265 CURVE SMOOTH",
"543 1265 LINE",
"543 588 LINE",
"279 -39 LINE SMOOTH",
"236 -140 OFFCURVE",
"236 -209 OFFCURVE",
"277 -209 CURVE SMOOTH"
);
},
{
closed = 1;
nodes = (
"810 1265 LINE",
"828 1265 LINE",
"810 1223 LINE"
);
}
);
userData = {
assembly = "NPUSHB[ ]	/* 13 values pushed */\01215 12 1 3 5 0 1 76 18 1 0 1 75 \012MPPEM[ ]	/* MeasurePixelPerEm */\012PUSHB[ ]	/* 1 value pushed */\01212 \012LT[ ]	/* LessThan */\012IF[ ]	/* If */\012NPUSHB[ ]	/* 30 values pushed */\0120 2 1 1 2 112 7 1 6 5 6 134 4 1 0 0 1 95 3 1 1 1 103 77 0 5 5 104 5 78 \012ELSE[ ]	/* Else */\012NPUSHB[ ]	/* 29 values pushed */\0120 2 1 2 133 7 1 6 5 6 134 4 1 0 0 1 95 3 1 1 1 103 77 0 5 5 104 5 78 \012EIF[ ]	/* EndIf */\012NPUSHB[ ]	/* 15 values pushed */\0120 0 0 16 0 16 18 17 17 17 17 18 8 12 28 \012CALL[ ]	/* CallFunction */";
};
width = 1352;
}
);
leftKerningGroup = "Kabashkir-cy";
note = uni023E;
rightKerningGroup = "Enghe-cy";
unicode = 023E;
},
{
glyphname = Thook;
lastChange = "2024-07-06 19:32:59 +0000";
layers = (
{
layerId = "E952A9EA-CC11-40A5-A77C-9A3014CC01A0";
paths = (
{
closed = 1;
nodes = (
"91 1108 OFFCURVE",
"134 1082 OFFCURVE",
"212 1082 CURVE SMOOTH",
"290 1082 OFFCURVE",
"333 1102 OFFCURVE",
"333 1138 CURVE SMOOTH",
"333 1223.333 OFFCURVE",
"378 1266 OFFCURVE",
"468 1266 CURVE SMOOTH",
"620 1266 LINE",
"620 146 LINE SMOOTH",
"620 51 OFFCURVE",
"667 0 OFFCURVE",
"754 0 CURVE SMOOTH",
"840 0 OFFCURVE",
"887 51 OFFCURVE",
"887 146 CURVE SMOOTH",
"887 1266 LINE",
"1200 1266 LINE SMOOTH",
"1295 1266 OFFCURVE",
"1346 1306 OFFCURVE",
"1346 1378 CURVE SMOOTH",
"1346 1450 OFFCURVE",
"1294 1490 OFFCURVE",
"1200 1490 CURVE SMOOTH",
"473 1490 LINE SMOOTH",
"343 1490 OFFCURVE",
"246.833 1462.667 OFFCURVE",
"184.5 1408 CURVE SMOOTH",
"122.167 1353.333 OFFCURVE",
"91 1269 OFFCURVE",
"91 1155 CURVE SMOOTH"
);
}
);
userData = {
assembly = "MPPEM[ ]	/* MeasurePixelPerEm */\012PUSHB[ ]	/* 1 value pushed */\01213 \012LT[ ]	/* LessThan */\012IF[ ]	/* If */\012NPUSHB[ ]	/* 25 values pushed */\0125 1 4 1 2 1 4 114 3 1 1 1 0 95 0 0 0 103 77 0 2 2 104 2 78 \012ELSE[ ]	/* Else */\012NPUSHB[ ]	/* 26 values pushed */\0125 1 4 1 2 1 4 2 128 3 1 1 1 0 95 0 0 0 103 77 0 2 2 104 2 78 \012EIF[ ]	/* EndIf */\012NPUSHB[ ]	/* 13 values pushed */\0120 0 0 14 0 14 33 17 17 35 6 12 26 \012CALL[ ]	/* CallFunction */";
};
width = 1429;
}
);
leftKerningGroup = "Kabashkir-cy";
note = uni01AC;
rightKerningGroup = "Enghe-cy";
unicode = 01AC;
},
{
glyphname = Tonefive;
lastChange = "2024-07-06 19:32:59 +0000";
layers = (
{
layerId = "E952A9EA-CC11-40A5-A77C-9A3014CC01A0";
paths = (
{
closed = 1;
nodes = (
"784.667 -20 OFFCURVE",
"877 1.833 OFFCURVE",
"957 45.5 CURVE SMOOTH",
"1037 89.167 OFFCURVE",
"1099.667 149.333 OFFCURVE",
"1145 226 CURVE SMOOTH",
"1190.333 302.667 OFFCURVE",
"1213 390.333 OFFCURVE",
"1213 489 CURVE SMOOTH",
"1213 584.333 OFFCURVE",
"1192.667 669.167 OFFCURVE",
"1152 743.5 CURVE SMOOTH",
"1111.333 817.833 OFFCURVE",
"1055.5 876.167 OFFCURVE",
"984.5 918.5 CURVE SMOOTH",
"913.5 960.833 OFFCURVE",
"833 982 OFFCURVE",
"743 982 CURVE SMOOTH",
"683 982 OFFCURVE",
"627.833 971.5 OFFCURVE",
"577.5 950.5 CURVE SMOOTH",
"527.167 929.5 OFFCURVE",
"488 902.667 OFFCURVE",
"460 870 CURVE",
"452 870 LINE",
"494 1266 LINE",
"989 1266 LINE SMOOTH",
"1084 1266 OFFCURVE",
"1135 1306 OFFCURVE",
"1135 1378 CURVE SMOOTH",
"1135 1450 OFFCURVE",
"1084 1490 OFFCURVE",
"989 1490 CURVE SMOOTH",
"229 1490 LINE SMOOTH",
"134 1490 OFFCURVE",
"83 1450 OFFCURVE",
"83 1378 CURVE SMOOTH",
"83 1306 OFFCURVE",
"135 1266 OFFCURVE",
"229 1266 CURVE SMOOTH",
"250 1266 LINE",
"209 863 LINE SMOOTH",
"200 771 OFFCURVE",
"243 714 OFFCURVE",
"332 700 CURVE SMOOTH",
"406 688 OFFCURVE",
"455 711 OFFCURVE",
"524 743 CURVE SMOOTH",
"529 745 OFFCURVE",
"534 747 OFFCURVE",
"539.5 749.5 CURVE SMOOTH",
"582.5 766.5 OFFCURVE",
"626.667 775 OFFCURVE",
"672 775 CURVE SMOOTH",
"754 775 OFFCURVE",
"821.5 747.5 OFFCURVE",
"874.5 692.5 CURVE SMOOTH",
"927.5 637.5 OFFCURVE",
"954 567.667 OFFCURVE",
"954 483 CURVE SMOOTH",
"954 399 OFFCURVE",
"928.167 330.333 OFFCURVE",
"876.5 277 CURVE SMOOTH",
"824.833 223.667 OFFCURVE",
"759.333 197 OFFCURVE",
"680 197 CURVE SMOOTH",
"612 197 OFFCURVE",
"553.667 216.167 OFFCURVE",
"505 254.5 CURVE SMOOTH",
"481 274 OFFCURVE",
"462 296 OFFCURVE",
"449 320 CURVE SMOOTH",
"421 375 OFFCURVE",
"388 404 OFFCURVE",
"305 404 CURVE SMOOTH",
"297 404 LINE SMOOTH",
"216 404 OFFCURVE",
"160 340 OFFCURVE",
"203 245 CURVE SMOOTH",
"213 225 OFFCURVE",
"225 205 OFFCURVE",
"238 185.5 CURVE SMOOTH",
"282.667 121.833 OFFCURVE",
"343.167 71.667 OFFCURVE",
"419.5 35 CURVE SMOOTH",
"495.833 -1.667 OFFCURVE",
"582.667 -20 OFFCURVE",
"680 -20 CURVE SMOOTH"
);
}
);
userData = {
assembly = "NPUSHB[ ]	/* 73 values pushed */\01225 1 3 7 18 17 2 1 3 2 76 0 1 3 2 3 1 2 128 0 7 0 3 1 7 3 105 6 1 4 4 5 95 0 5 5 103 77 0 2 2 0 97 8 1 0 0 110 0 78 1 0 30 28 24 23 22 21 20 19 15 13 9 7 5 4 0 36 1 36 9 12 22 \012CALL[ ]	/* CallFunction */";
};
width = 1316;
}
);
note = uni01BC;
unicode = 01BC;
},
{
glyphname = Tonesix;
lastChange = "2024-07-06 19:32:59 +0000";
layers = (
{
layerId = "E952A9EA-CC11-40A5-A77C-9A3014CC01A0";
paths = (
{
closed = 1;
nodes = (
"647 913 LINE",
"647 1344 LINE SMOOTH",
"647 1439 OFFCURVE",
"595 1490 OFFCURVE",
"501 1490 CURVE SMOOTH",
"170 1490 LINE SMOOTH",
"75 1490 OFFCURVE",
"24 1450 OFFCURVE",
"24 1378 CURVE SMOOTH",
"24 1306 OFFCURVE",
"76 1266 OFFCURVE",
"170 1266 CURVE SMOOTH",
"380 1266 LINE",
"380 146 LINE SMOOTH",
"380 51 OFFCURVE",
"432 0 OFFCURVE",
"526 0 CURVE SMOOTH",
"937 0 LINE SMOOTH",
"1051 0 OFFCURVE",
"1148.5 19.5 OFFCURVE",
"1229.5 58.5 CURVE SMOOTH",
"1310.5 97.5 OFFCURVE",
"1372.667 151.833 OFFCURVE",
"1416 221.5 CURVE SMOOTH",
"1459.333 291.167 OFFCURVE",
"1481 372 OFFCURVE",
"1481 464 CURVE SMOOTH",
"1481 600.667 OFFCURVE",
"1433 709.667 OFFCURVE",
"1337 791 CURVE SMOOTH",
"1241 872.333 OFFCURVE",
"1107.667 913 OFFCURVE",
"937 913 CURVE SMOOTH"
);
},
{
closed = 1;
nodes = (
"647 695 LINE",
"937 695 LINE SMOOTH",
"1027.667 695 OFFCURVE",
"1097.167 672.667 OFFCURVE",
"1145.5 628 CURVE SMOOTH",
"1193.833 583.333 OFFCURVE",
"1218 529.333 OFFCURVE",
"1218 466 CURVE SMOOTH",
"1218 400.667 OFFCURVE",
"1193.833 343.167 OFFCURVE",
"1145.5 293.5 CURVE SMOOTH",
"1097.167 243.833 OFFCURVE",
"1027.667 219.333 OFFCURVE",
"937 220 CURVE SMOOTH",
"647 220 LINE"
);
}
);
userData = {
assembly = "NPUSHB[ ]	/* 44 values pushed */\0120 0 6 1 5 4 0 5 103 0 2 2 3 95 0 3 3 103 77 0 4 4 1 95 0 1 1 104 1 78 14 14 14 22 14 21 34 17 17 37 32 7 12 27 \012CALL[ ]	/* CallFunction */";
};
width = 1554;
}
);
note = uni0184;
unicode = 0184;
},
{
glyphname = Tonetwo;
lastChange = "2024-07-06 19:32:59 +0000";
layers = (
{
layerId = "E952A9EA-CC11-40A5-A77C-9A3014CC01A0";
paths = (
{
closed = 1;
nodes = (
"832.333 -23 OFFCURVE",
"970.5 17 OFFCURVE",
"1073.5 97 CURVE SMOOTH",
"1136 146 OFFCURVE",
"1181 207 OFFCURVE",
"1208 280 CURVE SMOOTH",
"1242 377 OFFCURVE",
"1186 438 OFFCURVE",
"1099 438 CURVE SMOOTH",
"1014 438 OFFCURVE",
"984 394 OFFCURVE",
"936 320 CURVE SMOOTH",
"920 298 OFFCURVE",
"900 278 OFFCURVE",
"876 262.5 CURVE SMOOTH",
"816.667 224.167 OFFCURVE",
"745 205 OFFCURVE",
"661 205 CURVE SMOOTH",
"573 205 OFFCURVE",
"501.167 224.833 OFFCURVE",
"445.5 264.5 CURVE SMOOTH",
"389.833 304.167 OFFCURVE",
"362 356 OFFCURVE",
"362 420 CURVE SMOOTH",
"362 478 OFFCURVE",
"386.667 521.833 OFFCURVE",
"436 551.5 CURVE SMOOTH",
"485.333 581.167 OFFCURVE",
"550.333 606.333 OFFCURVE",
"631 627 CURVE SMOOTH",
"800 671 LINE SMOOTH",
"924.667 703 OFFCURVE",
"1021.833 751.333 OFFCURVE",
"1091.5 816 CURVE SMOOTH",
"1161.167 880.667 OFFCURVE",
"1196 965.667 OFFCURVE",
"1196 1071 CURVE SMOOTH",
"1196 1159 OFFCURVE",
"1172.333 1235.833 OFFCURVE",
"1125 1301.5 CURVE SMOOTH",
"1077.667 1367.167 OFFCURVE",
"1013 1418.333 OFFCURVE",
"931 1455 CURVE SMOOTH",
"849 1491.667 OFFCURVE",
"756 1510 OFFCURVE",
"652 1510 CURVE SMOOTH",
"546 1510 OFFCURVE",
"453.167 1491.667 OFFCURVE",
"373.5 1455 CURVE SMOOTH",
"293.833 1418.333 OFFCURVE",
"231.333 1367.667 OFFCURVE",
"186 1303 CURVE SMOOTH",
"163 1270 OFFCURVE",
"146 1235 OFFCURVE",
"134 1198 CURVE SMOOTH",
"111 1127 OFFCURVE",
"167 1082 OFFCURVE",
"253 1082 CURVE SMOOTH",
"336 1082 OFFCURVE",
"365 1126 OFFCURVE",
"419 1193 CURVE SMOOTH",
"430 1207 OFFCURVE",
"444 1219 OFFCURVE",
"459.5 1230 CURVE SMOOTH",
"509.833 1265.333 OFFCURVE",
"575.333 1283 OFFCURVE",
"656 1283 CURVE SMOOTH",
"740 1283 OFFCURVE",
"806 1264.5 OFFCURVE",
"854 1227.5 CURVE SMOOTH",
"902 1190.5 OFFCURVE",
"926 1143.667 OFFCURVE",
"926 1087 CURVE SMOOTH",
"926 1045 OFFCURVE",
"913.167 1010.833 OFFCURVE",
"887.5 984.5 CURVE SMOOTH",
"861.833 958.167 OFFCURVE",
"829.667 937 OFFCURVE",
"791 921 CURVE SMOOTH",
"752.333 905 OFFCURVE",
"712.667 892 OFFCURVE",
"672 882 CURVE SMOOTH",
"533 846 LINE SMOOTH",
"459.667 828 OFFCURVE",
"389.5 802.167 OFFCURVE",
"322.5 768.5 CURVE SMOOTH",
"255.5 734.833 OFFCURVE",
"200.833 689.667 OFFCURVE",
"158.5 633 CURVE SMOOTH",
"116.167 576.333 OFFCURVE",
"95 504.667 OFFCURVE",
"95 418 CURVE SMOOTH",
"95 330.667 OFFCURVE",
"117.333 253.833 OFFCURVE",
"162 187.5 CURVE SMOOTH",
"206.667 121.167 OFFCURVE",
"271 69.5 OFFCURVE",
"355 32.5 CURVE SMOOTH",
"439 -4.5 OFFCURVE",
"540.333 -23 OFFCURVE",
"659 -23 CURVE SMOOTH"
);
}
);
userData = {
assembly = "NPUSHB[ ]	/* 56 values pushed */\0120 2 1 5 1 2 5 128 0 5 4 1 5 4 126 0 1 1 3 97 0 3 3 109 77 0 4 4 0 97 6 1 0 0 113 0 78 1 0 42 41 39 37 25 23 20 19 17 15 0 44 1 44 7 12 22 \012CALL[ ]	/* CallFunction */";
};
width = 1332;
}
);
leftKerningGroup = S;
note = uni01A7;
rightKerningGroup = B;
unicode = 01A7;
},
{
glyphname = Tretroflexhook;
lastChange = "2024-07-06 19:32:59 +0000";
layers = (
{
layerId = "E952A9EA-CC11-40A5-A77C-9A3014CC01A0";
paths = (
{
closed = 1;
nodes = (
"885 -432 OFFCURVE",
"889 -432 OFFCURVE",
"893 -432 CURVE SMOOTH",
"982 -431 OFFCURVE",
"1026 -384 OFFCURVE",
"1026 -318 CURVE SMOOTH",
"1026 -254 OFFCURVE",
"947 -224 OFFCURVE",
"947 -224 CURVE SMOOTH",
"897.667 -224 OFFCURVE",
"862.5 -217.167 OFFCURVE",
"841.5 -203.5 CURVE SMOOTH",
"820.5 -189.833 OFFCURVE",
"810 -166.333 OFFCURVE",
"810 -133 CURVE SMOOTH",
"810 1265 LINE",
"1123 1265 LINE SMOOTH",
"1218 1265 OFFCURVE",
"1269 1305 OFFCURVE",
"1269 1378 CURVE SMOOTH",
"1269 1451 OFFCURVE",
"1217 1490 OFFCURVE",
"1123 1490 CURVE SMOOTH",
"229 1490 LINE SMOOTH",
"134 1490 OFFCURVE",
"83 1450 OFFCURVE",
"83 1378 CURVE SMOOTH",
"83 1305 OFFCURVE",
"134 1265 OFFCURVE",
"229 1265 CURVE SMOOTH",
"543 1265 LINE",
"543 -136 LINE SMOOTH",
"543 -333.333 OFFCURVE",
"655.667 -432 OFFCURVE",
"881 -432 CURVE SMOOTH"
);
}
);
userData = {
assembly = "NPUSHB[ ]	/* 50 values pushed */\01214 1 4 1 15 1 0 4 2 76 3 1 1 1 2 95 0 2 2 103 77 0 4 4 0 97 5 1 0 0 114 0 78 1 0 13 11 8 7 6 5 4 3 0 16 1 16 6 12 22 \012CALL[ ]	/* CallFunction */";
};
width = 1352;
}
);
leftKerningGroup = "Kabashkir-cy";
note = Trthook;
rightKerningGroup = "Enghe-cy";
unicode = 01AE;
},
{
glyphname = U;
lastChange = "2024-07-06 19:32:59 +0000";
layers = (
{
layerId = "E952A9EA-CC11-40A5-A77C-9A3014CC01A0";
paths = (
{
closed = 1;
nodes = (
"874.667 -22 OFFCURVE",
"980.333 0.833 OFFCURVE",
"1071 46.5 CURVE SMOOTH",
"1161.667 92.167 OFFCURVE",
"1232.167 155.5 OFFCURVE",
"1282.5 236.5 CURVE SMOOTH",
"1332.833 317.5 OFFCURVE",
"1358 411 OFFCURVE",
"1358 517 CURVE SMOOTH",
"1358 1344 LINE SMOOTH",
"1358 1439 OFFCURVE",
"1311 1490 OFFCURVE",
"1225 1490 CURVE SMOOTH",
"1139 1490 OFFCURVE",
"1091 1439 OFFCURVE",
"1091 1344 CURVE SMOOTH",
"1091 539 LINE SMOOTH",
"1091 445.667 OFFCURVE",
"1060.5 368.667 OFFCURVE",
"999.5 308 CURVE SMOOTH",
"938.5 247.333 OFFCURVE",
"856.667 217 OFFCURVE",
"754 217 CURVE SMOOTH",
"651.333 217 OFFCURVE",
"569.5 247.333 OFFCURVE",
"508.5 308 CURVE SMOOTH",
"447.5 368.667 OFFCURVE",
"417 445.667 OFFCURVE",
"417 539 CURVE SMOOTH",
"417 1344 LINE SMOOTH",
"417 1439 OFFCURVE",
"370 1490 OFFCURVE",
"284 1490 CURVE SMOOTH",
"198 1490 OFFCURVE",
"150 1438 OFFCURVE",
"150 1344 CURVE SMOOTH",
"150 517 LINE SMOOTH",
"150 411 OFFCURVE",
"175 317.5 OFFCURVE",
"225 236.5 CURVE SMOOTH",
"275 155.5 OFFCURVE",
"345.333 92.167 OFFCURVE",
"436 46.5 CURVE SMOOTH",
"526.667 0.833 OFFCURVE",
"632.667 -22 OFFCURVE",
"754 -22 CURVE SMOOTH"
);
}
);
userData = {
assembly = "NPUSHB[ ]	/* 33 values pushed */\0123 1 1 1 103 77 0 2 2 0 97 4 1 0 0 110 0 78 1 0 15 14 11 9 6 5 0 19 1 19 5 12 22 \012CALL[ ]	/* CallFunction */";
};
width = 1507;
}
);
leftKerningGroup = U;
note = U;
rightKerningGroup = J;
unicode = 0055;
},
{
glyphname = Ubar;
lastChange = "2024-07-06 19:32:59 +0000";
layers = (
{
layerId = "E952A9EA-CC11-40A5-A77C-9A3014CC01A0";
paths = (
{
closed = 1;
nodes = (
"1549 826 OFFCURVE",
"1497 853 OFFCURVE",
"1403 853 CURVE SMOOTH",
"1380 853 LINE",
"1380 1344 LINE SMOOTH",
"1380 1439 OFFCURVE",
"1333 1490 OFFCURVE",
"1247 1490 CURVE SMOOTH",
"1161 1490 OFFCURVE",
"1113 1438 OFFCURVE",
"1113 1344 CURVE SMOOTH",
"1113 853 LINE",
"439 853 LINE",
"439 1344 LINE SMOOTH",
"439 1439 OFFCURVE",
"392 1490 OFFCURVE",
"306 1490 CURVE SMOOTH",
"220 1490 OFFCURVE",
"172 1438 OFFCURVE",
"172 1344 CURVE SMOOTH",
"172 853 LINE",
"82 853 LINE SMOOTH",
"24 853 OFFCURVE",
"-8 825 OFFCURVE",
"-8 775 CURVE SMOOTH",
"-8 725 OFFCURVE",
"44 697 OFFCURVE",
"138 697 CURVE SMOOTH",
"172 697 LINE",
"172 517 LINE SMOOTH",
"172 411 OFFCURVE",
"197 317.5 OFFCURVE",
"247 236.5 CURVE SMOOTH",
"297 155.5 OFFCURVE",
"367.333 92.167 OFFCURVE",
"458 46.5 CURVE SMOOTH",
"548.667 0.833 OFFCURVE",
"654.667 -22 OFFCURVE",
"776 -22 CURVE SMOOTH",
"897.333 -22 OFFCURVE",
"1003.167 0.833 OFFCURVE",
"1093.5 46.5 CURVE SMOOTH",
"1183.833 92.167 OFFCURVE",
"1254.167 155.5 OFFCURVE",
"1304.5 236.5 CURVE SMOOTH",
"1354.833 317.5 OFFCURVE",
"1380 411 OFFCURVE",
"1380 517 CURVE SMOOTH",
"1380 697 LINE",
"1465 697 LINE SMOOTH",
"1520 697 OFFCURVE",
"1549 725 OFFCURVE",
"1549 775 CURVE SMOOTH"
);
},
{
closed = 1;
nodes = (
"1113 697 LINE",
"1113 539 LINE SMOOTH",
"1113 445.667 OFFCURVE",
"1082.667 368.667 OFFCURVE",
"1022 308 CURVE SMOOTH",
"961.333 247.333 OFFCURVE",
"879.333 217 OFFCURVE",
"776 217 CURVE SMOOTH",
"673.333 217 OFFCURVE",
"591.5 247.333 OFFCURVE",
"530.5 308 CURVE SMOOTH",
"469.5 368.667 OFFCURVE",
"439 445.667 OFFCURVE",
"439 539 CURVE SMOOTH",
"439 697 LINE"
);
}
);
userData = {
assembly = "NPUSHB[ ]	/* 50 values pushed */\01210 7 5 3 3 8 2 2 0 9 3 0 103 6 1 4 4 103 77 0 9 9 1 97 0 1 1 110 1 78 0 0 29 27 24 23 0 22 0 22 17 17 17 17 20 36 17 11 12 29 \012CALL[ ]	/* CallFunction */";
};
width = 1541;
}
);
leftKerningGroup = U;
note = uni0244;
rightKerningGroup = J;
unicode = 0244;
},
{
glyphname = Uhorn;
lastChange = "2024-07-06 19:32:59 +0000";
layers = (
{
layerId = "E952A9EA-CC11-40A5-A77C-9A3014CC01A0";
paths = (
{
closed = 1;
nodes = (
"874.667 -22 OFFCURVE",
"980.333 0.833 OFFCURVE",
"1071 46.5 CURVE SMOOTH",
"1161.667 92.167 OFFCURVE",
"1232.167 155.5 OFFCURVE",
"1282.5 236.5 CURVE SMOOTH",
"1332.833 317.5 OFFCURVE",
"1358 411 OFFCURVE",
"1358 517 CURVE SMOOTH",
"1358 1312 LINE",
"1412.667 1316 OFFCURVE",
"1455.667 1334 OFFCURVE",
"1487 1366 CURVE SMOOTH",
"1518.333 1398 OFFCURVE",
"1534 1445 OFFCURVE",
"1534 1507 CURVE SMOOTH",
"1534 1552 LINE SMOOTH",
"1534 1647 OFFCURVE",
"1493 1698 OFFCURVE",
"1417 1698 CURVE SMOOTH",
"1341 1698 OFFCURVE",
"1300 1646 OFFCURVE",
"1300 1552 CURVE SMOOTH",
"1300 1513 LINE SMOOTH",
"1300 1497.667 OFFCURVE",
"1292.333 1490 OFFCURVE",
"1277 1490 CURVE SMOOTH",
"1237 1490 LINE SMOOTH",
"1142 1490 OFFCURVE",
"1091 1439 OFFCURVE",
"1091 1344 CURVE SMOOTH",
"1091 539 LINE SMOOTH",
"1091 445.667 OFFCURVE",
"1060.5 368.667 OFFCURVE",
"999.5 308 CURVE SMOOTH",
"938.5 247.333 OFFCURVE",
"856.667 217 OFFCURVE",
"754 217 CURVE SMOOTH",
"651.333 217 OFFCURVE",
"569.5 247.333 OFFCURVE",
"508.5 308 CURVE SMOOTH",
"447.5 368.667 OFFCURVE",
"417 445.667 OFFCURVE",
"417 539 CURVE SMOOTH",
"417 1344 LINE SMOOTH",
"417 1439 OFFCURVE",
"370 1490 OFFCURVE",
"284 1490 CURVE SMOOTH",
"198 1490 OFFCURVE",
"150 1438 OFFCURVE",
"150 1344 CURVE SMOOTH",
"150 517 LINE SMOOTH",
"150 411 OFFCURVE",
"175 317.5 OFFCURVE",
"225 236.5 CURVE SMOOTH",
"275 155.5 OFFCURVE",
"345.333 92.167 OFFCURVE",
"436 46.5 CURVE SMOOTH",
"526.667 0.833 OFFCURVE",
"632.667 -22 OFFCURVE",
"754 -22 CURVE SMOOTH"
);
}
);
userData = {
assembly = "NPUSHB[ ]	/* 46 values pushed */\01223 1 2 1 1 76 0 4 1 4 133 3 1 1 1 103 77 0 2 2 0 97 5 1 0 0 110 0 78 1 0 19 18 16 14 11 9 6 5 0 27 1 27 6 12 22 \012CALL[ ]	/* CallFunction */";
};
width = 1504;
}
);
leftKerningGroup = U;
note = Uhorn;
rightKerningGroup = Uhorn;
unicode = 01AF;
},
{
glyphname = "Upsilon-latin";
lastChange = "2024-07-06 19:32:59 +0000";
layers = (
{
layerId = "E952A9EA-CC11-40A5-A77C-9A3014CC01A0";
paths = (
{
closed = 1;
nodes = (
"104 550.333 OFFCURVE",
"133.5 427.667 OFFCURVE",
"192.5 321 CURVE SMOOTH",
"251.5 214.333 OFFCURVE",
"332.667 130.833 OFFCURVE",
"436 70.5 CURVE SMOOTH",
"539.333 10.167 OFFCURVE",
"658 -20 OFFCURVE",
"792 -20 CURVE SMOOTH",
"926 -20 OFFCURVE",
"1044.833 10.167 OFFCURVE",
"1148.5 70.5 CURVE SMOOTH",
"1252.167 130.833 OFFCURVE",
"1333.5 214.333 OFFCURVE",
"1392.5 321 CURVE SMOOTH",
"1451.5 427.667 OFFCURVE",
"1481 550.333 OFFCURVE",
"1481 689 CURVE SMOOTH",
"1481 820.333 OFFCURVE",
"1454.667 933.167 OFFCURVE",
"1402 1027.5 CURVE SMOOTH",
"1349.333 1121.833 OFFCURVE",
"1278.667 1197.333 OFFCURVE",
"1190 1254 CURVE",
"1190 1266 LINE",
"1336 1266 LINE SMOOTH",
"1430 1266 OFFCURVE",
"1481 1306 OFFCURVE",
"1481 1378 CURVE SMOOTH",
"1481 1450 OFFCURVE",
"1429 1490 OFFCURVE",
"1335 1490 CURVE SMOOTH",
"1057 1490 LINE SMOOTH",
"962 1490 OFFCURVE",
"911 1439 OFFCURVE",
"911 1344 CURVE SMOOTH",
"911 1324 LINE SMOOTH",
"911 1244 OFFCURVE",
"948 1198 OFFCURVE",
"1011 1148 CURVE SMOOTH",
"1030 1134 OFFCURVE",
"1047 1117 OFFCURVE",
"1064.5 1099 CURVE SMOOTH",
"1110.167 1050.333 OFFCURVE",
"1146.333 992.333 OFFCURVE",
"1173 925 CURVE SMOOTH",
"1199.667 857.667 OFFCURVE",
"1213 784.333 OFFCURVE",
"1213 705 CURVE SMOOTH",
"1213 613 OFFCURVE",
"1195 530.5 OFFCURVE",
"1159 457.5 CURVE SMOOTH",
"1123 384.5 OFFCURVE",
"1073.333 326.667 OFFCURVE",
"1010 284 CURVE SMOOTH",
"946.667 241.333 OFFCURVE",
"874 220 OFFCURVE",
"792 220 CURVE SMOOTH",
"710 220 OFFCURVE",
"637.333 241.333 OFFCURVE",
"574 284 CURVE SMOOTH",
"510.667 326.667 OFFCURVE",
"461 384.5 OFFCURVE",
"425 457.5 CURVE SMOOTH",
"389 530.5 OFFCURVE",
"371 613 OFFCURVE",
"371 705 CURVE SMOOTH",
"371 784.333 OFFCURVE",
"384.5 857.667 OFFCURVE",
"411.5 925 CURVE SMOOTH",
"438.5 992.333 OFFCURVE",
"474.833 1050.333 OFFCURVE",
"520.5 1099 CURVE SMOOTH",
"543 1123 OFFCURVE",
"567 1144 OFFCURVE",
"592 1161 CURVE SMOOTH",
"645 1199 OFFCURVE",
"674 1244 OFFCURVE",
"674 1324 CURVE SMOOTH",
"674 1349 LINE SMOOTH",
"674 1441 OFFCURVE",
"622 1490 OFFCURVE",
"528 1490 CURVE SMOOTH",
"250 1490 LINE SMOOTH",
"155 1490 OFFCURVE",
"104 1450 OFFCURVE",
"104 1378 CURVE SMOOTH",
"104 1306 OFFCURVE",
"155 1266 OFFCURVE",
"250 1266 CURVE SMOOTH",
"395 1266 LINE",
"395 1254 LINE",
"305.667 1196.667 OFFCURVE",
"234.833 1121 OFFCURVE",
"182.5 1027 CURVE SMOOTH",
"130.167 933 OFFCURVE",
"104 820.333 OFFCURVE",
"104 689 CURVE SMOOTH"
);
}
);
userData = {
assembly = "NPUSHB[ ]	/* 39 values pushed */\01224 8 2 2 0 1 76 4 1 0 0 1 95 3 1 1 1 103 77 0 2 2 5 97 0 5 5 110 5 78 39 17 24 40 17 35 6 12 28 \012CALL[ ]	/* CallFunction */";
};
width = 1585;
}
);
note = Upsilon2;
unicode = 01B1;
},
{
glyphname = V;
lastChange = "2024-07-06 19:32:59 +0000";
layers = (
{
layerId = "E952A9EA-CC11-40A5-A77C-9A3014CC01A0";
paths = (
{
closed = 1;
nodes = (
"794 0 LINE SMOOTH",
"879 0 OFFCURVE",
"932 37 OFFCURVE",
"960 118 CURVE SMOOTH",
"1382 1323 LINE SMOOTH",
"1417 1424 OFFCURVE",
"1376 1490 OFFCURVE",
"1275 1490 CURVE SMOOTH",
"1190 1490 OFFCURVE",
"1136 1452 OFFCURVE",
"1109 1370 CURVE SMOOTH",
"893 716 LINE SMOOTH",
"851.667 584.667 OFFCURVE",
"804.667 417 OFFCURVE",
"752 213 CURVE",
"724 315.667 OFFCURVE",
"698.167 408.667 OFFCURVE",
"674.5 492 CURVE SMOOTH",
"650.833 575.333 OFFCURVE",
"628.333 650 OFFCURVE",
"607 716 CURVE SMOOTH",
"383 1371 LINE SMOOTH",
"356 1451 OFFCURVE",
"303 1490 OFFCURVE",
"218 1490 CURVE SMOOTH",
"197 1490 LINE SMOOTH",
"108 1490 OFFCURVE",
"74 1424 OFFCURVE",
"110 1323 CURVE SMOOTH",
"539 117 LINE SMOOTH",
"567 37 OFFCURVE",
"621 0 OFFCURVE",
"706 0 CURVE SMOOTH"
);
}
);
userData = {
assembly = "NPUSHB[ ]	/* 30 values pushed */\0126 1 2 0 1 76 1 1 0 0 103 77 3 1 2 2 104 2 78 0 0 0 11 0 11 23 17 4 12 24 \012CALL[ ]	/* CallFunction */";
};
width = 1490;
}
);
leftKerningGroup = V;
note = V;
rightKerningGroup = V;
unicode = 0056;
},
{
glyphname = "V-middleWelsh";
lastChange = "2024-07-06 19:32:59 +0000";
layers = (
{
layerId = "E952A9EA-CC11-40A5-A77C-9A3014CC01A0";
paths = (
{
closed = 1;
nodes = (
"751 704 OFFCURVE",
"775 681 OFFCURVE",
"796.5 654.5 CURVE SMOOTH",
"839.5 600.833 OFFCURVE",
"861 530.333 OFFCURVE",
"861 443 CURVE SMOOTH",
"861 366.333 OFFCURVE",
"840.667 306.833 OFFCURVE",
"800 264.5 CURVE SMOOTH",
"759.333 222.167 OFFCURVE",
"703.333 201 OFFCURVE",
"632 201 CURVE SMOOTH",
"563.333 201 OFFCURVE",
"507 229.333 OFFCURVE",
"463 286 CURVE SMOOTH",
"419 342.667 OFFCURVE",
"397 423 OFFCURVE",
"397 527 CURVE SMOOTH",
"397 641 LINE SMOOTH",
"397 827.667 OFFCURVE",
"438.667 968.833 OFFCURVE",
"522 1064.5 CURVE SMOOTH",
"578 1129 OFFCURVE",
"649 1178 OFFCURVE",
"734 1212 CURVE SMOOTH",
"819 1245 OFFCURVE",
"861 1286 OFFCURVE",
"850 1359 CURVE SMOOTH",
"840 1429 OFFCURVE",
"780 1465 OFFCURVE",
"686 1438 CURVE SMOOTH",
"592 1411 OFFCURVE",
"510 1372 OFFCURVE",
"439 1321 CURVE SMOOTH",
"333 1245 OFFCURVE",
"253 1147 OFFCURVE",
"199 1027 CURVE SMOOTH",
"145 907 OFFCURVE",
"118 770 OFFCURVE",
"118 616 CURVE SMOOTH",
"118 556 LINE SMOOTH",
"118 448.667 OFFCURVE",
"138.667 351.5 OFFCURVE",
"180 264.5 CURVE SMOOTH",
"221.333 177.5 OFFCURVE",
"280.833 108.333 OFFCURVE",
"358.5 57 CURVE SMOOTH",
"436.167 5.667 OFFCURVE",
"529 -20 OFFCURVE",
"637 -20 CURVE SMOOTH",
"791.667 -20 OFFCURVE",
"913.167 22.667 OFFCURVE",
"1001.5 108 CURVE SMOOTH",
"1089.833 193.333 OFFCURVE",
"1134 310.667 OFFCURVE",
"1134 460 CURVE SMOOTH",
"1134 542 OFFCURVE",
"1117 617 OFFCURVE",
"1083 685 CURVE SMOOTH",
"1049 753 OFFCURVE",
"1002.833 811.667 OFFCURVE",
"944.5 861 CURVE SMOOTH",
"915 886 OFFCURVE",
"884 907 OFFCURVE",
"851 926 CURVE SMOOTH",
"786 963 OFFCURVE",
"728 939 OFFCURVE",
"693 873 CURVE SMOOTH",
"658 807 OFFCURVE",
"673 764 OFFCURVE",
"725 724 CURVE SMOOTH"
);
}
);
userData = {
assembly = "NPUSHB[ ]	/* 22 values pushed */\01218 17 1 3 1 74 0 1 1 0 97 0 0 0 110 0 78 47 39 2 12 24 \012CALL[ ]	/* CallFunction */";
};
width = 1251;
}
);
note = uni1EFC;
unicode = 1EFC;
},
{
glyphname = "Gamma-latin";
lastChange = "2024-07-06 19:32:59 +0000";
layers = (
{
layerId = "E952A9EA-CC11-40A5-A77C-9A3014CC01A0";
paths = (
{
closed = 1;
nodes = (
"122 1490 OFFCURVE",
"81 1419 OFFCURVE",
"129 1318 CURVE SMOOTH",
"586 347 LINE",
"466 80.5 LINE SMOOTH",
"436.667 14.833 OFFCURVE",
"415.667 -37 OFFCURVE",
"403 -75 CURVE SMOOTH",
"390.333 -113 OFFCURVE",
"384 -146.333 OFFCURVE",
"384 -175 CURVE SMOOTH",
"384 -259.667 OFFCURVE",
"414.5 -325.333 OFFCURVE",
"475.5 -372 CURVE SMOOTH",
"536.5 -418.667 OFFCURVE",
"617.667 -442 OFFCURVE",
"719 -442 CURVE SMOOTH",
"820.333 -442 OFFCURVE",
"900.833 -418.333 OFFCURVE",
"960.5 -371 CURVE SMOOTH",
"1020.167 -323.667 OFFCURVE",
"1050 -260 OFFCURVE",
"1050 -180 CURVE SMOOTH",
"1050 -133.333 OFFCURVE",
"1032.5 -68.667 OFFCURVE",
"997.5 14 CURVE SMOOTH",
"962.5 96.667 OFFCURVE",
"914.333 206.333 OFFCURVE",
"853 343 CURVE",
"1310 1318 LINE SMOOTH",
"1357 1419 OFFCURVE",
"1316 1490 OFFCURVE",
"1209 1490 CURVE SMOOTH",
"1126 1490 OFFCURVE",
"1072 1455 OFFCURVE",
"1039 1379 CURVE SMOOTH",
"718 646 LINE",
"398 1379 LINE SMOOTH",
"365 1456 OFFCURVE",
"311 1490 OFFCURVE",
"228 1490 CURVE SMOOTH"
);
},
{
closed = 1;
nodes = (
"742.333 8.667 OFFCURVE",
"759 -34.333 OFFCURVE",
"771 -71 CURVE SMOOTH",
"783 -107.667 OFFCURVE",
"789 -139.333 OFFCURVE",
"789 -166 CURVE SMOOTH",
"789 -188.667 OFFCURVE",
"782.667 -207.333 OFFCURVE",
"770 -222 CURVE SMOOTH",
"757.333 -236.667 OFFCURVE",
"740.333 -244 OFFCURVE",
"719 -244 CURVE SMOOTH",
"697.667 -244 OFFCURVE",
"680.833 -236.833 OFFCURVE",
"668.5 -222.5 CURVE SMOOTH",
"656.167 -208.167 OFFCURVE",
"650 -189.667 OFFCURVE",
"650 -167 CURVE SMOOTH",
"650 -140.333 OFFCURVE",
"656.167 -108.667 OFFCURVE",
"668.5 -72 CURVE SMOOTH",
"680.833 -35.333 OFFCURVE",
"698.333 8 OFFCURVE",
"721 58 CURVE"
);
}
);
userData = {
assembly = "NPUSHB[ ]	/* 32 values pushed */\01218 5 2 3 3 0 1 76 1 1 0 0 103 77 0 3 3 2 97 0 2 2 114 2 78 44 38 18 16 4 12 26 \012CALL[ ]	/* CallFunction */";
};
width = 1439;
}
);
leftKerningGroup = V;
note = Gamma1;
rightKerningGroup = V;
unicode = 0194;
},
{
glyphname = Vhook;
lastChange = "2024-07-06 19:32:59 +0000";
layers = (
{
layerId = "E952A9EA-CC11-40A5-A77C-9A3014CC01A0";
paths = (
{
closed = 1;
nodes = (
"778 -20 OFFCURVE",
"873.333 -0.667 OFFCURVE",
"958 38 CURVE SMOOTH",
"1042.667 76.667 OFFCURVE",
"1109.833 134 OFFCURVE",
"1159.5 210 CURVE SMOOTH",
"1209.167 286 OFFCURVE",
"1234 379.667 OFFCURVE",
"1234 491 CURVE SMOOTH",
"1234 1120 LINE SMOOTH",
"1234 1245.333 OFFCURVE",
"1200.167 1341.667 OFFCURVE",
"1132.5 1409 CURVE SMOOTH",
"1064.833 1476.333 OFFCURVE",
"975.333 1510 OFFCURVE",
"864 1510 CURVE SMOOTH",
"839.333 1510 OFFCURVE",
"815.333 1508.333 OFFCURVE",
"792 1505 CURVE SMOOTH",
"780 1503 OFFCURVE",
"769 1501 OFFCURVE",
"758 1499 CURVE SMOOTH",
"735 1495 OFFCURVE",
"724 1448 OFFCURVE",
"724 1359 CURVE SMOOTH",
"724 1274 LINE",
"738 1276 OFFCURVE",
"752.5 1277.5 OFFCURVE",
"767.5 1278.5 CURVE SMOOTH",
"782.5 1279.5 OFFCURVE",
"795.667 1280 OFFCURVE",
"807 1280 CURVE SMOOTH",
"857 1280 OFFCURVE",
"893.667 1268.5 OFFCURVE",
"917 1245.5 CURVE SMOOTH",
"940.333 1222.5 OFFCURVE",
"952 1180.667 OFFCURVE",
"952 1120 CURVE SMOOTH",
"952 491 LINE SMOOTH",
"952 394.333 OFFCURVE",
"928 322 OFFCURVE",
"880 274 CURVE SMOOTH",
"832 226 OFFCURVE",
"762.667 202 OFFCURVE",
"672 202 CURVE SMOOTH",
"580.667 202 OFFCURVE",
"510.5 226 OFFCURVE",
"461.5 274 CURVE SMOOTH",
"412.5 322 OFFCURVE",
"388 394.333 OFFCURVE",
"388 491 CURVE SMOOTH",
"388 1344 LINE SMOOTH",
"388 1439 OFFCURVE",
"339 1490 OFFCURVE",
"250 1490 CURVE SMOOTH",
"160 1490 OFFCURVE",
"111 1439 OFFCURVE",
"111 1344 CURVE SMOOTH",
"111 491 LINE SMOOTH",
"111 379 OFFCURVE",
"135.333 285.167 OFFCURVE",
"184 209.5 CURVE SMOOTH",
"232.667 133.833 OFFCURVE",
"299.333 76.667 OFFCURVE",
"384 38 CURVE SMOOTH",
"468.667 -0.667 OFFCURVE",
"564.667 -20 OFFCURVE",
"672 -20 CURVE SMOOTH"
);
}
);
userData = {
assembly = "MPPEM[ ]	/* MeasurePixelPerEm */\012PUSHB[ ]	/* 1 value pushed */\01225 \012LT[ ]	/* LessThan */\012IF[ ]	/* If */\012NPUSHB[ ]	/* 10 values pushed */\01220 1 2 3 1 76 21 1 1 74 \012ELSE[ ]	/* Else */\012NPUSHB[ ]	/* 10 values pushed */\01221 1 1 4 20 1 2 3 2 76 \012EIF[ ]	/* EndIf */\012MPPEM[ ]	/* MeasurePixelPerEm */\012PUSHB[ ]	/* 1 value pushed */\01225 \012LT[ ]	/* LessThan */\012IF[ ]	/* If */\012NPUSHB[ ]	/* 23 values pushed */\0120 3 3 1 97 4 1 1 1 103 77 0 2 2 0 97 5 1 0 0 110 0 78 \012ELSE[ ]	/* Else */\012NPUSHB[ ]	/* 27 values pushed */\0120 1 1 103 77 0 3 3 4 97 0 4 4 109 77 0 2 2 0 97 5 1 0 0 110 0 78 \012EIF[ ]	/* EndIf */\012NPUSHB[ ]	/* 17 values pushed */\0121 0 25 23 19 16 11 9 6 5 0 31 1 31 6 12 22 \012CALL[ ]	/* CallFunction */";
};
width = 1343;
}
);
note = Vcursive;
unicode = 01B2;
},
{
glyphname = Vturned;
lastChange = "2024-07-06 19:32:59 +0000";
layers = (
{
layerId = "E952A9EA-CC11-40A5-A77C-9A3014CC01A0";
paths = (
{
closed = 1;
nodes = (
"1256 0 LINE SMOOTH",
"1363 0 OFFCURVE",
"1410 66 OFFCURVE",
"1374 167 CURVE SMOOTH",
"948 1372 LINE SMOOTH",
"920 1452 OFFCURVE",
"866 1490 OFFCURVE",
"781 1490 CURVE SMOOTH",
"751 1490 LINE SMOOTH",
"666 1490 OFFCURVE",
"613 1453 OFFCURVE",
"585 1372 CURVE SMOOTH",
"160 167 LINE SMOOTH",
"124 66 OFFCURVE",
"171 0 OFFCURVE",
"278 0 CURVE SMOOTH",
"282 0 LINE SMOOTH",
"368 0 OFFCURVE",
"422 39 OFFCURVE",
"447 121 CURVE SMOOTH",
"766 1148 LINE",
"1087 121 LINE SMOOTH",
"1113 39 OFFCURVE",
"1166 0 OFFCURVE",
"1252 0 CURVE SMOOTH"
);
}
);
userData = {
assembly = "NPUSHB[ ]	/* 30 values pushed */\0121 1 0 1 1 76 0 1 1 103 77 3 2 2 0 0 104 0 78 0 0 0 6 0 6 17 18 4 12 24 \012CALL[ ]	/* CallFunction */";
};
width = 1534;
}
);
note = uni0245;
unicode = 0245;
},
{
glyphname = W;
lastChange = "2024-07-06 19:32:59 +0000";
layers = (
{
layerId = "E952A9EA-CC11-40A5-A77C-9A3014CC01A0";
paths = (
{
closed = 1;
nodes = (
"629 0 LINE SMOOTH",
"716 0 OFFCURVE",
"769 40 OFFCURVE",
"791 125 CURVE SMOOTH",
"975 823 LINE SMOOTH",
"989.667 878.333 OFFCURVE",
"1002.167 935 OFFCURVE",
"1012.5 993 CURVE SMOOTH",
"1022.833 1051 OFFCURVE",
"1033 1111 OFFCURVE",
"1043 1173 CURVE",
"1053.667 1109 OFFCURVE",
"1064.667 1047.667 OFFCURVE",
"1076 989 CURVE SMOOTH",
"1087.333 930.333 OFFCURVE",
"1099.667 875 OFFCURVE",
"1113 823 CURVE SMOOTH",
"1297 125 LINE SMOOTH",
"1319 40 OFFCURVE",
"1372 0 OFFCURVE",
"1459 0 CURVE SMOOTH",
"1507 0 LINE SMOOTH",
"1594 0 OFFCURVE",
"1647 40 OFFCURVE",
"1670 124 CURVE SMOOTH",
"1995 1327 LINE SMOOTH",
"2022 1428 OFFCURVE",
"1978 1490 OFFCURVE",
"1881 1490 CURVE SMOOTH",
"1794 1490 OFFCURVE",
"1741 1449 OFFCURVE",
"1720 1363 CURVE SMOOTH",
"1558 697 LINE SMOOTH",
"1542.667 630.333 OFFCURVE",
"1528.167 560 OFFCURVE",
"1514.5 486 CURVE SMOOTH",
"1500.833 412 OFFCURVE",
"1487.667 338.333 OFFCURVE",
"1475 265 CURVE",
"1461.667 338.333 OFFCURVE",
"1447.833 412 OFFCURVE",
"1433.5 486 CURVE SMOOTH",
"1419.167 560 OFFCURVE",
"1403.667 630.333 OFFCURVE",
"1387 697 CURVE SMOOTH",
"1218 1364 LINE SMOOTH",
"1197 1449 OFFCURVE",
"1143 1490 OFFCURVE",
"1056 1490 CURVE SMOOTH",
"1033 1490 LINE SMOOTH",
"946 1490 OFFCURVE",
"892 1448 OFFCURVE",
"871 1364 CURVE SMOOTH",
"701 697 LINE SMOOTH",
"684.333 629.667 OFFCURVE",
"668.833 558.5 OFFCURVE",
"654.5 483.5 CURVE SMOOTH",
"640.167 408.5 OFFCURVE",
"626.333 334 OFFCURVE",
"613 260 CURVE",
"574 483.5 LINE SMOOTH",
"560.667 558.5 OFFCURVE",
"546.333 629.667 OFFCURVE",
"531 697 CURVE SMOOTH",
"368 1363 LINE SMOOTH",
"347 1449 OFFCURVE",
"294 1490 OFFCURVE",
"207 1490 CURVE SMOOTH",
"194 1490 LINE SMOOTH",
"106 1490 OFFCURVE",
"67 1428 OFFCURVE",
"94 1327 CURVE SMOOTH",
"418 125 LINE SMOOTH",
"441 41 OFFCURVE",
"494 0 OFFCURVE",
"581 0 CURVE SMOOTH"
);
}
);
userData = {
assembly = "NPUSHB[ ]	/* 36 values pushed */\01226 15 6 3 3 0 1 76 2 1 2 0 0 103 77 5 4 2 3 3 104 3 78 0 0 0 30 0 30 17 24 24 17 6 12 26 \012CALL[ ]	/* CallFunction */";
};
width = 2089;
}
);
leftKerningGroup = W;
note = W;
rightKerningGroup = W;
unicode = 0057;
},
{
glyphname = Wynn;
lastChange = "2024-07-06 19:32:59 +0000";
layers = (
{
layerId = "E952A9EA-CC11-40A5-A77C-9A3014CC01A0";
paths = (
{
closed = 1;
nodes = (
"426 1478 OFFCURVE",
"377 1490 OFFCURVE",
"288 1490 CURVE SMOOTH",
"198 1490 OFFCURVE",
"149 1439 OFFCURVE",
"149 1344 CURVE SMOOTH",
"149 -272 LINE SMOOTH",
"149 -367 OFFCURVE",
"198 -418 OFFCURVE",
"288 -418 CURVE SMOOTH",
"378 -418 OFFCURVE",
"426 -366 OFFCURVE",
"426 -272 CURVE SMOOTH",
"426 -153 LINE",
"604 -103 OFFCURVE",
"758 -30.833 OFFCURVE",
"888 63.5 CURVE SMOOTH",
"1018 157.833 OFFCURVE",
"1118.5 268.5 OFFCURVE",
"1189.5 395.5 CURVE SMOOTH",
"1260.5 522.5 OFFCURVE",
"1296.333 660.333 OFFCURVE",
"1297 809 CURVE SMOOTH",
"1297 861 LINE SMOOTH",
"1297 1004.333 OFFCURVE",
"1271.333 1124.167 OFFCURVE",
"1220 1220.5 CURVE SMOOTH",
"1168.667 1316.833 OFFCURVE",
"1097.333 1389.167 OFFCURVE",
"1006 1437.5 CURVE SMOOTH",
"914.667 1485.833 OFFCURVE",
"809 1510 OFFCURVE",
"689 1510 CURVE SMOOTH",
"634.333 1510 OFFCURVE",
"585.167 1505 OFFCURVE",
"541.5 1495 CURVE SMOOTH",
"497.833 1485 OFFCURVE",
"459.333 1471.667 OFFCURVE",
"426 1455 CURVE"
);
},
{
closed = 1;
nodes = (
"426 1176 LINE",
"455.333 1210.667 OFFCURVE",
"492 1237.667 OFFCURVE",
"536 1257 CURVE SMOOTH",
"580 1276.333 OFFCURVE",
"632 1286 OFFCURVE",
"692 1286 CURVE SMOOTH",
"810 1286 OFFCURVE",
"893.167 1247.5 OFFCURVE",
"941.5 1170.5 CURVE SMOOTH",
"989.833 1093.5 OFFCURVE",
"1014 991.667 OFFCURVE",
"1014 865 CURVE SMOOTH",
"1014 809 LINE SMOOTH",
"1014 707.667 OFFCURVE",
"992.667 609.5 OFFCURVE",
"950 514.5 CURVE SMOOTH",
"907.333 419.5 OFFCURVE",
"842.5 334 OFFCURVE",
"755.5 258 CURVE SMOOTH",
"668.5 182 OFFCURVE",
"558.667 121.667 OFFCURVE",
"426 77 CURVE"
);
}
);
userData = {
assembly = "MPPEM[ ]	/* MeasurePixelPerEm */\012PUSHB[ ]	/* 1 value pushed */\01225 \012LT[ ]	/* LessThan */\012IF[ ]	/* If */\012NPUSHB[ ]	/* 12 values pushed */\0121 1 3 0 28 17 13 3 1 3 2 76 \012ELSE[ ]	/* Else */\012NPUSHB[ ]	/* 12 values pushed */\0121 1 3 2 28 17 13 3 1 3 2 76 \012EIF[ ]	/* EndIf */\012MPPEM[ ]	/* MeasurePixelPerEm */\012PUSHB[ ]	/* 1 value pushed */\01225 \012LT[ ]	/* LessThan */\012IF[ ]	/* If */\012NPUSHB[ ]	/* 18 values pushed */\0120 3 3 0 97 4 2 2 0 0 109 77 0 1 1 108 1 78 \012ELSE[ ]	/* Else */\012NPUSHB[ ]	/* 22 values pushed */\0124 1 2 2 103 77 0 3 3 0 97 0 0 0 109 77 0 1 1 108 1 78 \012EIF[ ]	/* EndIf */\012NPUSHB[ ]	/* 13 values pushed */\0120 0 26 24 0 16 0 16 25 35 5 12 24 \012CALL[ ]	/* CallFunction */";
};
width = 1443;
}
);
note = uni01F7;
unicode = 01F7;
},
{
glyphname = X;
lastChange = "2024-07-06 19:32:59 +0000";
layers = (
{
layerId = "E952A9EA-CC11-40A5-A77C-9A3014CC01A0";
paths = (
{
closed = 1;
nodes = (
"247 0 LINE SMOOTH",
"325 0 OFFCURVE",
"380 28 OFFCURVE",
"424 93 CURVE SMOOTH",
"590 334 LINE SMOOTH",
"626.667 387.333 OFFCURVE",
"655 431.333 OFFCURVE",
"675 466 CURVE SMOOTH",
"695 500.667 OFFCURVE",
"715.667 537.667 OFFCURVE",
"737 577 CURVE",
"758.333 537 OFFCURVE",
"778.833 499.833 OFFCURVE",
"798.5 465.5 CURVE SMOOTH",
"818.167 431.167 OFFCURVE",
"845.667 387.333 OFFCURVE",
"881 334 CURVE SMOOTH",
"1044 94 LINE SMOOTH",
"1088 28 OFFCURVE",
"1141 0 OFFCURVE",
"1220 0 CURVE SMOOTH",
"1264 0 LINE SMOOTH",
"1352 0 OFFCURVE",
"1368 77 OFFCURVE",
"1300 177 CURVE SMOOTH",
"893 771 LINE",
"1262 1313 LINE SMOOTH",
"1329 1412 OFFCURVE",
"1299 1490 OFFCURVE",
"1193 1490 CURVE SMOOTH",
"1114 1490 OFFCURVE",
"1061 1462 OFFCURVE",
"1017 1396 CURVE SMOOTH",
"896 1218 LINE SMOOTH",
"858 1160.667 OFFCURVE",
"828 1111.333 OFFCURVE",
"806 1070 CURVE SMOOTH",
"784 1028.667 OFFCURVE",
"762 986.667 OFFCURVE",
"740 944 CURVE",
"718 987.333 OFFCURVE",
"696.167 1029.5 OFFCURVE",
"674.5 1070.5 CURVE SMOOTH",
"652.833 1111.5 OFFCURVE",
"623.333 1160.667 OFFCURVE",
"586 1218 CURVE SMOOTH",
"468 1396 LINE SMOOTH",
"424 1462 OFFCURVE",
"371 1490 OFFCURVE",
"292 1490 CURVE SMOOTH",
"251 1490 LINE SMOOTH",
"165 1490 OFFCURVE",
"149 1412 OFFCURVE",
"216 1313 CURVE SMOOTH",
"588 762 LINE",
"178 177 LINE SMOOTH",
"109 78 OFFCURVE",
"122 0 OFFCURVE",
"207 0 CURVE SMOOTH"
);
}
);
userData = {
assembly = "NPUSHB[ ]	/* 35 values pushed */\01219 13 7 1 4 2 0 1 76 1 1 0 0 103 77 4 3 2 2 2 104 2 78 0 0 0 23 0 23 18 24 18 5 12 25 \012CALL[ ]	/* CallFunction */";
};
width = 1474;
}
);
leftKerningGroup = X;
note = X;
rightKerningGroup = X;
unicode = 0058;
},
{
glyphname = Y;
lastChange = "2024-07-06 19:32:59 +0000";
layers = (
{
layerId = "E952A9EA-CC11-40A5-A77C-9A3014CC01A0";
paths = (
{
closed = 1;
nodes = (
"600 146 LINE SMOOTH",
"600 51 OFFCURVE",
"647 0 OFFCURVE",
"734 0 CURVE SMOOTH",
"820 0 OFFCURVE",
"867 52 OFFCURVE",
"867 146 CURVE SMOOTH",
"867 577 LINE",
"1307 1315 LINE SMOOTH",
"1367 1415 OFFCURVE",
"1328 1490 OFFCURVE",
"1218 1490 CURVE SMOOTH",
"1137 1490 OFFCURVE",
"1083 1458 OFFCURVE",
"1044 1388 CURVE SMOOTH",
"840 1020 LINE SMOOTH",
"820.667 984.667 OFFCURVE",
"802.5 949.833 OFFCURVE",
"785.5 915.5 CURVE SMOOTH",
"768.5 881.167 OFFCURVE",
"751.667 842.667 OFFCURVE",
"735 800 CURVE",
"719 841.333 OFFCURVE",
"702.333 879.167 OFFCURVE",
"685 913.5 CURVE SMOOTH",
"667.667 947.833 OFFCURVE",
"648.667 983.333 OFFCURVE",
"628 1020 CURVE SMOOTH",
"419 1389 LINE SMOOTH",
"379 1460 OFFCURVE",
"326 1490 OFFCURVE",
"246 1490 CURVE SMOOTH",
"206 1490 LINE SMOOTH",
"117 1490 OFFCURVE",
"96 1415 OFFCURVE",
"156 1315 CURVE SMOOTH",
"600 577 LINE"
);
}
);
userData = {
assembly = "NPUSHB[ ]	/* 32 values pushed */\01213 7 1 3 2 0 1 76 1 1 0 0 103 77 3 1 2 2 104 2 78 0 0 0 14 0 14 24 18 4 12 24 \012CALL[ ]	/* CallFunction */";
};
width = 1461;
}
);
leftKerningGroup = Y;
note = Y;
rightKerningGroup = Y;
unicode = 0059;
},
{
glyphname = Yhook;
lastChange = "2024-07-06 19:32:59 +0000";
layers = (
{
layerId = "E952A9EA-CC11-40A5-A77C-9A3014CC01A0";
paths = (
{
closed = 1;
nodes = (
"132 1490 OFFCURVE",
"102 1415 OFFCURVE",
"165 1314 CURVE SMOOTH",
"619 589 LINE",
"619 146 LINE SMOOTH",
"619 51 OFFCURVE",
"666 0 OFFCURVE",
"752 0 CURVE SMOOTH",
"838 0 OFFCURVE",
"885 51 OFFCURVE",
"885 146 CURVE SMOOTH",
"885 589 LINE",
"1263 1194 LINE SMOOTH",
"1290.333 1238 OFFCURVE",
"1319.333 1265.5 OFFCURVE",
"1350 1276.5 CURVE SMOOTH",
"1367 1282 OFFCURVE",
"1385 1285 OFFCURVE",
"1406 1283 CURVE SMOOTH",
"1445 1279 OFFCURVE",
"1472 1303 OFFCURVE",
"1493 1373 CURVE SMOOTH",
"1513 1439 OFFCURVE",
"1474 1504 OFFCURVE",
"1378 1507 CURVE SMOOTH",
"1341 1508 OFFCURVE",
"1304 1503 OFFCURVE",
"1267 1494 CURVE SMOOTH",
"1181 1472 OFFCURVE",
"1109.333 1413.333 OFFCURVE",
"1052 1318 CURVE SMOOTH",
"760 829 LINE",
"743 829 LINE",
"408 1391 LINE SMOOTH",
"367 1460 OFFCURVE",
"314 1490 OFFCURVE",
"234 1490 CURVE SMOOTH"
);
}
);
userData = {
assembly = "NPUSHB[ ]	/* 26 values pushed */\01215 12 8 7 2 5 1 0 1 76 0 0 0 103 77 0 1 1 104 1 78 28 16 2 12 24 \012CALL[ ]	/* CallFunction */";
};
width = 1557;
}
);
leftKerningGroup = Y;
note = uni01B3;
rightKerningGroup = Y;
unicode = 01B3;
},
{
glyphname = Yloop;
lastChange = "2024-07-06 19:32:59 +0000";
layers = (
{
layerId = "E952A9EA-CC11-40A5-A77C-9A3014CC01A0";
paths = (
{
closed = 1;
nodes = (
"253 1490 OFFCURVE",
"215 1418 OFFCURVE",
"269 1316 CURVE SMOOTH",
"578 736 LINE",
"542.667 746 OFFCURVE",
"506.667 751 OFFCURVE",
"470 751 CURVE SMOOTH",
"398 751 OFFCURVE",
"332.5 733.333 OFFCURVE",
"273.5 698 CURVE SMOOTH",
"214.5 662.667 OFFCURVE",
"167.5 615.833 OFFCURVE",
"132.5 557.5 CURVE SMOOTH",
"97.5 499.167 OFFCURVE",
"80 434.667 OFFCURVE",
"80 364 CURVE SMOOTH",
"80 293.333 OFFCURVE",
"97.5 228.833 OFFCURVE",
"132.5 170.5 CURVE SMOOTH",
"167.5 112.167 OFFCURVE",
"214.5 65.833 OFFCURVE",
"273.5 31.5 CURVE SMOOTH",
"332.5 -2.833 OFFCURVE",
"398 -20 OFFCURVE",
"470 -20 CURVE SMOOTH",
"551.333 -20 OFFCURVE",
"624.833 2.667 OFFCURVE",
"690.5 48 CURVE SMOOTH",
"756.167 93.333 OFFCURVE",
"803.333 151.667 OFFCURVE",
"832 223 CURVE",
"1384 1317 LINE SMOOTH",
"1435 1419 OFFCURVE",
"1396 1490 OFFCURVE",
"1290 1490 CURVE SMOOTH",
"1208 1490 OFFCURVE",
"1154 1455 OFFCURVE",
"1119 1381 CURVE SMOOTH",
"832 768 LINE",
"531 1383 LINE SMOOTH",
"495 1456 OFFCURVE",
"442 1490 OFFCURVE",
"360 1490 CURVE SMOOTH"
);
},
{
closed = 1;
nodes = (
"426.667 211 OFFCURVE",
"390.667 224.167 OFFCURVE",
"362 250.5 CURVE SMOOTH",
"333.333 276.833 OFFCURVE",
"319 315.333 OFFCURVE",
"319 366 CURVE SMOOTH",
"319 417.333 OFFCURVE",
"333.333 456.167 OFFCURVE",
"362 482.5 CURVE SMOOTH",
"390.667 508.833 OFFCURVE",
"426.667 522 OFFCURVE",
"470 522 CURVE SMOOTH",
"511.333 522 OFFCURVE",
"546.333 508.833 OFFCURVE",
"575 482.5 CURVE SMOOTH",
"603.667 456.167 OFFCURVE",
"618 417.333 OFFCURVE",
"618 366 CURVE SMOOTH",
"618 315.333 OFFCURVE",
"603.667 276.833 OFFCURVE",
"575 250.5 CURVE SMOOTH",
"546.333 224.167 OFFCURVE",
"511.333 211 OFFCURVE",
"470 211 CURVE SMOOTH"
);
}
);
userData = {
assembly = "NPUSHB[ ]	/* 57 values pushed */\0121 1 2 0 17 1 5 2 2 76 0 2 0 5 4 2 5 106 6 3 2 0 0 103 77 7 1 4 4 1 97 0 1 1 110 1 78 20 19 0 0 26 24 19 30 20 30 0 18 0 18 38 35 18 8 12 25 \012CALL[ ]	/* CallFunction */";
};
width = 1532;
}
);
note = uni1EFE;
unicode = 1EFE;
},
{
glyphname = Yr;
lastChange = "2024-07-06 19:32:59 +0000";
layers = (
{
layerId = "E952A9EA-CC11-40A5-A77C-9A3014CC01A0";
paths = (
{
closed = 1;
nodes = (
"1429 -354 LINE",
"1429 -348 LINE SMOOTH",
"1429 -344 OFFCURVE",
"1416 -318 OFFCURVE",
"1383 -256 CURVE SMOOTH",
"899 643 LINE",
"986.333 677.667 OFFCURVE",
"1055.167 728 OFFCURVE",
"1105.5 794 CURVE SMOOTH",
"1155.833 860 OFFCURVE",
"1181 945.667 OFFCURVE",
"1181 1051 CURVE SMOOTH",
"1181 1193 OFFCURVE",
"1133.5 1301.667 OFFCURVE",
"1038.5 1377 CURVE SMOOTH",
"943.5 1452.333 OFFCURVE",
"811 1490 OFFCURVE",
"641 1490 CURVE SMOOTH",
"383 1490 LINE",
"383 1541 LINE SMOOTH",
"383 1574 OFFCURVE",
"334 1592 OFFCURVE",
"244 1592 CURVE SMOOTH",
"154 1592 OFFCURVE",
"104 1541 OFFCURVE",
"104 1446 CURVE SMOOTH",
"104 146 LINE SMOOTH",
"104 51 OFFCURVE",
"154 0 OFFCURVE",
"245 0 CURVE SMOOTH",
"336 0 OFFCURVE",
"385 51 OFFCURVE",
"385 146 CURVE SMOOTH",
"385 581 LINE",
"636 581 LINE",
"1076 -250 LINE SMOOTH",
"1114 -322 OFFCURVE",
"1168 -354 OFFCURVE",
"1249 -354 CURVE SMOOTH"
);
},
{
closed = 1;
nodes = (
"385 803 LINE",
"385 1265 LINE",
"641 1265 LINE SMOOTH",
"731.667 1265 OFFCURVE",
"798 1244 OFFCURVE",
"840 1202 CURVE SMOOTH",
"882 1160 OFFCURVE",
"903 1103.333 OFFCURVE",
"903 1032 CURVE SMOOTH",
"903 964.667 OFFCURVE",
"881 909.667 OFFCURVE",
"837 867 CURVE SMOOTH",
"793 824.333 OFFCURVE",
"727.667 803 OFFCURVE",
"641 803 CURVE SMOOTH"
);
}
);
userData = {
assembly = "NPUSHB[ ]	/* 58 values pushed */\01214 1 0 5 1 76 7 1 4 1 4 134 0 5 0 0 1 5 0 103 0 6 6 3 95 0 3 3 103 77 0 2 2 1 95 0 1 1 104 1 78 0 0 25 23 19 17 0 16 0 15 33 17 17 17 8 12 26 \012CALL[ ]	/* CallFunction */";
};
width = 1534;
}
);
note = YR;
unicode = 01A6;
},
{
glyphname = Ystroke;
lastChange = "2024-07-06 19:32:59 +0000";
layers = (
{
layerId = "E952A9EA-CC11-40A5-A77C-9A3014CC01A0";
paths = (
{
closed = 1;
nodes = (
"1425 1156 OFFCURVE",
"1373 1181 OFFCURVE",
"1279 1181 CURVE SMOOTH",
"1227 1181 LINE",
"1319 1336 LINE SMOOTH",
"1372 1424 OFFCURVE",
"1328 1490 OFFCURVE",
"1218 1490 CURVE SMOOTH",
"1137 1490 OFFCURVE",
"1083 1458 OFFCURVE",
"1044 1388 CURVE SMOOTH",
"930 1181 LINE",
"537 1181 LINE",
"419 1389 LINE SMOOTH",
"379 1460 OFFCURVE",
"326 1490 OFFCURVE",
"246 1490 CURVE SMOOTH",
"206 1490 LINE SMOOTH",
"117 1490 OFFCURVE",
"96 1415 OFFCURVE",
"156 1315 CURVE SMOOTH",
"236 1181 LINE",
"125 1181 LINE SMOOTH",
"53 1181 OFFCURVE",
"13 1155 OFFCURVE",
"13 1109 CURVE SMOOTH",
"13 1062 OFFCURVE",
"65 1036 OFFCURVE",
"159 1036 CURVE SMOOTH",
"324 1036 LINE",
"600 577 LINE",
"600 146 LINE SMOOTH",
"600 51 OFFCURVE",
"647 0 OFFCURVE",
"734 0 CURVE SMOOTH",
"820 0 OFFCURVE",
"867 52 OFFCURVE",
"867 146 CURVE SMOOTH",
"867 577 LINE",
"1141 1036 LINE",
"1283 1036 LINE SMOOTH",
"1375 1036 OFFCURVE",
"1425 1062 OFFCURVE",
"1425 1109 CURVE SMOOTH"
);
},
{
closed = 1;
nodes = (
"849 1036 LINE",
"840 1020 LINE SMOOTH",
"820.667 984.667 OFFCURVE",
"802.5 949.833 OFFCURVE",
"785.5 915.5 CURVE SMOOTH",
"768.5 881.167 OFFCURVE",
"751.667 842.667 OFFCURVE",
"735 800 CURVE",
"719 841.333 OFFCURVE",
"702.333 879.167 OFFCURVE",
"685 913.5 CURVE SMOOTH",
"667.667 947.833 OFFCURVE",
"648.667 983.333 OFFCURVE",
"628 1020 CURVE SMOOTH",
"619 1036 LINE"
);
}
);
userData = {
assembly = "NPUSHB[ ]	/* 51 values pushed */\01223 6 3 3 1 0 1 76 9 7 5 3 3 8 2 2 0 1 3 0 104 6 1 4 4 103 77 0 1 1 104 1 78 0 0 19 18 0 17 0 17 17 17 17 17 18 18 17 10 12 29 \012CALL[ ]	/* CallFunction */";
};
width = 1439;
}
);
leftKerningGroup = Y;
note = uni024E;
rightKerningGroup = Y;
unicode = 024E;
},
{
glyphname = Z;
lastChange = "2024-07-06 19:32:59 +0000";
layers = (
{
layerId = "E952A9EA-CC11-40A5-A77C-9A3014CC01A0";
paths = (
{
closed = 1;
nodes = (
"120 29 OFFCURVE",
"172 0 OFFCURVE",
"266 0 CURVE SMOOTH",
"1075 0 LINE SMOOTH",
"1170 0 OFFCURVE",
"1221 40 OFFCURVE",
"1221 113 CURVE SMOOTH",
"1221 186 OFFCURVE",
"1170 225 OFFCURVE",
"1075 225 CURVE SMOOTH",
"732 225 LINE SMOOTH",
"682 225 OFFCURVE",
"632 224.667 OFFCURVE",
"582 224 CURVE SMOOTH",
"532 223.333 OFFCURVE",
"482 222 OFFCURVE",
"432 220 CURVE",
"462 256 OFFCURVE",
"491.333 292.333 OFFCURVE",
"520 329 CURVE SMOOTH",
"548.667 365.667 OFFCURVE",
"576 402 OFFCURVE",
"602 438 CURVE SMOOTH",
"1159 1240 LINE SMOOTH",
"1200 1299 OFFCURVE",
"1216 1346 OFFCURVE",
"1216 1406 CURVE SMOOTH",
"1216 1460 OFFCURVE",
"1164 1490 OFFCURVE",
"1070 1490 CURVE SMOOTH",
"262 1490 LINE SMOOTH",
"167 1490 OFFCURVE",
"116 1450 OFFCURVE",
"116 1378 CURVE SMOOTH",
"116 1305 OFFCURVE",
"168 1265 OFFCURVE",
"262 1265 CURVE SMOOTH",
"614 1265 LINE SMOOTH",
"662.667 1265 OFFCURVE",
"711.167 1265.333 OFFCURVE",
"759.5 1266 CURVE SMOOTH",
"807.833 1266.667 OFFCURVE",
"856 1268 OFFCURVE",
"904 1270 CURVE",
"876 1236 OFFCURVE",
"848.5 1202 OFFCURVE",
"821.5 1168 CURVE SMOOTH",
"794.5 1134 OFFCURVE",
"769 1100 OFFCURVE",
"745 1066 CURVE SMOOTH",
"177 248 LINE SMOOTH",
"136 189 OFFCURVE",
"120 142 OFFCURVE",
"120 83 CURVE SMOOTH"
);
}
);
userData = {
assembly = "NPUSHB[ ]	/* 44 values pushed */\01212 1 0 1 1 1 3 2 2 76 0 0 0 1 95 0 1 1 103 77 0 2 2 3 95 4 1 3 3 104 3 78 0 0 0 21 0 21 69 17 69 5 12 25 \012CALL[ ]	/* CallFunction */";
};
width = 1336;
}
);
leftKerningGroup = Z;
note = Z;
rightKerningGroup = Z;
unicode = 005A;
},
{
glyphname = Zhook;
lastChange = "2024-07-06 19:32:59 +0000";
layers = (
{
layerId = "E952A9EA-CC11-40A5-A77C-9A3014CC01A0";
paths = (
{
closed = 1;
nodes = (
"834 -431 OFFCURVE",
"857 -432 OFFCURVE",
"882 -432 CURVE SMOOTH",
"1108 -432 OFFCURVE",
"1221 -333.333 OFFCURVE",
"1221 -136 CURVE SMOOTH",
"1221 79 LINE SMOOTH",
"1221 174 OFFCURVE",
"1170 225 OFFCURVE",
"1075 225 CURVE SMOOTH",
"732 225 LINE SMOOTH",
"682 225 OFFCURVE",
"632 224.667 OFFCURVE",
"582 224 CURVE SMOOTH",
"532 223.333 OFFCURVE",
"482 222 OFFCURVE",
"432 220 CURVE",
"462 256 OFFCURVE",
"491.333 292.333 OFFCURVE",
"520 329 CURVE SMOOTH",
"548.667 365.667 OFFCURVE",
"576 402 OFFCURVE",
"602 438 CURVE SMOOTH",
"1159 1240 LINE SMOOTH",
"1200 1299 OFFCURVE",
"1216 1346 OFFCURVE",
"1216 1406 CURVE SMOOTH",
"1216 1460 OFFCURVE",
"1164 1490 OFFCURVE",
"1070 1490 CURVE SMOOTH",
"262 1490 LINE SMOOTH",
"167 1490 OFFCURVE",
"116 1450 OFFCURVE",
"116 1378 CURVE SMOOTH",
"116 1305 OFFCURVE",
"168 1265 OFFCURVE",
"262 1265 CURVE SMOOTH",
"614 1265 LINE SMOOTH",
"662.667 1265 OFFCURVE",
"711.167 1265.333 OFFCURVE",
"759.5 1266 CURVE SMOOTH",
"807.833 1266.667 OFFCURVE",
"856 1268 OFFCURVE",
"904 1270 CURVE",
"876 1236 OFFCURVE",
"848.5 1202 OFFCURVE",
"821.5 1168 CURVE SMOOTH",
"794.5 1134 OFFCURVE",
"769 1100 OFFCURVE",
"745 1066 CURVE SMOOTH",
"177 248 LINE SMOOTH",
"136 189 OFFCURVE",
"120 142 OFFCURVE",
"120 83 CURVE SMOOTH",
"120 29 OFFCURVE",
"171 0 OFFCURVE",
"266 0 CURVE SMOOTH",
"954 0 LINE",
"954 -122 LINE SMOOTH",
"954 -154.667 OFFCURVE",
"944.667 -178.333 OFFCURVE",
"926 -193 CURVE SMOOTH",
"907.333 -207.667 OFFCURVE",
"873 -215 OFFCURVE",
"823 -215 CURVE SMOOTH",
"810 -215 OFFCURVE",
"797 -214 OFFCURVE",
"783 -213 CURVE SMOOTH",
"758 -211 OFFCURVE",
"744 -247 OFFCURVE",
"744 -314 CURVE SMOOTH",
"744 -383 OFFCURVE",
"767 -425 OFFCURVE",
"812 -429 CURVE SMOOTH"
);
}
);
userData = {
assembly = "NPUSHB[ ]	/* 58 values pushed */\01220 1 2 3 9 1 1 4 1 1 0 1 0 1 5 0 4 76 0 2 2 3 95 0 3 3 103 77 0 4 4 1 95 0 1 1 104 77 0 0 0 5 97 0 5 5 114 5 78 34 69 17 69 19 34 6 12 28 \012CALL[ ]	/* CallFunction */";
};
width = 1336;
}
);
leftKerningGroup = Z;
note = uni0224;
rightKerningGroup = Z;
unicode = 0224;
},
{
glyphname = Zswashtail;
lastChange = "2024-07-06 19:32:59 +0000";
layers = (
{
layerId = "E952A9EA-CC11-40A5-A77C-9A3014CC01A0";
paths = (
{
closed = 1;
nodes = (
"1116.333 -436 OFFCURVE",
"1144.833 -433.333 OFFCURVE",
"1168.5 -428 CURVE SMOOTH",
"1180 -425 OFFCURVE",
"1191 -422 OFFCURVE",
"1202 -419 CURVE SMOOTH",
"1224 -412 OFFCURVE",
"1234 -372 OFFCURVE",
"1234 -299 CURVE SMOOTH",
"1234 -232 OFFCURVE",
"1168 -206 OFFCURVE",
"1168 -205.5 CURVE SMOOTH",
"1145.333 -209.167 OFFCURVE",
"1120 -211 OFFCURVE",
"1092 -211 CURVE SMOOTH",
"1050.667 -211 OFFCURVE",
"1011.833 -199.833 OFFCURVE",
"975.5 -177.5 CURVE SMOOTH",
"939.167 -155.167 OFFCURVE",
"902.833 -126.833 OFFCURVE",
"866.5 -92.5 CURVE SMOOTH",
"750.5 16 LINE SMOOTH",
"709.5 54 OFFCURVE",
"663.667 89.333 OFFCURVE",
"613 122 CURVE SMOOTH",
"562.333 154.667 OFFCURVE",
"504 179.667 OFFCURVE",
"438 197 CURVE",
"1156 1249 LINE SMOOTH",
"1196 1308 OFFCURVE",
"1212 1354 OFFCURVE",
"1212 1411 CURVE SMOOTH",
"1212 1462 OFFCURVE",
"1161 1490 OFFCURVE",
"1066 1490 CURVE SMOOTH",
"262 1490 LINE SMOOTH",
"167 1490 OFFCURVE",
"116 1451 OFFCURVE",
"116 1379 CURVE SMOOTH",
"116 1307 OFFCURVE",
"167 1268 OFFCURVE",
"262 1268 CURVE SMOOTH",
"879 1268 LINE",
"175 241 LINE SMOOTH",
"135 182 OFFCURVE",
"119 137 OFFCURVE",
"119 80 CURVE SMOOTH",
"119 29 OFFCURVE",
"159 0 OFFCURVE",
"231 0 CURVE SMOOTH",
"310.333 0 OFFCURVE",
"379.667 -14.667 OFFCURVE",
"439 -44 CURVE SMOOTH",
"498.333 -73.333 OFFCURVE",
"552.667 -109.667 OFFCURVE",
"602 -153 CURVE SMOOTH",
"651.333 -196.333 OFFCURVE",
"699.5 -239.667 OFFCURVE",
"746.5 -283 CURVE SMOOTH",
"793.5 -326.333 OFFCURVE",
"843.833 -362.667 OFFCURVE",
"897.5 -392 CURVE SMOOTH",
"951.167 -421.333 OFFCURVE",
"1013 -436 OFFCURVE",
"1083 -436 CURVE SMOOTH"
);
}
);
userData = {
assembly = "NPUSHB[ ]	/* 63 values pushed */\01213 1 2 3 14 8 2 1 2 23 1 4 1 24 1 0 4 4 76 0 2 2 3 95 0 3 3 103 77 0 1 1 104 77 0 4 4 0 97 5 1 0 0 114 0 78 1 0 21 19 12 11 10 9 7 5 0 26 1 26 6 12 22 \012CALL[ ]	/* CallFunction */";
};
width = 1349;
}
);
leftKerningGroup = Z;
note = uni2C7F;
rightKerningGroup = Z;
unicode = 2C7F;
},
{
glyphname = G.1;
lastChange = "2024-07-06 19:32:59 +0000";
layers = (
{
layerId = "E952A9EA-CC11-40A5-A77C-9A3014CC01A0";
paths = (
{
closed = 1;
nodes = (
"856.333 -20 OFFCURVE",
"932.333 -4.5 OFFCURVE",
"993 26.5 CURVE SMOOTH",
"1053.667 57.5 OFFCURVE",
"1101.167 99.167 OFFCURVE",
"1135.5 151.5 CURVE SMOOTH",
"1169.833 203.833 OFFCURVE",
"1193.667 262 OFFCURVE",
"1207 326 CURVE",
"1226 138 LINE SMOOTH",
"1235 46 OFFCURVE",
"1272 0 OFFCURVE",
"1333 0 CURVE SMOOTH",
"1393 0 OFFCURVE",
"1425 51 OFFCURVE",
"1425 146 CURVE SMOOTH",
"1425 633 LINE SMOOTH",
"1425 728 OFFCURVE",
"1374 779 OFFCURVE",
"1279 779 CURVE SMOOTH",
"967 779 LINE SMOOTH",
"872 779 OFFCURVE",
"821 742 OFFCURVE",
"821 674 CURVE SMOOTH",
"821 606 OFFCURVE",
"872 569 OFFCURVE",
"967 569 CURVE SMOOTH",
"1166 569 LINE",
"1160.667 461 OFFCURVE",
"1125.5 375.667 OFFCURVE",
"1060.5 313 CURVE SMOOTH",
"995.5 250.333 OFFCURVE",
"907.667 219 OFFCURVE",
"797 219 CURVE SMOOTH",
"670.333 219 OFFCURVE",
"567.667 264.5 OFFCURVE",
"489 355.5 CURVE SMOOTH",
"410.333 446.5 OFFCURVE",
"371 576.333 OFFCURVE",
"371 745 CURVE SMOOTH",
"371 857.667 OFFCURVE",
"389 953.167 OFFCURVE",
"425 1031.5 CURVE SMOOTH",
"461 1109.833 OFFCURVE",
"510.5 1169.333 OFFCURVE",
"573.5 1210 CURVE SMOOTH",
"636.5 1250.667 OFFCURVE",
"708 1271 OFFCURVE",
"788 1271 CURVE SMOOTH",
"878.667 1271 OFFCURVE",
"953.833 1248 OFFCURVE",
"1013.5 1202 CURVE SMOOTH",
"1044 1178 OFFCURVE",
"1070 1151 OFFCURVE",
"1091 1118 CURVE SMOOTH",
"1135 1050 OFFCURVE",
"1177 1014 OFFCURVE",
"1260 1014 CURVE SMOOTH",
"1276 1014 LINE SMOOTH",
"1359 1014 OFFCURVE",
"1407 1082 OFFCURVE",
"1361 1179 CURVE SMOOTH",
"1345 1211 OFFCURVE",
"1325 1243 OFFCURVE",
"1302.5 1272 CURVE SMOOTH",
"1244.833 1346.667 OFFCURVE",
"1171.5 1405 OFFCURVE",
"1082.5 1447 CURVE SMOOTH",
"993.5 1489 OFFCURVE",
"894.333 1510 OFFCURVE",
"785 1510 CURVE SMOOTH",
"655 1510 OFFCURVE",
"538.667 1479.333 OFFCURVE",
"436 1418 CURVE SMOOTH",
"333.333 1356.667 OFFCURVE",
"252.167 1268.833 OFFCURVE",
"192.5 1154.5 CURVE SMOOTH",
"132.833 1040.167 OFFCURVE",
"103 903 OFFCURVE",
"103 743 CURVE SMOOTH",
"103 586.333 OFFCURVE",
"132 450.833 OFFCURVE",
"190 336.5 CURVE SMOOTH",
"248 222.167 OFFCURVE",
"326.833 134.167 OFFCURVE",
"426.5 72.5 CURVE SMOOTH",
"526.167 10.833 OFFCURVE",
"639 -20 OFFCURVE",
"765 -20 CURVE SMOOTH"
);
}
);
userData = {
assembly = "PUSHB[ ]	/* 6 values pushed */\01232 1 4 5 1 76 \012MPPEM[ ]	/* MeasurePixelPerEm */\012PUSHB[ ]	/* 1 value pushed */\01225 \012LT[ ]	/* LessThan */\012IF[ ]	/* If */\012NPUSHB[ ]	/* 39 values pushed */\0120 2 3 6 3 2 6 128 0 6 0 5 4 6 5 103 0 3 3 1 97 0 1 1 109 77 0 4 4 0 97 7 8 2 0 0 110 0 78 \012ELSE[ ]	/* Else */\012NPUSHB[ ]	/* 43 values pushed */\0120 2 3 6 3 2 6 128 0 6 0 5 4 6 5 103 0 3 3 1 97 0 1 1 109 77 0 7 7 104 77 0 4 4 0 97 8 1 0 0 110 0 78 \012EIF[ ]	/* EndIf */\012NPUSHB[ ]	/* 23 values pushed */\0121 0 31 30 29 28 27 26 24 22 17 15 13 12 9 7 0 35 1 35 9 12 22 \012CALL[ ]	/* CallFunction */";
};
width = 1554;
}
);
leftKerningGroup = C;
note = G.1;
rightKerningGroup = G.1;
},
{
glyphname = Ghook.1;
lastChange = "2024-07-06 19:32:59 +0000";
layers = (
{
layerId = "E952A9EA-CC11-40A5-A77C-9A3014CC01A0";
paths = (
{
closed = 1;
nodes = (
"856.333 -20 OFFCURVE",
"932.333 -4.5 OFFCURVE",
"993 26.5 CURVE SMOOTH",
"1053.667 57.5 OFFCURVE",
"1101.167 99.167 OFFCURVE",
"1135.5 151.5 CURVE SMOOTH",
"1169.833 203.833 OFFCURVE",
"1193.667 262 OFFCURVE",
"1207 326 CURVE",
"1226 138 LINE SMOOTH",
"1235 46 OFFCURVE",
"1272 0 OFFCURVE",
"1333 0 CURVE SMOOTH",
"1393 0 OFFCURVE",
"1425 51 OFFCURVE",
"1425 146 CURVE SMOOTH",
"1425 633 LINE SMOOTH",
"1425 728 OFFCURVE",
"1374 779 OFFCURVE",
"1279 779 CURVE SMOOTH",
"967 779 LINE SMOOTH",
"872 779 OFFCURVE",
"821 742 OFFCURVE",
"821 674 CURVE SMOOTH",
"821 606 OFFCURVE",
"872 569 OFFCURVE",
"967 569 CURVE SMOOTH",
"1166 569 LINE",
"1160.667 461 OFFCURVE",
"1125.5 375.667 OFFCURVE",
"1060.5 313 CURVE SMOOTH",
"995.5 250.333 OFFCURVE",
"907.667 219 OFFCURVE",
"797 219 CURVE SMOOTH",
"670.333 219 OFFCURVE",
"567.667 264.5 OFFCURVE",
"489 355.5 CURVE SMOOTH",
"410.333 446.5 OFFCURVE",
"371 576.333 OFFCURVE",
"371 745 CURVE SMOOTH",
"371 857.667 OFFCURVE",
"389 953.167 OFFCURVE",
"425 1031.5 CURVE SMOOTH",
"461 1109.833 OFFCURVE",
"510.5 1169.333 OFFCURVE",
"573.5 1210 CURVE SMOOTH",
"636.5 1250.667 OFFCURVE",
"708 1271 OFFCURVE",
"788 1271 CURVE SMOOTH",
"878.667 1271 OFFCURVE",
"953.833 1248 OFFCURVE",
"1013.5 1202 CURVE SMOOTH",
"1044 1178 OFFCURVE",
"1070 1151 OFFCURVE",
"1091 1118 CURVE SMOOTH",
"1135 1050 OFFCURVE",
"1177 1014 OFFCURVE",
"1260 1014 CURVE SMOOTH",
"1276 1014 LINE SMOOTH",
"1364 1014 OFFCURVE",
"1412 1065 OFFCURVE",
"1412 1160 CURVE SMOOTH",
"1412 1388 LINE SMOOTH",
"1412 1420.667 OFFCURVE",
"1423.167 1444.5 OFFCURVE",
"1445.5 1459.5 CURVE SMOOTH",
"1467.833 1474.5 OFFCURVE",
"1504 1482 OFFCURVE",
"1554 1482 CURVE SMOOTH",
"1567 1482 OFFCURVE",
"1580 1481 OFFCURVE",
"1593 1480 CURVE SMOOTH",
"1619 1478 OFFCURVE",
"1633 1511 OFFCURVE",
"1633 1573 CURVE SMOOTH",
"1633 1637 OFFCURVE",
"1541 1684 OFFCURVE",
"1496 1684 CURVE SMOOTH",
"1496 1684 OFFCURVE",
"1495 1684 OFFCURVE",
"1495 1684 CURVE SMOOTH",
"1276.333 1684 OFFCURVE",
"1163.667 1591 OFFCURVE",
"1157 1405 CURVE",
"1105.667 1438.333 OFFCURVE",
"1048.5 1464.167 OFFCURVE",
"985.5 1482.5 CURVE SMOOTH",
"922.5 1500.833 OFFCURVE",
"855.667 1510 OFFCURVE",
"785 1510 CURVE SMOOTH",
"655 1510 OFFCURVE",
"538.667 1479.333 OFFCURVE",
"436 1418 CURVE SMOOTH",
"333.333 1356.667 OFFCURVE",
"252.167 1268.833 OFFCURVE",
"192.5 1154.5 CURVE SMOOTH",
"132.833 1040.167 OFFCURVE",
"103 903 OFFCURVE",
"103 743 CURVE SMOOTH",
"103 586.333 OFFCURVE",
"132 450.833 OFFCURVE",
"190 336.5 CURVE SMOOTH",
"248 222.167 OFFCURVE",
"326.833 134.167 OFFCURVE",
"426.5 72.5 CURVE SMOOTH",
"526.167 10.833 OFFCURVE",
"639 -20 OFFCURVE",
"765 -20 CURVE SMOOTH"
);
}
);
userData = {
assembly = "NPUSHB[ ]	/* 15 values pushed */\01215 1 1 2 16 11 2 5 3 42 1 6 7 3 76 \012MPPEM[ ]	/* MeasurePixelPerEm */\012PUSHB[ ]	/* 1 value pushed */\01225 \012LT[ ]	/* LessThan */\012IF[ ]	/* If */\012NPUSHB[ ]	/* 47 values pushed */\0120 4 5 8 5 4 8 128 0 2 0 3 5 2 3 105 0 8 0 7 6 8 7 103 0 5 5 1 97 0 1 1 109 77 0 6 6 0 97 9 10 2 0 0 110 0 78 \012ELSE[ ]	/* Else */\012NPUSHB[ ]	/* 51 values pushed */\0120 4 5 8 5 4 8 128 0 2 0 3 5 2 3 105 0 8 0 7 6 8 7 103 0 5 5 1 97 0 1 1 109 77 0 9 9 104 77 0 6 6 0 97 10 1 0 0 110 0 78 \012EIF[ ]	/* EndIf */\012NPUSHB[ ]	/* 27 values pushed */\0121 0 41 40 39 38 37 36 34 32 27 25 23 22 19 17 14 12 9 7 0 45 1 45 11 12 22 \012CALL[ ]	/* CallFunction */";
};
width = 1554;
}
);
note = uni0193.1;
},
{
glyphname = I.1;
lastChange = "2024-07-06 19:32:59 +0000";
layers = (
{
layerId = "E952A9EA-CC11-40A5-A77C-9A3014CC01A0";
paths = (
{
closed = 1;
nodes = (
"80 40 OFFCURVE",
"131 0 OFFCURVE",
"226 0 CURVE SMOOTH",
"726 0 LINE SMOOTH",
"821 0 OFFCURVE",
"872 40 OFFCURVE",
"872 113 CURVE SMOOTH",
"872 186 OFFCURVE",
"821 225 OFFCURVE",
"726 225 CURVE SMOOTH",
"610 225 LINE",
"610 1265 LINE",
"741 1265 LINE SMOOTH",
"826 1265 OFFCURVE",
"872 1305 OFFCURVE",
"872 1378 CURVE SMOOTH",
"872 1451 OFFCURVE",
"821 1490 OFFCURVE",
"726 1490 CURVE SMOOTH",
"226 1490 LINE SMOOTH",
"131 1490 OFFCURVE",
"80 1450 OFFCURVE",
"80 1378 CURVE SMOOTH",
"80 1305 OFFCURVE",
"131 1265 OFFCURVE",
"226 1265 CURVE SMOOTH",
"343 1265 LINE",
"343 225 LINE",
"212 225 LINE SMOOTH",
"127 225 OFFCURVE",
"80 186 OFFCURVE",
"80 113 CURVE SMOOTH"
);
}
);
userData = {
assembly = "NPUSHB[ ]	/* 38 values pushed */\0123 1 1 1 2 95 0 2 2 103 77 4 1 0 0 5 95 6 1 5 5 104 5 78 0 0 0 11 0 11 17 17 17 17 17 7 12 27 \012CALL[ ]	/* CallFunction */";
};
width = 952;
}
);
leftKerningGroup = B;
note = I.1;
rightKerningGroup = Ereversed;
},
{
glyphname = Thook.base;
lastChange = "2024-07-06 19:32:59 +0000";
layers = (
{
layerId = "E952A9EA-CC11-40A5-A77C-9A3014CC01A0";
paths = (
{
closed = 1;
nodes = (
"461 1305 OFFCURVE",
"489 1266 OFFCURVE",
"541 1266 CURVE",
"541 146 LINE SMOOTH",
"541 51 OFFCURVE",
"588 0 OFFCURVE",
"675 0 CURVE SMOOTH",
"761 0 OFFCURVE",
"808 51 OFFCURVE",
"808 146 CURVE SMOOTH",
"808 1266 LINE",
"1121 1266 LINE SMOOTH",
"1216 1266 OFFCURVE",
"1267 1306 OFFCURVE",
"1267 1378 CURVE SMOOTH",
"1267 1450 OFFCURVE",
"1215 1490 OFFCURVE",
"1121 1490 CURVE SMOOTH",
"607 1490 LINE SMOOTH",
"512 1490 OFFCURVE",
"461 1450 OFFCURVE",
"461 1378 CURVE SMOOTH"
);
}
);
userData = {
assembly = "NPUSHB[ ]	/* 35 values pushed */\0120 2 1 2 134 0 0 1 1 0 87 0 0 0 1 95 4 3 2 1 0 1 79 0 0 0 7 0 7 17 17 17 5 6 25 \012CALL[ ]	/* CallFunction */";
};
width = 1350;
}
);
note = uni01AC.base;
rightKerningGroup = "Enghe-cy";
},
{
glyphname = a;
lastChange = "2024-07-06 19:32:59 +0000";
layers = (
{
layerId = "E952A9EA-CC11-40A5-A77C-9A3014CC01A0";
paths = (
{
closed = 1;
nodes = (
"536.667 -23 OFFCURVE",
"607 -5.5 OFFCURVE",
"661 29.5 CURVE SMOOTH",
"715 64.5 OFFCURVE",
"754.333 106 OFFCURVE",
"779 154 CURVE",
"789 154 LINE",
"789 77 LINE SMOOTH",
"789 27 OFFCURVE",
"833 0 OFFCURVE",
"914 0 CURVE SMOOTH",
"995 0 OFFCURVE",
"1038 52 OFFCURVE",
"1038 146 CURVE SMOOTH",
"1038 747 LINE SMOOTH",
"1038 821.667 OFFCURVE",
"1024.333 883.833 OFFCURVE",
"997 933.5 CURVE SMOOTH",
"969.667 983.167 OFFCURVE",
"933.667 1022.5 OFFCURVE",
"889 1051.5 CURVE SMOOTH",
"844.333 1080.5 OFFCURVE",
"795.167 1101.167 OFFCURVE",
"741.5 1113.5 CURVE SMOOTH",
"687.833 1125.833 OFFCURVE",
"634.667 1132 OFFCURVE",
"582 1132 CURVE SMOOTH",
"470 1132 OFFCURVE",
"371.167 1108 OFFCURVE",
"285.5 1060 CURVE SMOOTH",
"242 1036 OFFCURVE",
"205 1005 OFFCURVE",
"176 967 CURVE SMOOTH",
"120 896 OFFCURVE",
"157 830 OFFCURVE",
"233 815 CURVE SMOOTH",
"313 799 OFFCURVE",
"356 831 OFFCURVE",
"420 884 CURVE SMOOTH",
"422 886 OFFCURVE",
"425 887 OFFCURVE",
"427 889 CURVE SMOOTH",
"465.667 917.667 OFFCURVE",
"517.667 932 OFFCURVE",
"583 932 CURVE SMOOTH",
"646.333 932 OFFCURVE",
"694.667 916.833 OFFCURVE",
"728 886.5 CURVE SMOOTH",
"761.333 856.167 OFFCURVE",
"778 813.667 OFFCURVE",
"778 759 CURVE SMOOTH",
"778 754 LINE SMOOTH",
"778 715.333 OFFCURVE",
"756.333 691.5 OFFCURVE",
"713 682.5 CURVE SMOOTH",
"669.667 673.5 OFFCURVE",
"599.333 663.667 OFFCURVE",
"502 653 CURVE SMOOTH",
"430 645.667 OFFCURVE",
"361.5 631.5 OFFCURVE",
"296.5 610.5 CURVE SMOOTH",
"231.5 589.5 OFFCURVE",
"178.5 555.833 OFFCURVE",
"137.5 509.5 CURVE SMOOTH",
"96.5 463.167 OFFCURVE",
"76 398 OFFCURVE",
"76 314 CURVE SMOOTH",
"76 240.667 OFFCURVE",
"92.333 179 OFFCURVE",
"125 129 CURVE SMOOTH",
"157.667 79 OFFCURVE",
"202.333 41.167 OFFCURVE",
"259 15.5 CURVE SMOOTH",
"315.667 -10.167 OFFCURVE",
"379.333 -23 OFFCURVE",
"450 -23 CURVE SMOOTH"
);
},
{
closed = 1;
nodes = (
"461.667 170 OFFCURVE",
"416.333 182.5 OFFCURVE",
"381 207.5 CURVE SMOOTH",
"345.667 232.5 OFFCURVE",
"328 269 OFFCURVE",
"328 317 CURVE SMOOTH",
"328 368.333 OFFCURVE",
"347.5 406 OFFCURVE",
"386.5 430 CURVE SMOOTH",
"425.5 454 OFFCURVE",
"474.333 470 OFFCURVE",
"533 478 CURVE SMOOTH",
"618.5 490.5 LINE SMOOTH",
"652.833 495.5 OFFCURVE",
"685.333 501.5 OFFCURVE",
"716 508.5 CURVE SMOOTH",
"746.667 515.5 OFFCURVE",
"768 523.667 OFFCURVE",
"780 533 CURVE",
"780 401 LINE SMOOTH",
"780 339 OFFCURVE",
"756.167 285 OFFCURVE",
"708.5 239 CURVE SMOOTH",
"660.833 193 OFFCURVE",
"597 170 OFFCURVE",
"517 170 CURVE SMOOTH"
);
}
);
userData = {
assembly = "MPPEM[ ]	/* MeasurePixelPerEm */\012PUSHB[ ]	/* 1 value pushed */\01223 \012LT[ ]	/* LessThan */\012IF[ ]	/* If */\012NPUSHB[ ]	/* 12 values pushed */\01238 19 18 3 4 1 30 1 0 4 2 76 \012ELSE[ ]	/* Else */\012NPUSHB[ ]	/* 12 values pushed */\01238 19 18 3 4 1 30 1 3 4 2 76 \012EIF[ ]	/* EndIf */\012MPPEM[ ]	/* MeasurePixelPerEm */\012PUSHB[ ]	/* 1 value pushed */\01223 \012LT[ ]	/* LessThan */\012IF[ ]	/* If */\012NPUSHB[ ]	/* 24 values pushed */\0120 1 1 2 97 0 2 2 112 77 6 1 4 4 0 97 3 5 2 0 0 113 0 78 \012ELSE[ ]	/* Else */\012NPUSHB[ ]	/* 28 values pushed */\0120 1 1 2 97 0 2 2 112 77 0 3 3 104 77 6 1 4 4 0 97 5 1 0 0 113 0 78 \012EIF[ ]	/* EndIf */\012NPUSHB[ ]	/* 21 values pushed */\01235 34 1 0 34 47 35 47 29 28 23 21 16 14 0 33 1 33 7 12 22 \012CALL[ ]	/* CallFunction */";
};
width = 1176;
}
);
leftKerningGroup = a;
note = a;
rightKerningGroup = a;
unicode = 0061;
},
{
glyphname = "alphaturned-latin";
lastChange = "2024-07-06 19:32:59 +0000";
layers = (
{
layerId = "E952A9EA-CC11-40A5-A77C-9A3014CC01A0";
paths = (
{
closed = 1;
nodes = (
"816.333 -20 OFFCURVE",
"894.833 2.5 OFFCURVE",
"964.5 47.5 CURVE SMOOTH",
"1034.167 92.5 OFFCURVE",
"1089.167 158 OFFCURVE",
"1129.5 244 CURVE SMOOTH",
"1169.833 330 OFFCURVE",
"1190 434.333 OFFCURVE",
"1190 557 CURVE SMOOTH",
"1190 681 OFFCURVE",
"1169.333 785.833 OFFCURVE",
"1128 871.5 CURVE SMOOTH",
"1086.667 957.167 OFFCURVE",
"1031.167 1022 OFFCURVE",
"961.5 1066 CURVE SMOOTH",
"891.833 1110 OFFCURVE",
"813.667 1132 OFFCURVE",
"727 1132 CURVE SMOOTH",
"661 1132 OFFCURVE",
"607 1121 OFFCURVE",
"565 1099 CURVE SMOOTH",
"523 1077 OFFCURVE",
"489.667 1050.5 OFFCURVE",
"465 1019.5 CURVE SMOOTH",
"440.333 988.5 OFFCURVE",
"421.333 959.667 OFFCURVE",
"408 933 CURVE",
"396 933 LINE",
"396 1026 LINE SMOOTH",
"396 1086 OFFCURVE",
"350 1118 OFFCURVE",
"267 1118 CURVE SMOOTH",
"184 1118 OFFCURVE",
"138 1066 OFFCURVE",
"138 972 CURVE SMOOTH",
"138 146 LINE SMOOTH",
"138 51 OFFCURVE",
"184 0 OFFCURVE",
"267 0 CURVE SMOOTH",
"350 0 OFFCURVE",
"395 51 OFFCURVE",
"395 146 CURVE SMOOTH",
"395 177 LINE",
"408 177 LINE",
"421.333 149.667 OFFCURVE",
"440.833 120.667 OFFCURVE",
"466.5 90 CURVE SMOOTH",
"492.167 59.333 OFFCURVE",
"526.167 33.333 OFFCURVE",
"568.5 12 CURVE SMOOTH",
"610.833 -9.333 OFFCURVE",
"664.333 -20 OFFCURVE",
"729 -20 CURVE SMOOTH"
);
},
{
closed = 1;
nodes = (
"571.667 194 OFFCURVE",
"506.167 227.5 OFFCURVE",
"460.5 294.5 CURVE SMOOTH",
"414.833 361.5 OFFCURVE",
"392 449.333 OFFCURVE",
"392 558 CURVE SMOOTH",
"392 666.667 OFFCURVE",
"414.667 753.833 OFFCURVE",
"460 819.5 CURVE SMOOTH",
"505.333 885.167 OFFCURVE",
"571 918 OFFCURVE",
"657 918 CURVE SMOOTH",
"745 918 OFFCURVE",
"811.333 884.167 OFFCURVE",
"856 816.5 CURVE SMOOTH",
"900.667 748.833 OFFCURVE",
"923 662.667 OFFCURVE",
"923 558 CURVE SMOOTH",
"923 453.333 OFFCURVE",
"900.333 366.5 OFFCURVE",
"855 297.5 CURVE SMOOTH",
"809.667 228.5 OFFCURVE",
"743.667 194 OFFCURVE",
"657 194 CURVE SMOOTH"
);
}
);
userData = {
assembly = "MPPEM[ ]	/* MeasurePixelPerEm */\012PUSHB[ ]	/* 1 value pushed */\01225 \012LT[ ]	/* LessThan */\012IF[ ]	/* If */\012NPUSHB[ ]	/* 10 values pushed */\01210 1 5 2 4 1 0 4 2 76 \012ELSE[ ]	/* Else */\012NPUSHB[ ]	/* 10 values pushed */\01210 1 5 2 4 1 1 4 2 76 \012EIF[ ]	/* EndIf */\012MPPEM[ ]	/* MeasurePixelPerEm */\012PUSHB[ ]	/* 1 value pushed */\01225 \012LT[ ]	/* LessThan */\012IF[ ]	/* If */\012NPUSHB[ ]	/* 25 values pushed */\0120 5 5 2 97 3 1 2 2 106 77 7 1 4 4 0 97 1 6 2 0 0 110 0 78 \012ELSE[ ]	/* Else */\012MPPEM[ ]	/* MeasurePixelPerEm */\012PUSHB[ ]	/* 1 value pushed */\01236 \012LT[ ]	/* LessThan */\012IF[ ]	/* If */\012NPUSHB[ ]	/* 29 values pushed */\0120 5 5 2 97 3 1 2 2 106 77 0 1 1 104 77 7 1 4 4 0 97 6 1 0 0 110 0 78 \012ELSE[ ]	/* Else */\012NPUSHB[ ]	/* 33 values pushed */\0120 2 2 106 77 0 5 5 3 97 0 3 3 112 77 0 1 1 104 77 7 1 4 4 0 97 6 1 0 0 110 0 78 \012EIF[ ]	/* EndIf */\012EIF[ ]	/* EndIf */\012NPUSHB[ ]	/* 23 values pushed */\01224 23 1 0 30 28 23 34 24 34 16 14 9 8 7 6 0 22 1 22 8 12 22 \012CALL[ ]	/* CallFunction */";
};
width = 1278;
}
);
note = ascriptturn;
unicode = 0252;
},
{
glyphname = aturned;
lastChange = "2024-07-06 19:32:59 +0000";
layers = (
{
layerId = "E952A9EA-CC11-40A5-A77C-9A3014CC01A0";
paths = (
{
closed = 1;
nodes = (
"639 1141 OFFCURVE",
"569 1123.5 OFFCURVE",
"515 1088.5 CURVE SMOOTH",
"461 1053.5 OFFCURVE",
"421.667 1012 OFFCURVE",
"397 964 CURVE",
"386 964 LINE",
"386 1041 LINE SMOOTH",
"386 1091 OFFCURVE",
"342 1118 OFFCURVE",
"262 1118 CURVE SMOOTH",
"182 1118 OFFCURVE",
"138 1066 OFFCURVE",
"138 972 CURVE SMOOTH",
"138 371 LINE SMOOTH",
"138 296.333 OFFCURVE",
"151.667 234.167 OFFCURVE",
"179 184.5 CURVE SMOOTH",
"206.333 134.833 OFFCURVE",
"242.333 95.5 OFFCURVE",
"287 66.5 CURVE SMOOTH",
"331.667 37.5 OFFCURVE",
"380.833 16.833 OFFCURVE",
"434.5 4.5 CURVE SMOOTH",
"488.167 -7.833 OFFCURVE",
"541.333 -14 OFFCURVE",
"594 -14 CURVE SMOOTH",
"706 -14 OFFCURVE",
"804.833 10 OFFCURVE",
"890.5 58 CURVE SMOOTH",
"934 82 OFFCURVE",
"971 113 OFFCURVE",
"1000 151 CURVE SMOOTH",
"1056 222 OFFCURVE",
"1019 288 OFFCURVE",
"943 303 CURVE SMOOTH",
"863 319 OFFCURVE",
"820 287 OFFCURVE",
"756 234 CURVE SMOOTH",
"754 232 OFFCURVE",
"751 231 OFFCURVE",
"749 229 CURVE SMOOTH",
"710.333 200.333 OFFCURVE",
"658.333 186 OFFCURVE",
"593 186 CURVE SMOOTH",
"529.667 186 OFFCURVE",
"481.333 201.167 OFFCURVE",
"448 231.5 CURVE SMOOTH",
"414.667 261.833 OFFCURVE",
"398 304.333 OFFCURVE",
"398 359 CURVE SMOOTH",
"398 364 LINE SMOOTH",
"398 402.667 OFFCURVE",
"419.667 426.5 OFFCURVE",
"463 435.5 CURVE SMOOTH",
"506.333 444.5 OFFCURVE",
"576.667 454.333 OFFCURVE",
"674 465 CURVE SMOOTH",
"746 472.333 OFFCURVE",
"814.5 486.5 OFFCURVE",
"879.5 507.5 CURVE SMOOTH",
"944.5 528.5 OFFCURVE",
"997.5 562.167 OFFCURVE",
"1038.5 608.5 CURVE SMOOTH",
"1079.5 654.833 OFFCURVE",
"1100 720 OFFCURVE",
"1100 804 CURVE SMOOTH",
"1100 877.333 OFFCURVE",
"1083.667 939 OFFCURVE",
"1051 989 CURVE SMOOTH",
"1018.333 1039 OFFCURVE",
"973.667 1076.833 OFFCURVE",
"917 1102.5 CURVE SMOOTH",
"860.333 1128.167 OFFCURVE",
"796.333 1141 OFFCURVE",
"725 1141 CURVE SMOOTH"
);
},
{
closed = 1;
nodes = (
"713.667 948 OFFCURVE",
"758.833 935.5 OFFCURVE",
"794.5 910.5 CURVE SMOOTH",
"830.167 885.5 OFFCURVE",
"848 849 OFFCURVE",
"848 801 CURVE SMOOTH",
"848 749.667 OFFCURVE",
"828.5 712 OFFCURVE",
"789.5 688 CURVE SMOOTH",
"750.5 664 OFFCURVE",
"701.667 648 OFFCURVE",
"643 640 CURVE SMOOTH",
"557.5 627.5 LINE SMOOTH",
"523.167 622.5 OFFCURVE",
"490.667 616.5 OFFCURVE",
"460 609.5 CURVE SMOOTH",
"429.333 602.5 OFFCURVE",
"408 594.333 OFFCURVE",
"396 585 CURVE",
"396 717 LINE SMOOTH",
"396 779 OFFCURVE",
"419.833 833 OFFCURVE",
"467.5 879 CURVE SMOOTH",
"515.167 925 OFFCURVE",
"579 948 OFFCURVE",
"659 948 CURVE SMOOTH"
);
}
);
userData = {
assembly = "MPPEM[ ]	/* MeasurePixelPerEm */\012PUSHB[ ]	/* 1 value pushed */\01223 \012LT[ ]	/* LessThan */\012IF[ ]	/* If */\012NPUSHB[ ]	/* 12 values pushed */\01230 1 4 0 38 19 18 3 1 4 2 76 \012ELSE[ ]	/* Else */\012NPUSHB[ ]	/* 12 values pushed */\01230 1 4 3 38 19 18 3 1 4 2 76 \012EIF[ ]	/* EndIf */\012MPPEM[ ]	/* MeasurePixelPerEm */\012PUSHB[ ]	/* 1 value pushed */\01223 \012LT[ ]	/* LessThan */\012IF[ ]	/* If */\012NPUSHB[ ]	/* 24 values pushed */\0126 1 4 4 0 97 3 5 2 0 0 112 77 0 1 1 2 97 0 2 2 110 2 78 \012ELSE[ ]	/* Else */\012NPUSHB[ ]	/* 28 values pushed */\0120 3 3 106 77 6 1 4 4 0 97 5 1 0 0 112 77 0 1 1 2 97 0 2 2 110 2 78 \012EIF[ ]	/* EndIf */\012NPUSHB[ ]	/* 21 values pushed */\01235 34 1 0 34 47 35 47 29 28 23 21 16 14 0 33 1 33 7 12 22 \012CALL[ ]	/* CallFunction */";
};
width = 1176;
}
);
leftKerningGroup = aturned;
note = aturn;
rightKerningGroup = aturned;
unicode = 0250;
},
{
glyphname = ae;
lastChange = "2024-07-06 19:32:59 +0000";
layers = (
{
layerId = "E952A9EA-CC11-40A5-A77C-9A3014CC01A0";
paths = (
{
closed = 1;
nodes = (
"549.667 -23 OFFCURVE",
"632.333 -5.833 OFFCURVE",
"709 28.5 CURVE SMOOTH",
"785.667 62.833 OFFCURVE",
"841 109 OFFCURVE",
"875 167 CURVE",
"915 108.333 OFFCURVE",
"970.5 62 OFFCURVE",
"1041.5 28 CURVE SMOOTH",
"1112.5 -6 OFFCURVE",
"1194.667 -23 OFFCURVE",
"1288 -23 CURVE SMOOTH",
"1418 -23 OFFCURVE",
"1525.167 6.5 OFFCURVE",
"1609.5 65.5 CURVE SMOOTH",
"1651 95 OFFCURVE",
"1685 128 OFFCURVE",
"1712 167 CURVE SMOOTH",
"1763 241 OFFCURVE",
"1721 304 OFFCURVE",
"1644 313 CURVE SMOOTH",
"1564 323 OFFCURVE",
"1525 285 OFFCURVE",
"1461 233 CURVE SMOOTH",
"1454 227 OFFCURVE",
"1447 223 OFFCURVE",
"1439 218 CURVE SMOOTH",
"1397.667 193.333 OFFCURVE",
"1348.333 181 OFFCURVE",
"1291 181 CURVE SMOOTH",
"1208.333 181 OFFCURVE",
"1140.833 206.667 OFFCURVE",
"1088.5 258 CURVE SMOOTH",
"1036.167 309.333 OFFCURVE",
"1008.333 385.333 OFFCURVE",
"1005 486 CURVE",
"1638 486 LINE SMOOTH",
"1733 486 OFFCURVE",
"1784 515 OFFCURVE",
"1784 568 CURVE SMOOTH",
"1784 698.667 OFFCURVE",
"1760.5 805.5 OFFCURVE",
"1713.5 888.5 CURVE SMOOTH",
"1666.5 971.5 OFFCURVE",
"1604.333 1032.833 OFFCURVE",
"1527 1072.5 CURVE SMOOTH",
"1449.667 1112.167 OFFCURVE",
"1365.333 1132 OFFCURVE",
"1274 1132 CURVE SMOOTH",
"1198.667 1132 OFFCURVE",
"1131.167 1119.167 OFFCURVE",
"1071.5 1093.5 CURVE SMOOTH",
"1011.833 1067.833 OFFCURVE",
"960.667 1032 OFFCURVE",
"918 986 CURVE",
"882 1038 OFFCURVE",
"834.833 1075.333 OFFCURVE",
"776.5 1098 CURVE SMOOTH",
"718.167 1120.667 OFFCURVE",
"653.333 1132 OFFCURVE",
"582 1132 CURVE SMOOTH",
"470 1132 OFFCURVE",
"371.167 1108 OFFCURVE",
"285.5 1060 CURVE SMOOTH",
"242 1036 OFFCURVE",
"205 1005 OFFCURVE",
"176 967 CURVE SMOOTH",
"120 896 OFFCURVE",
"157 830 OFFCURVE",
"233 815 CURVE SMOOTH",
"313 799 OFFCURVE",
"356 831 OFFCURVE",
"420 884 CURVE SMOOTH",
"423 885 OFFCURVE",
"425 887 OFFCURVE",
"427.5 889 CURVE SMOOTH",
"466.5 917.667 OFFCURVE",
"518.333 932 OFFCURVE",
"583 932 CURVE SMOOTH",
"646.333 932 OFFCURVE",
"694.667 916.833 OFFCURVE",
"728 886.5 CURVE SMOOTH",
"761.333 856.167 OFFCURVE",
"778 813.667 OFFCURVE",
"778 759 CURVE SMOOTH",
"778 663 LINE",
"567 663 LINE SMOOTH",
"485 663 OFFCURVE",
"406.5 651.667 OFFCURVE",
"331.5 629 CURVE SMOOTH",
"256.5 606.333 OFFCURVE",
"195.167 569.5 OFFCURVE",
"147.5 518.5 CURVE SMOOTH",
"99.833 467.5 OFFCURVE",
"76 399.333 OFFCURVE",
"76 314 CURVE SMOOTH",
"76 204 OFFCURVE",
"112.167 120.333 OFFCURVE",
"184.5 63 CURVE SMOOTH",
"256.833 5.667 OFFCURVE",
"349 -23 OFFCURVE",
"461 -23 CURVE SMOOTH"
);
},
{
closed = 1;
nodes = (
"778 486 LINE",
"778 401 LINE SMOOTH",
"778 339 OFFCURVE",
"754.5 285 OFFCURVE",
"707.5 239 CURVE SMOOTH",
"660.5 193 OFFCURVE",
"597 170 OFFCURVE",
"517 170 CURVE SMOOTH",
"461.667 170 OFFCURVE",
"416.333 182.5 OFFCURVE",
"381 207.5 CURVE SMOOTH",
"345.667 232.5 OFFCURVE",
"328 270 OFFCURVE",
"328 320 CURVE SMOOTH",
"328 371.333 OFFCURVE",
"351.5 411.833 OFFCURVE",
"398.5 441.5 CURVE SMOOTH",
"445.5 471.167 OFFCURVE",
"506.667 486 OFFCURVE",
"582 486 CURVE SMOOTH"
);
},
{
closed = 1;
nodes = (
"1012.667 737 OFFCURVE",
"1039.333 799.667 OFFCURVE",
"1086 851 CURVE SMOOTH",
"1132.667 902.333 OFFCURVE",
"1196 928 OFFCURVE",
"1276 928 CURVE SMOOTH",
"1352 928 OFFCURVE",
"1412.667 903.5 OFFCURVE",
"1458 854.5 CURVE SMOOTH",
"1503.333 805.5 OFFCURVE",
"1527.333 741.667 OFFCURVE",
"1530 663 CURVE",
"1006 663 LINE"
);
}
);
userData = {
assembly = "MPPEM[ ]	/* MeasurePixelPerEm */\012PUSHB[ ]	/* 1 value pushed */\01245 \012LT[ ]	/* LessThan */\012IF[ ]	/* If */\012NPUSHB[ ]	/* 20 values pushed */\01222 1 2 3 16 15 2 1 2 38 37 2 6 5 44 1 0 6 4 76 \012ELSE[ ]	/* Else */\012NPUSHB[ ]	/* 20 values pushed */\01222 1 2 3 16 15 2 1 2 38 37 2 6 5 44 1 0 9 4 76 \012EIF[ ]	/* EndIf */\012MPPEM[ ]	/* MeasurePixelPerEm */\012PUSHB[ ]	/* 1 value pushed */\01245 \012LT[ ]	/* LessThan */\012IF[ ]	/* If */\012NPUSHB[ ]	/* 36 values pushed */\01210 1 1 8 1 5 6 1 5 103 11 1 2 2 3 97 4 1 3 3 112 77 9 1 6 6 0 97 7 12 2 0 0 113 0 78 \012ELSE[ ]	/* Else */\012NPUSHB[ ]	/* 47 values pushed */\01210 1 1 8 1 5 6 1 5 103 11 1 2 2 3 97 4 1 3 3 112 77 0 6 6 0 97 7 12 2 0 0 113 77 0 9 9 0 97 7 12 2 0 0 113 0 78 \012EIF[ ]	/* EndIf */\012NPUSHB[ ]	/* 31 values pushed */\0121 0 63 61 59 58 55 53 49 47 42 40 35 33 31 30 26 24 20 18 13 11 8 6 0 46 1 46 13 12 22 \012CALL[ ]	/* CallFunction */";
};
width = 1869;
}
);
leftKerningGroup = a;
note = ae;
rightKerningGroup = aturned;
unicode = 00E6;
},
{
glyphname = b;
lastChange = "2024-07-06 19:32:59 +0000";
layers = (
{
layerId = "E952A9EA-CC11-40A5-A77C-9A3014CC01A0";
paths = (
{
closed = 1;
nodes = (
"816.667 -20 OFFCURVE",
"895.667 2.5 OFFCURVE",
"965 47.5 CURVE SMOOTH",
"1034.333 92.5 OFFCURVE",
"1089.167 158 OFFCURVE",
"1129.5 244 CURVE SMOOTH",
"1169.833 330 OFFCURVE",
"1190 434.333 OFFCURVE",
"1190 557 CURVE SMOOTH",
"1190 681 OFFCURVE",
"1169.5 785.833 OFFCURVE",
"1128.5 871.5 CURVE SMOOTH",
"1087.5 957.167 OFFCURVE",
"1032.167 1022 OFFCURVE",
"962.5 1066 CURVE SMOOTH",
"892.833 1110 OFFCURVE",
"815 1132 OFFCURVE",
"729 1132 CURVE SMOOTH",
"663 1132 OFFCURVE",
"608.667 1120.833 OFFCURVE",
"566 1098.5 CURVE SMOOTH",
"523.333 1076.167 OFFCURVE",
"489.667 1049.5 OFFCURVE",
"465 1018.5 CURVE SMOOTH",
"440.333 987.5 OFFCURVE",
"421.667 959 OFFCURVE",
"409 933 CURVE",
"398 933 LINE",
"398 1344 LINE SMOOTH",
"398 1439 OFFCURVE",
"352 1490 OFFCURVE",
"268 1490 CURVE SMOOTH",
"184 1490 OFFCURVE",
"138 1439 OFFCURVE",
"138 1344 CURVE SMOOTH",
"138 146 LINE SMOOTH",
"138 51 OFFCURVE",
"183 0 OFFCURVE",
"265 0 CURVE SMOOTH",
"347 0 OFFCURVE",
"392 51 OFFCURVE",
"392 146 CURVE SMOOTH",
"392 177 LINE",
"409 177 LINE",
"422.333 150.333 OFFCURVE",
"441.667 121.667 OFFCURVE",
"467 91 CURVE SMOOTH",
"492.333 60.333 OFFCURVE",
"526.167 34.167 OFFCURVE",
"568.5 12.5 CURVE SMOOTH",
"610.833 -9.167 OFFCURVE",
"664 -20 OFFCURVE",
"728 -20 CURVE SMOOTH"
);
},
{
closed = 1;
nodes = (
"573.333 194 OFFCURVE",
"508 227.5 OFFCURVE",
"462 294.5 CURVE SMOOTH",
"416 361.5 OFFCURVE",
"393 449.333 OFFCURVE",
"393 558 CURVE SMOOTH",
"393 666.667 OFFCURVE",
"415.667 753.833 OFFCURVE",
"461 819.5 CURVE SMOOTH",
"506.333 885.167 OFFCURVE",
"572 918 OFFCURVE",
"658 918 CURVE SMOOTH",
"746 918 OFFCURVE",
"812.167 884 OFFCURVE",
"856.5 816 CURVE SMOOTH",
"900.833 748 OFFCURVE",
"923 662 OFFCURVE",
"923 558 CURVE SMOOTH",
"923 453.333 OFFCURVE",
"900.5 366.5 OFFCURVE",
"855.5 297.5 CURVE SMOOTH",
"810.5 228.5 OFFCURVE",
"744.667 194 OFFCURVE",
"658 194 CURVE SMOOTH"
);
}
);
userData = {
assembly = "MPPEM[ ]	/* MeasurePixelPerEm */\012PUSHB[ ]	/* 1 value pushed */\01225 \012LT[ ]	/* LessThan */\012IF[ ]	/* If */\012NPUSHB[ ]	/* 10 values pushed */\01210 1 5 3 4 1 0 4 2 76 \012ELSE[ ]	/* Else */\012NPUSHB[ ]	/* 10 values pushed */\01210 1 5 3 4 1 1 4 2 76 \012EIF[ ]	/* EndIf */\012MPPEM[ ]	/* MeasurePixelPerEm */\012PUSHB[ ]	/* 1 value pushed */\01225 \012LT[ ]	/* LessThan */\012IF[ ]	/* If */\012NPUSHB[ ]	/* 29 values pushed */\0120 2 2 103 77 0 5 5 3 97 0 3 3 112 77 7 1 4 4 0 97 1 6 2 0 0 110 0 78 \012ELSE[ ]	/* Else */\012NPUSHB[ ]	/* 33 values pushed */\0120 2 2 103 77 0 5 5 3 97 0 3 3 112 77 0 1 1 104 77 7 1 4 4 0 97 6 1 0 0 110 0 78 \012EIF[ ]	/* EndIf */\012NPUSHB[ ]	/* 23 values pushed */\01224 23 1 0 30 28 23 34 24 34 16 14 9 8 7 6 0 22 1 22 8 12 22 \012CALL[ ]	/* CallFunction */";
};
width = 1278;
}
);
leftKerningGroup = B;
note = b;
rightKerningGroup = b;
unicode = 0062;
},
{
glyphname = bhook;
lastChange = "2024-07-06 19:32:59 +0000";
layers = (
{
layerId = "E952A9EA-CC11-40A5-A77C-9A3014CC01A0";
paths = (
{
closed = 1;
nodes = (
"811 -20 OFFCURVE",
"889.833 2.5 OFFCURVE",
"959.5 47.5 CURVE SMOOTH",
"1029.167 92.5 OFFCURVE",
"1084 157.833 OFFCURVE",
"1124 243.5 CURVE SMOOTH",
"1164 329.167 OFFCURVE",
"1184 432.667 OFFCURVE",
"1184 554 CURVE SMOOTH",
"1184 676 OFFCURVE",
"1163.667 779.5 OFFCURVE",
"1123 864.5 CURVE SMOOTH",
"1082.333 949.5 OFFCURVE",
"1027.167 1013.833 OFFCURVE",
"957.5 1057.5 CURVE SMOOTH",
"887.833 1101.167 OFFCURVE",
"809.667 1123 OFFCURVE",
"723 1123 CURVE SMOOTH",
"656.333 1123 OFFCURVE",
"601.833 1112 OFFCURVE",
"559.5 1090 CURVE SMOOTH",
"517.167 1068 OFFCURVE",
"483.667 1041.667 OFFCURVE",
"459 1011 CURVE SMOOTH",
"434.333 980.333 OFFCURVE",
"415.333 952.333 OFFCURVE",
"402 927 CURVE",
"398 927 LINE",
"398 1208 LINE SMOOTH",
"398 1241.333 OFFCURVE",
"409.167 1265.333 OFFCURVE",
"431.5 1280 CURVE SMOOTH",
"453.833 1294.667 OFFCURVE",
"490 1302 OFFCURVE",
"540 1302 CURVE SMOOTH",
"552 1302 OFFCURVE",
"565 1301 OFFCURVE",
"579 1300 CURVE SMOOTH",
"604 1298 OFFCURVE",
"618 1331 OFFCURVE",
"618 1393 CURVE SMOOTH",
"618 1457 OFFCURVE",
"497 1504 OFFCURVE",
"482 1504 CURVE SMOOTH",
"481 1504 OFFCURVE",
"481 1504 OFFCURVE",
"481 1504 CURVE SMOOTH",
"369.667 1504 OFFCURVE",
"284.667 1479 OFFCURVE",
"226 1429 CURVE SMOOTH",
"167.333 1379 OFFCURVE",
"138 1305.333 OFFCURVE",
"138 1208 CURVE SMOOTH",
"138 146 LINE SMOOTH",
"138 51 OFFCURVE",
"182 0 OFFCURVE",
"262 0 CURVE SMOOTH",
"342 0 OFFCURVE",
"386 52 OFFCURVE",
"386 146 CURVE SMOOTH",
"386 176 LINE",
"402 176 LINE",
"416 149.333 OFFCURVE",
"435.667 120.833 OFFCURVE",
"461 90.5 CURVE SMOOTH",
"486.333 60.167 OFFCURVE",
"520.167 34.167 OFFCURVE",
"562.5 12.5 CURVE SMOOTH",
"604.833 -9.167 OFFCURVE",
"658.333 -20 OFFCURVE",
"723 -20 CURVE SMOOTH"
);
},
{
closed = 1;
nodes = (
"569 189 OFFCURVE",
"502.667 222.667 OFFCURVE",
"456 290 CURVE SMOOTH",
"409.333 357.333 OFFCURVE",
"386 445.667 OFFCURVE",
"386 555 CURVE SMOOTH",
"386 664.333 OFFCURVE",
"409.167 752 OFFCURVE",
"455.5 818 CURVE SMOOTH",
"501.833 884 OFFCURVE",
"568.333 917 OFFCURVE",
"655 917 CURVE SMOOTH",
"744.333 917 OFFCURVE",
"811.667 882.833 OFFCURVE",
"857 814.5 CURVE SMOOTH",
"902.333 746.167 OFFCURVE",
"925 659.667 OFFCURVE",
"925 555 CURVE SMOOTH",
"925 450.333 OFFCURVE",
"902.167 363.167 OFFCURVE",
"856.5 293.5 CURVE SMOOTH",
"810.833 223.833 OFFCURVE",
"743.667 189 OFFCURVE",
"655 189 CURVE SMOOTH"
);
}
);
userData = {
assembly = "MPPEM[ ]	/* MeasurePixelPerEm */\012PUSHB[ ]	/* 1 value pushed */\01225 \012LT[ ]	/* LessThan */\012IF[ ]	/* If */\012NPUSHB[ ]	/* 18 values pushed */\01213 1 3 2 14 1 4 3 20 1 6 4 4 1 0 5 4 76 \012ELSE[ ]	/* Else */\012NPUSHB[ ]	/* 18 values pushed */\01213 1 3 2 14 1 4 3 20 1 6 4 4 1 1 5 4 76 \012EIF[ ]	/* EndIf */\012MPPEM[ ]	/* MeasurePixelPerEm */\012PUSHB[ ]	/* 1 value pushed */\01225 \012LT[ ]	/* LessThan */\012IF[ ]	/* If */\012NPUSHB[ ]	/* 34 values pushed */\0120 3 3 2 97 0 2 2 109 77 0 6 6 4 97 0 4 4 106 77 8 1 5 5 0 97 1 7 2 0 0 110 0 78 \012ELSE[ ]	/* Else */\012NPUSHB[ ]	/* 38 values pushed */\0120 3 3 2 97 0 2 2 109 77 0 6 6 4 97 0 4 4 106 77 0 1 1 104 77 8 1 5 5 0 97 7 1 0 0 110 0 78 \012EIF[ ]	/* EndIf */\012NPUSHB[ ]	/* 25 values pushed */\01234 33 1 0 40 38 33 44 34 44 26 24 17 15 12 10 7 6 0 32 1 32 9 12 22 \012CALL[ ]	/* CallFunction */";
};
width = 1273;
}
);
leftKerningGroup = B;
note = uni0253;
rightKerningGroup = b;
unicode = 0253;
},
